<mxfile modified="2021-11-29T02:18:41.465Z" host="app.diagrams.net" agent="5.0 (Macintosh; Intel Mac OS X 10_15_7) AppleWebKit/537.36 (KHTML, like Gecko) Chrome/96.0.4664.55 Safari/537.36" etag="nFzp-wd1rR3ZVetmGVKO" version="15.8.3" type="github">
  <diagram id="d1ab7348-05c3-a1e3-ca4d-12c340fd6b49" name="Page-1">
    <mxGraphModel dx="2466" dy="1054" grid="0" gridSize="10" guides="0" tooltips="1" connect="1" arrows="1" fold="1" page="0" pageScale="1" pageWidth="1169" pageHeight="827" background="#ffffff" math="0" shadow="0">
      <root>
        <mxCell id="0" />
        <mxCell id="1" parent="0" />
        <mxCell id="2" value="&lt;b&gt;Google &lt;/b&gt;Cloud Platform" style="fillColor=#F6F6F6;strokeColor=none;shadow=0;gradientColor=none;fontSize=14;align=left;spacing=10;fontColor=#717171;9E9E9E;verticalAlign=top;spacingTop=-4;fontStyle=0;spacingLeft=40;html=1;" parent="1" vertex="1">
          <mxGeometry x="228.5" y="45" width="640" height="520" as="geometry" />
        </mxCell>
        <mxCell id="3" value="" style="shape=mxgraph.gcp2.google_cloud_platform;fillColor=#F6F6F6;strokeColor=none;shadow=0;gradientColor=none;" parent="2" vertex="1">
          <mxGeometry width="23" height="20" relative="1" as="geometry">
            <mxPoint x="20" y="10" as="offset" />
          </mxGeometry>
        </mxCell>
        <mxCell id="406" style="edgeStyle=orthogonalEdgeStyle;rounded=0;html=1;dashed=0;labelBackgroundColor=none;startArrow=none;startFill=0;startSize=4;endArrow=blockThin;endFill=1;endSize=4;strokeColor=#4284F3;strokeWidth=2;fontSize=12;" parent="1" source="371" target="384" edge="1">
          <mxGeometry relative="1" as="geometry">
            <Array as="points">
              <mxPoint x="648.5" y="550" />
              <mxPoint x="648.5" y="440" />
            </Array>
          </mxGeometry>
        </mxCell>
        <mxCell id="407" style="edgeStyle=orthogonalEdgeStyle;rounded=0;html=1;dashed=0;labelBackgroundColor=none;startArrow=none;startFill=0;startSize=4;endArrow=blockThin;endFill=1;endSize=4;strokeColor=#4284F3;strokeWidth=2;fontSize=12;" parent="1" source="371" target="380" edge="1">
          <mxGeometry relative="1" as="geometry">
            <Array as="points">
              <mxPoint x="648.5" y="550" />
              <mxPoint x="648.5" y="235" />
            </Array>
          </mxGeometry>
        </mxCell>
        <mxCell id="371" value="Streaming" style="rounded=1;absoluteArcSize=1;arcSize=2;html=1;strokeColor=#4284F3;gradientColor=none;shadow=0;dashed=1;fontSize=12;fontColor=#9E9E9E;align=left;verticalAlign=top;spacing=10;spacingTop=-4;fillColor=none;dashPattern=1 2;strokeWidth=2;" parent="1" vertex="1">
          <mxGeometry x="428.5" y="465" width="170" height="170" as="geometry" />
        </mxCell>
        <mxCell id="341" value="Streaming" style="rounded=1;absoluteArcSize=1;arcSize=2;html=1;strokeColor=#4284F3;gradientColor=none;shadow=0;dashed=1;fontSize=12;fontColor=#9E9E9E;align=left;verticalAlign=top;spacing=10;spacingTop=-4;fillColor=none;dashPattern=1 2;strokeWidth=2;" parent="1" vertex="1">
          <mxGeometry x="100.5" y="95" width="508" height="210" as="geometry" />
        </mxCell>
        <mxCell id="397" style="edgeStyle=orthogonalEdgeStyle;rounded=0;html=1;dashed=0;labelBackgroundColor=none;startArrow=none;startFill=0;startSize=4;endArrow=blockThin;endFill=1;endSize=4;strokeColor=#4284F3;strokeWidth=2;fontSize=12;" parent="1" source="340" target="361" edge="1">
          <mxGeometry relative="1" as="geometry">
            <Array as="points">
              <mxPoint x="234.5" y="255" />
              <mxPoint x="234.5" y="255" />
            </Array>
          </mxGeometry>
        </mxCell>
        <mxCell id="340" value="On-Premises&lt;br&gt;&lt;font style=&quot;font-size: 10px&quot;&gt;Applications&lt;/font&gt;&lt;br&gt;" style="rounded=1;absoluteArcSize=1;arcSize=2;html=1;strokeColor=none;gradientColor=none;shadow=0;dashed=0;fontSize=12;fontColor=#9E9E9E;align=left;verticalAlign=top;spacing=10;spacingTop=-4;fillColor=#EFEBE9;" parent="1" vertex="1">
          <mxGeometry x="110.5" y="165" width="110" height="130" as="geometry" />
        </mxCell>
        <mxCell id="338" value="" style="strokeColor=#dddddd;fillColor=#ffffff;shadow=1;strokeWidth=1;rounded=1;absoluteArcSize=1;arcSize=2;labelPosition=center;verticalLabelPosition=middle;align=center;verticalAlign=bottom;spacingLeft=0;fontColor=#999999;fontSize=12;whiteSpace=wrap;spacingBottom=2;html=1;" parent="1" vertex="1">
          <mxGeometry x="130.5" y="215" width="70" height="70" as="geometry" />
        </mxCell>
        <mxCell id="339" value="" style="dashed=0;connectable=0;html=1;fillColor=#757575;strokeColor=none;shape=mxgraph.gcp2.application;part=1;" parent="338" vertex="1">
          <mxGeometry x="0.5" width="50" height="40" relative="1" as="geometry">
            <mxPoint x="-25" y="15" as="offset" />
          </mxGeometry>
        </mxCell>
        <mxCell id="355" value="xy-manage" style="rounded=1;absoluteArcSize=1;arcSize=2;html=1;strokeColor=#4284F3;gradientColor=none;shadow=0;dashed=1;fontSize=12;fontColor=#9E9E9E;align=left;verticalAlign=top;spacing=10;spacingTop=-4;fillColor=none;dashPattern=1 2;strokeWidth=2;" parent="1" vertex="1">
          <mxGeometry x="100.5" y="375" width="308" height="210" as="geometry" />
        </mxCell>
        <mxCell id="401" style="edgeStyle=orthogonalEdgeStyle;rounded=0;html=1;dashed=0;labelBackgroundColor=none;startArrow=none;startFill=0;startSize=4;endArrow=blockThin;endFill=1;endSize=4;strokeColor=#4284F3;strokeWidth=2;fontSize=12;" parent="1" source="356" target="365" edge="1">
          <mxGeometry relative="1" as="geometry">
            <Array as="points">
              <mxPoint x="228.5" y="440" />
              <mxPoint x="228.5" y="440" />
            </Array>
          </mxGeometry>
        </mxCell>
        <mxCell id="356" value="On-Premises&lt;br&gt;&lt;font style=&quot;font-size: 10px&quot;&gt;Databases&lt;/font&gt;&lt;br&gt;" style="rounded=1;absoluteArcSize=1;arcSize=2;html=1;strokeColor=none;gradientColor=none;shadow=0;dashed=0;fontSize=12;fontColor=#9E9E9E;align=left;verticalAlign=top;spacing=10;spacingTop=-4;fillColor=#EFEBE9;" parent="1" vertex="1">
          <mxGeometry x="110.5" y="403.5" width="110" height="130" as="geometry" />
        </mxCell>
        <mxCell id="357" value="" style="strokeColor=#dddddd;fillColor=#ffffff;shadow=1;strokeWidth=1;rounded=1;absoluteArcSize=1;arcSize=2;labelPosition=center;verticalLabelPosition=middle;align=center;verticalAlign=bottom;spacingLeft=0;fontColor=#999999;fontSize=12;whiteSpace=wrap;spacingBottom=2;html=1;" parent="1" vertex="1">
          <mxGeometry x="130.5" y="452.5" width="70" height="69" as="geometry" />
        </mxCell>
        <mxCell id="358" value="" style="dashed=0;connectable=0;html=1;fillColor=#757575;strokeColor=none;shape=mxgraph.gcp2.database;part=1;" parent="357" vertex="1">
          <mxGeometry x="0.5" width="50" height="45" relative="1" as="geometry">
            <mxPoint x="-25" y="12.5" as="offset" />
          </mxGeometry>
        </mxCell>
        <mxCell id="398" style="edgeStyle=orthogonalEdgeStyle;rounded=0;html=1;dashed=0;labelBackgroundColor=none;startArrow=none;startFill=0;startSize=4;endArrow=blockThin;endFill=1;endSize=4;strokeColor=#4284F3;strokeWidth=2;fontSize=12;" parent="1" source="359" target="361" edge="1">
          <mxGeometry relative="1" as="geometry">
            <Array as="points">
              <mxPoint x="328.5" y="215" />
              <mxPoint x="328.5" y="215" />
            </Array>
          </mxGeometry>
        </mxCell>
        <mxCell id="359" value="" style="shape=mxgraph.gcp2.doubleRect;strokeColor=#dddddd;fillColor=#ffffff;shadow=1;strokeWidth=1;fontSize=12;fontColor=#9E9E9E;align=center;html=1;" parent="1" vertex="1">
          <mxGeometry x="248.5" y="121" width="160" height="68" as="geometry" />
        </mxCell>
        <mxCell id="360" value="&lt;font color=&quot;#000000&quot;&gt;Cloud Apps&lt;/font&gt;&lt;br&gt;Compute Engine" style="dashed=0;connectable=0;html=1;fillColor=#5184F3;strokeColor=none;shape=mxgraph.gcp2.hexIcon;prIcon=compute_engine;part=1;labelPosition=right;verticalLabelPosition=middle;align=left;verticalAlign=middle;spacingLeft=5;fontColor=#999999;fontSize=12;" parent="359" vertex="1">
          <mxGeometry y="0.5" width="44" height="39" relative="1" as="geometry">
            <mxPoint x="5" y="-19.5" as="offset" />
          </mxGeometry>
        </mxCell>
        <mxCell id="399" style="edgeStyle=orthogonalEdgeStyle;rounded=0;html=1;dashed=0;labelBackgroundColor=none;startArrow=none;startFill=0;startSize=4;endArrow=blockThin;endFill=1;endSize=4;strokeColor=#4284F3;strokeWidth=2;fontSize=12;" parent="1" source="361" target="363" edge="1">
          <mxGeometry relative="1" as="geometry" />
        </mxCell>
        <mxCell id="361" value="" style="strokeColor=#dddddd;fillColor=#ffffff;shadow=1;strokeWidth=1;rounded=1;absoluteArcSize=1;arcSize=2;fontSize=12;fontColor=#9E9E9E;align=center;html=1;" parent="1" vertex="1">
          <mxGeometry x="248.5" y="220" width="150" height="70" as="geometry" />
        </mxCell>
        <mxCell id="362" value="&lt;font color=&quot;#000000&quot;&gt;Streaming&lt;/font&gt;&lt;br&gt;Cloud Pub/Sub&lt;hr&gt;&lt;font style=&quot;font-size: 11px&quot;&gt;Transactions&lt;/font&gt;" style="dashed=0;connectable=0;html=1;fillColor=#5184F3;strokeColor=none;shape=mxgraph.gcp2.hexIcon;prIcon=cloud_pubsub;part=1;labelPosition=right;verticalLabelPosition=middle;align=left;verticalAlign=top;spacingLeft=5;fontColor=#999999;fontSize=12;spacingTop=-8;" parent="361" vertex="1">
          <mxGeometry width="44" height="39" relative="1" as="geometry">
            <mxPoint x="5" y="7" as="offset" />
          </mxGeometry>
        </mxCell>
        <mxCell id="400" style="edgeStyle=orthogonalEdgeStyle;rounded=0;html=1;exitX=0.5;exitY=1;dashed=0;labelBackgroundColor=none;startArrow=none;startFill=0;startSize=4;endArrow=blockThin;endFill=1;endSize=4;strokeColor=#4284F3;strokeWidth=2;fontSize=12;" parent="1" source="363" target="369" edge="1">
          <mxGeometry relative="1" as="geometry" />
        </mxCell>
        <mxCell id="405" style="edgeStyle=orthogonalEdgeStyle;rounded=0;html=1;dashed=0;labelBackgroundColor=none;startArrow=none;startFill=0;startSize=4;endArrow=blockThin;endFill=1;endSize=4;strokeColor=#4284F3;strokeWidth=2;fontSize=12;" parent="1" source="363" target="371" edge="1">
          <mxGeometry relative="1" as="geometry">
            <Array as="points">
              <mxPoint x="618.5" y="255" />
              <mxPoint x="618.5" y="435" />
              <mxPoint x="528.5" y="435" />
            </Array>
          </mxGeometry>
        </mxCell>
        <mxCell id="363" value="" style="strokeColor=#dddddd;fillColor=#ffffff;shadow=1;strokeWidth=1;rounded=1;absoluteArcSize=1;arcSize=2;fontSize=12;fontColor=#9E9E9E;align=center;html=1;" parent="1" vertex="1">
          <mxGeometry x="430.5" y="220" width="168" height="70" as="geometry" />
        </mxCell>
        <mxCell id="364" value="&lt;font color=&quot;#000000&quot;&gt;Processing&lt;/font&gt;&lt;br&gt;Cloud Dataflow&lt;hr&gt;&lt;font style=&quot;font-size: 11px&quot;&gt;Transaction Streams&lt;/font&gt;" style="dashed=0;connectable=0;html=1;fillColor=#5184F3;strokeColor=none;shape=mxgraph.gcp2.hexIcon;prIcon=cloud_dataflow;part=1;labelPosition=right;verticalLabelPosition=middle;align=left;verticalAlign=top;spacingLeft=5;fontColor=#999999;fontSize=12;spacingTop=-8;" parent="363" vertex="1">
          <mxGeometry width="44" height="39" relative="1" as="geometry">
            <mxPoint x="5" y="7" as="offset" />
          </mxGeometry>
        </mxCell>
        <mxCell id="403" style="edgeStyle=orthogonalEdgeStyle;rounded=0;html=1;dashed=0;labelBackgroundColor=none;startArrow=none;startFill=0;startSize=4;endArrow=blockThin;endFill=1;endSize=4;strokeColor=#4284F3;strokeWidth=2;fontSize=12;" parent="1" source="365" target="371" edge="1">
          <mxGeometry relative="1" as="geometry">
            <Array as="points">
              <mxPoint x="498.5" y="435" />
            </Array>
          </mxGeometry>
        </mxCell>
        <mxCell id="404" style="edgeStyle=orthogonalEdgeStyle;rounded=0;html=1;dashed=0;labelBackgroundColor=none;startArrow=none;startFill=0;startSize=4;endArrow=blockThin;endFill=1;endSize=4;strokeColor=#4284F3;strokeWidth=2;fontSize=12;" parent="1" source="365" target="369" edge="1">
          <mxGeometry relative="1" as="geometry">
            <Array as="points">
              <mxPoint x="498.5" y="435" />
            </Array>
          </mxGeometry>
        </mxCell>
        <mxCell id="365" value="" style="strokeColor=#dddddd;fillColor=#ffffff;shadow=1;strokeWidth=1;rounded=1;absoluteArcSize=1;arcSize=2;fontSize=12;fontColor=#9E9E9E;align=center;html=1;" parent="1" vertex="1">
          <mxGeometry x="248.5" y="405" width="150" height="70" as="geometry" />
        </mxCell>
        <mxCell id="366" value="&lt;font color=&quot;#000000&quot;&gt;ETL&lt;/font&gt;&lt;br&gt;Cloud Dataflow&lt;hr&gt;&lt;font style=&quot;font-size: 11px&quot;&gt;Transform Data&lt;/font&gt;" style="dashed=0;connectable=0;html=1;fillColor=#5184F3;strokeColor=none;shape=mxgraph.gcp2.hexIcon;prIcon=cloud_dataflow;part=1;labelPosition=right;verticalLabelPosition=middle;align=left;verticalAlign=top;spacingLeft=5;fontColor=#999999;fontSize=12;spacingTop=-8;" parent="365" vertex="1">
          <mxGeometry width="44" height="39" relative="1" as="geometry">
            <mxPoint x="5" y="7" as="offset" />
          </mxGeometry>
        </mxCell>
        <mxCell id="402" style="edgeStyle=orthogonalEdgeStyle;rounded=0;html=1;exitX=0.5;exitY=0;dashed=0;labelBackgroundColor=none;startArrow=none;startFill=0;startSize=4;endArrow=blockThin;endFill=1;endSize=4;strokeColor=#4284F3;strokeWidth=2;fontSize=12;" parent="1" source="367" target="365" edge="1">
          <mxGeometry relative="1" as="geometry" />
        </mxCell>
        <mxCell id="367" value="" style="strokeColor=#dddddd;fillColor=#ffffff;shadow=1;strokeWidth=1;rounded=1;absoluteArcSize=1;arcSize=2;fontSize=12;fontColor=#9E9E9E;align=center;html=1;" parent="1" vertex="1">
          <mxGeometry x="248.5" y="515" width="150" height="60" as="geometry" />
        </mxCell>
        <mxCell id="368" value="&lt;font color=&quot;#000000&quot;&gt;Cloud Data&lt;/font&gt;&lt;br&gt;Cloud Storage" style="dashed=0;connectable=0;html=1;fillColor=#5184F3;strokeColor=none;shape=mxgraph.gcp2.hexIcon;prIcon=cloud_storage;part=1;labelPosition=right;verticalLabelPosition=middle;align=left;verticalAlign=middle;spacingLeft=5;fontColor=#999999;fontSize=12;" parent="367" vertex="1">
          <mxGeometry y="0.5" width="44" height="39" relative="1" as="geometry">
            <mxPoint x="5" y="-19.5" as="offset" />
          </mxGeometry>
        </mxCell>
        <mxCell id="369" value="" style="strokeColor=#dddddd;fillColor=#ffffff;shadow=1;strokeWidth=1;rounded=1;absoluteArcSize=1;arcSize=2;fontSize=12;fontColor=#9E9E9E;align=center;html=1;" parent="1" vertex="1">
          <mxGeometry x="433" y="335" width="163" height="70" as="geometry" />
        </mxCell>
        <mxCell id="370" value="&lt;font color=&quot;#000000&quot;&gt;Processed Events&lt;/font&gt;&lt;br&gt;Cloud Bigtable&lt;hr&gt;&lt;font style=&quot;font-size: 11px&quot;&gt;Events Time Series&lt;/font&gt;" style="dashed=0;connectable=0;html=1;fillColor=#5184F3;strokeColor=none;shape=mxgraph.gcp2.hexIcon;prIcon=cloud_bigtable;part=1;labelPosition=right;verticalLabelPosition=middle;align=left;verticalAlign=top;spacingLeft=5;fontColor=#999999;fontSize=12;spacingTop=-8;" parent="369" vertex="1">
          <mxGeometry width="44" height="39" relative="1" as="geometry">
            <mxPoint x="5" y="7" as="offset" />
          </mxGeometry>
        </mxCell>
        <mxCell id="372" value="" style="strokeColor=#dddddd;fillColor=#ffffff;shadow=1;strokeWidth=1;rounded=1;absoluteArcSize=1;arcSize=2;fontSize=12;fontColor=#9E9E9E;align=center;html=1;" parent="1" vertex="1">
          <mxGeometry x="439.5" y="495" width="150" height="60" as="geometry" />
        </mxCell>
        <mxCell id="373" value="&lt;font color=&quot;#000000&quot;&gt;Rules Engine&lt;/font&gt;&lt;br&gt;Cloud Dataflow" style="dashed=0;connectable=0;html=1;fillColor=#5184F3;strokeColor=none;shape=mxgraph.gcp2.hexIcon;prIcon=cloud_dataflow;part=1;labelPosition=right;verticalLabelPosition=middle;align=left;verticalAlign=middle;spacingLeft=5;fontColor=#999999;fontSize=12;" parent="372" vertex="1">
          <mxGeometry y="0.5" width="44" height="39" relative="1" as="geometry">
            <mxPoint x="5" y="-19.5" as="offset" />
          </mxGeometry>
        </mxCell>
        <mxCell id="374" value="" style="strokeColor=#dddddd;fillColor=#ffffff;shadow=1;strokeWidth=1;rounded=1;absoluteArcSize=1;arcSize=2;fontSize=12;fontColor=#9E9E9E;align=center;html=1;" parent="1" vertex="1">
          <mxGeometry x="439.5" y="565" width="150" height="60" as="geometry" />
        </mxCell>
        <mxCell id="375" value="&lt;font color=&quot;#000000&quot;&gt;Rules Engine&lt;/font&gt;&lt;br&gt;Cloud Dataproc" style="dashed=0;connectable=0;html=1;fillColor=#5184F3;strokeColor=none;shape=mxgraph.gcp2.hexIcon;prIcon=cloud_dataproc;part=1;labelPosition=right;verticalLabelPosition=middle;align=left;verticalAlign=middle;spacingLeft=5;fontColor=#999999;fontSize=12;" parent="374" vertex="1">
          <mxGeometry y="0.5" width="44" height="39" relative="1" as="geometry">
            <mxPoint x="5" y="-19.5" as="offset" />
          </mxGeometry>
        </mxCell>
        <mxCell id="408" style="edgeStyle=orthogonalEdgeStyle;rounded=0;html=1;dashed=0;labelBackgroundColor=none;startArrow=none;startFill=0;startSize=4;endArrow=blockThin;endFill=1;endSize=4;strokeColor=#4284F3;strokeWidth=2;fontSize=12;" parent="1" source="376" target="388" edge="1">
          <mxGeometry relative="1" as="geometry">
            <Array as="points">
              <mxPoint x="888.5" y="145" />
              <mxPoint x="888.5" y="145" />
            </Array>
          </mxGeometry>
        </mxCell>
        <mxCell id="376" value="" style="strokeColor=#dddddd;fillColor=#ffffff;shadow=1;strokeWidth=1;rounded=1;absoluteArcSize=1;arcSize=2;fontSize=12;fontColor=#9E9E9E;align=center;html=1;" parent="1" vertex="1">
          <mxGeometry x="680.5" y="115" width="158" height="60" as="geometry" />
        </mxCell>
        <mxCell id="377" value="&lt;font color=&quot;#000000&quot;&gt;Push to Devices&lt;/font&gt;&lt;br&gt;App Engine" style="dashed=0;connectable=0;html=1;fillColor=#5184F3;strokeColor=none;shape=mxgraph.gcp2.hexIcon;prIcon=app_engine;part=1;labelPosition=right;verticalLabelPosition=middle;align=left;verticalAlign=middle;spacingLeft=5;fontColor=#999999;fontSize=12;" parent="376" vertex="1">
          <mxGeometry y="0.5" width="44" height="39" relative="1" as="geometry">
            <mxPoint x="5" y="-19.5" as="offset" />
          </mxGeometry>
        </mxCell>
        <mxCell id="409" style="edgeStyle=orthogonalEdgeStyle;rounded=0;html=1;dashed=0;labelBackgroundColor=none;startArrow=none;startFill=0;startSize=4;endArrow=blockThin;endFill=1;endSize=4;strokeColor=#4284F3;strokeWidth=2;fontSize=12;" parent="1" source="380" target="376" edge="1">
          <mxGeometry relative="1" as="geometry" />
        </mxCell>
        <mxCell id="410" style="edgeStyle=orthogonalEdgeStyle;rounded=0;html=1;dashed=0;labelBackgroundColor=none;startArrow=none;startFill=0;startSize=4;endArrow=blockThin;endFill=1;endSize=4;strokeColor=#4284F3;strokeWidth=2;fontSize=12;" parent="1" source="380" target="382" edge="1">
          <mxGeometry relative="1" as="geometry">
            <Array as="points">
              <mxPoint x="759.5" y="295" />
              <mxPoint x="759.5" y="295" />
            </Array>
          </mxGeometry>
        </mxCell>
        <mxCell id="380" value="" style="strokeColor=#dddddd;fillColor=#ffffff;shadow=1;strokeWidth=1;rounded=1;absoluteArcSize=1;arcSize=2;fontSize=12;fontColor=#9E9E9E;align=center;html=1;" parent="1" vertex="1">
          <mxGeometry x="680.5" y="200" width="158" height="70" as="geometry" />
        </mxCell>
        <mxCell id="381" value="&lt;font color=&quot;#000000&quot;&gt;Messaging&lt;/font&gt;&lt;br&gt;Cloud Pub/Sub&lt;hr&gt;&lt;font style=&quot;font-size: 11px&quot;&gt;Rules Actions&lt;/font&gt;" style="dashed=0;connectable=0;html=1;fillColor=#5184F3;strokeColor=none;shape=mxgraph.gcp2.hexIcon;prIcon=cloud_pubsub;part=1;labelPosition=right;verticalLabelPosition=middle;align=left;verticalAlign=top;spacingLeft=5;fontColor=#999999;fontSize=12;spacingTop=-8;" parent="380" vertex="1">
          <mxGeometry width="44" height="39" relative="1" as="geometry">
            <mxPoint x="5" y="7" as="offset" />
          </mxGeometry>
        </mxCell>
        <mxCell id="382" value="" style="shape=mxgraph.gcp2.doubleRect;strokeColor=#dddddd;fillColor=#ffffff;shadow=1;strokeWidth=1;fontSize=12;fontColor=#9E9E9E;align=center;html=1;" parent="1" vertex="1">
          <mxGeometry x="680.5" y="301" width="168" height="68" as="geometry" />
        </mxCell>
        <mxCell id="383" value="&lt;font color=&quot;#000000&quot;&gt;Cloud Apps&lt;/font&gt;&lt;br&gt;Compute Engine" style="dashed=0;connectable=0;html=1;fillColor=#5184F3;strokeColor=none;shape=mxgraph.gcp2.hexIcon;prIcon=compute_engine;part=1;labelPosition=right;verticalLabelPosition=middle;align=left;verticalAlign=middle;spacingLeft=5;fontColor=#999999;fontSize=12;" parent="382" vertex="1">
          <mxGeometry y="0.5" width="44" height="39" relative="1" as="geometry">
            <mxPoint x="5" y="-19.5" as="offset" />
          </mxGeometry>
        </mxCell>
        <mxCell id="411" style="edgeStyle=orthogonalEdgeStyle;rounded=0;html=1;dashed=0;labelBackgroundColor=none;startArrow=none;startFill=0;startSize=4;endArrow=blockThin;endFill=1;endSize=4;strokeColor=#4284F3;strokeWidth=2;fontSize=12;" parent="1" source="384" target="391" edge="1">
          <mxGeometry relative="1" as="geometry" />
        </mxCell>
        <mxCell id="412" style="edgeStyle=orthogonalEdgeStyle;rounded=0;html=1;dashed=0;labelBackgroundColor=none;startArrow=none;startFill=0;startSize=4;endArrow=blockThin;endFill=1;endSize=4;strokeColor=#4284F3;strokeWidth=2;fontSize=12;" parent="1" source="384" target="386" edge="1">
          <mxGeometry relative="1" as="geometry">
            <Array as="points">
              <mxPoint x="759.5" y="505" />
              <mxPoint x="759.5" y="505" />
            </Array>
          </mxGeometry>
        </mxCell>
        <mxCell id="384" value="" style="strokeColor=#dddddd;fillColor=#ffffff;shadow=1;strokeWidth=1;rounded=1;absoluteArcSize=1;arcSize=2;fontSize=12;fontColor=#9E9E9E;align=center;html=1;" parent="1" vertex="1">
          <mxGeometry x="680.5" y="405" width="157" height="70" as="geometry" />
        </mxCell>
        <mxCell id="385" value="&lt;font color=&quot;#000000&quot;&gt;Data Warehouse&lt;/font&gt;&lt;br&gt;BigQuery&lt;hr&gt;&lt;font style=&quot;font-size: 11px&quot;&gt;Execution Results&lt;/font&gt;" style="dashed=0;connectable=0;html=1;fillColor=#5184F3;strokeColor=none;shape=mxgraph.gcp2.hexIcon;prIcon=bigquery;part=1;labelPosition=right;verticalLabelPosition=middle;align=left;verticalAlign=top;spacingLeft=5;fontColor=#999999;fontSize=12;spacingTop=-8;" parent="384" vertex="1">
          <mxGeometry width="44" height="39" relative="1" as="geometry">
            <mxPoint x="5" y="7" as="offset" />
          </mxGeometry>
        </mxCell>
        <mxCell id="386" value="" style="strokeColor=#dddddd;fillColor=#ffffff;shadow=1;strokeWidth=1;rounded=1;absoluteArcSize=1;arcSize=2;fontSize=12;fontColor=#9E9E9E;align=center;html=1;" parent="1" vertex="1">
          <mxGeometry x="680.5" y="515" width="158" height="60" as="geometry" />
        </mxCell>
        <mxCell id="387" value="&lt;font color=&quot;#000000&quot;&gt;Data Analysis&lt;/font&gt;&lt;br&gt;Cloud Datalab" style="dashed=0;connectable=0;html=1;fillColor=#5184F3;strokeColor=none;shape=mxgraph.gcp2.hexIcon;prIcon=cloud_datalab;part=1;labelPosition=right;verticalLabelPosition=middle;align=left;verticalAlign=middle;spacingLeft=5;fontColor=#999999;fontSize=12;" parent="386" vertex="1">
          <mxGeometry y="0.5" width="44" height="39" relative="1" as="geometry">
            <mxPoint x="5" y="-19.5" as="offset" />
          </mxGeometry>
        </mxCell>
        <mxCell id="388" value="Mobile Devices&lt;br&gt;&lt;font style=&quot;font-size: 10px&quot;&gt;Push Notification&lt;/font&gt;&lt;br&gt;" style="rounded=1;absoluteArcSize=1;arcSize=2;html=1;strokeColor=none;gradientColor=none;shadow=0;dashed=0;fontSize=12;fontColor=#9E9E9E;align=left;verticalAlign=top;spacing=10;spacingTop=-4;fillColor=#F1F8E9;" parent="1" vertex="1">
          <mxGeometry x="898.5" y="95" width="110" height="130" as="geometry" />
        </mxCell>
        <mxCell id="389" value="" style="strokeColor=#dddddd;fillColor=#ffffff;shadow=1;strokeWidth=1;rounded=1;absoluteArcSize=1;arcSize=2;labelPosition=center;verticalLabelPosition=middle;align=center;verticalAlign=bottom;spacingLeft=0;fontColor=#999999;fontSize=12;whiteSpace=wrap;spacingBottom=2;html=1;" parent="1" vertex="1">
          <mxGeometry x="918.5" y="140" width="70" height="70" as="geometry" />
        </mxCell>
        <mxCell id="390" value="" style="dashed=0;connectable=0;html=1;fillColor=#757575;strokeColor=none;shape=mxgraph.gcp2.mobile_devices;part=1;" parent="389" vertex="1">
          <mxGeometry x="0.5" width="50" height="36.5" relative="1" as="geometry">
            <mxPoint x="-25" y="16.75" as="offset" />
          </mxGeometry>
        </mxCell>
        <mxCell id="391" value="Report &amp;amp; Share&lt;br&gt;&lt;font style=&quot;font-size: 10px&quot;&gt;Business Analysis&lt;/font&gt;&lt;br&gt;" style="rounded=1;absoluteArcSize=1;arcSize=2;html=1;strokeColor=none;gradientColor=none;shadow=0;dashed=0;fontSize=12;fontColor=#9E9E9E;align=left;verticalAlign=top;spacing=10;spacingTop=-4;fillColor=#F3E5F5;" parent="1" vertex="1">
          <mxGeometry x="898.5" y="376" width="170" height="128" as="geometry" />
        </mxCell>
        <mxCell id="392" value="" style="strokeColor=#dddddd;fillColor=#ffffff;shadow=1;strokeWidth=1;rounded=1;absoluteArcSize=1;arcSize=2;labelPosition=center;verticalLabelPosition=middle;align=center;verticalAlign=bottom;spacingLeft=0;fontColor=#999999;fontSize=12;whiteSpace=wrap;spacingBottom=2;html=1;" parent="1" vertex="1">
          <mxGeometry x="908.5" y="423" width="70" height="70" as="geometry" />
        </mxCell>
        <mxCell id="393" value="" style="dashed=0;connectable=0;html=1;fillColor=#757575;strokeColor=none;shape=mxgraph.gcp2.report;part=1;" parent="392" vertex="1">
          <mxGeometry x="0.5" width="50" height="50" relative="1" as="geometry">
            <mxPoint x="-25" y="10" as="offset" />
          </mxGeometry>
        </mxCell>
        <mxCell id="394" value="" style="strokeColor=#dddddd;fillColor=#ffffff;shadow=1;strokeWidth=1;rounded=1;absoluteArcSize=1;arcSize=2;labelPosition=center;verticalLabelPosition=middle;align=center;verticalAlign=bottom;spacingLeft=0;fontColor=#999999;fontSize=12;whiteSpace=wrap;spacingBottom=2;html=1;" parent="1" vertex="1">
          <mxGeometry x="988.5" y="423" width="70" height="70" as="geometry" />
        </mxCell>
        <mxCell id="395" value="" style="dashed=0;connectable=0;html=1;fillColor=#757575;strokeColor=none;shape=mxgraph.gcp2.users;part=1;" parent="394" vertex="1">
          <mxGeometry x="0.5" width="50" height="31.5" relative="1" as="geometry">
            <mxPoint x="-25" y="19.25" as="offset" />
          </mxGeometry>
        </mxCell>
        <mxCell id="B9LdbDwmjlOiAespIzek-414" value="" style="sketch=0;outlineConnect=0;fontColor=#232F3E;gradientColor=none;strokeColor=#232F3E;fillColor=#ffffff;dashed=0;verticalLabelPosition=bottom;verticalAlign=top;align=center;html=1;fontSize=12;fontStyle=0;aspect=fixed;shape=mxgraph.aws4.resourceIcon;resIcon=mxgraph.aws4.mobile_client;" parent="1" vertex="1">
          <mxGeometry x="-1.5" y="670" width="710" height="710" as="geometry" />
        </mxCell>
        <mxCell id="B9LdbDwmjlOiAespIzek-432" style="edgeStyle=none;rounded=0;orthogonalLoop=1;jettySize=auto;html=1;fontFamily=Helvetica;fontSize=23;" parent="1" source="B9LdbDwmjlOiAespIzek-415" target="B9LdbDwmjlOiAespIzek-421" edge="1">
          <mxGeometry relative="1" as="geometry" />
        </mxCell>
        <mxCell id="B9LdbDwmjlOiAespIzek-436" value="直播视频流" style="edgeLabel;html=1;align=center;verticalAlign=middle;resizable=0;points=[];fontSize=23;fontFamily=Helvetica;" parent="B9LdbDwmjlOiAespIzek-432" vertex="1" connectable="0">
          <mxGeometry x="-0.018" y="2" relative="1" as="geometry">
            <mxPoint as="offset" />
          </mxGeometry>
        </mxCell>
        <mxCell id="B9LdbDwmjlOiAespIzek-415" value="" style="shape=image;imageAspect=0;aspect=fixed;verticalLabelPosition=bottom;verticalAlign=top;image=data:image/jpeg,iVBORw0KGgoAAAANSUhEUgAABAAAAAQACAYAAAB/HSuDAAAABGdBTUEAALGPC/xhBQAAAAFzUkdCAK7OHOkAAAAgY0hSTQAAeiYAAICEAAD6AAAAgOgAAHUwAADqYAAAOpgAABdwnLpRPAAAAAZiS0dEAP8A/wD/oL2nkwAAAAlwSFlzAAAASAAAAEgARslrPgAAgABJREFUeNrs3Qd4VGX6BfAbQLGioFhRUEDsumtZ3XUVKyA1QBISSA8JAYKg2HXNWtfy37UrKoKAlNA7IWVSpmfS6L2X9F4mmbn3/L87CQgKAiFlyvk9z/sMshb6znvm3O+TJCIiIiIiIiIiIiIiIiIiIiIiIiIiIiIiIiIiIiIiIiIiIiIiIiIiIiIiIiIiIiIiIiIiIiIiIiIiIiIiIiIiIiIiIiIiIiIiIiIiIiIiIiIiIiIiIiIiIiIiIiIiIiIiIiIiIiIiIiIiIiIiIiIiIiIiIiIiIiIiIiIiIiIiIiIiIiIiIiIiIiIiIiIiIiIiIiIiIiIiIiIiIiIiIiIiIiIiIiIiIiIiIiIiIiIiIiIiIiIiIiIiIiIiIiIiIiIiIiIiIiIiIiIiIiIiIiIiIiIiIiIiIiIiIiIiIiIiIiIiIiIiIiIiIiIiIiIiIiIiIiIiIiIiIiIiIiIiIiIiIiIiIiIiIiIiIiIiIiIiIiIiIiIiIiIiIiIiIiIiIiIiIiIiIiIiIiIiIiIiIiIiIiIiIiIiIiIiIiIiIiIiIiIiIiIiIiIiIiIiIiIiIiIiIiIiIiIiIiIiIiIiIiIiIiIiIiIiIiIiIiIiIiIiIiIiIiIiIiIiIiIiIiIiIiIiIiIiIiIiIiIiIiIiIiIiIiIiIiIiIiIiIiIiIiIiIiIiIiIiIiIiIiIiIiIiIiIiIiIiIiIiIiIiIiIiIiIiIiIiIiIiIiIiIiIiIiIiIiIiIiIiIiIiIiIiIiIiIiIiIiIiIiIiIiIiIiIiIiIiIiIiIiIiIiIiIiIiIiIiIiIiIiIiIiIiIiIiIiIiIiIiIiIiIiIiIiIiIiIiIiIiIiIiIiIiIiIiIiIiIiIiIiIiIiIiIiIiIiIiIiIiIiIiIiIiIiIiIiIiIiIiIiIiIiIiIiIiIiIiIiIiIiIiIiIiIiIiIiIiIiIiIiIiIiIiIiIiIiIiIiIiIiIiIiIiIiIiIiIiIiIiIiIiIiIiIiIiIiIiIiIiIiIiIiIiIiIiIiIiIiIiIiIiIiIiIiIiIiIiIiIiIiIiIiIiIiIiIiIiIiIiIiIiIiIiIiIiIiIiIiIiIiIiIiIiIiIiIiIiIiIiIiIiIiIiIiIiIiIiIiIiIiIiIiIiIiIiIiIiIiIiIiIiIiIiIiIiIiIiIiIiIiIiIiIiIiIiIiIiIiIiIiIiIiIiIiIiIiIiIiIiIiIiIiIiIiIiIiIiIiIiIiIiIiIiIiIiIiIiIiIiIiIiIiIiIiIiIiIiIiIiIiIiIiIiIiIiIiIiIiIiIiIiIiIiIiIiIiIiIiIiIiIiIiIiIiIiIiIiIiIiIiIiIiIiIiIiIiIiIiIiIiIiIiIiIiIiIiIiIiIiIiIiIiIiIiIiIiIiIiIiIiIiIiIiIiIiIiIiIiIiIiIiIiIiIiIiIiIiIiIiIqK2EQu084lD+y+BjuLLF72ixeWxRnSK3oDOUzajS0wauo7T4Zrxm3FdpAXXj8vBjeqEmnFT6EbcFKnFzeLrbw7PQveTRtcw6v+m/j0RuegWYUQ39d+h/rvEl69V/70TtuKqcPHfedWCK2J2otOUg7g4di8uesCCC/pq0IE/Q0RERERERETnSV3+p+jRZbJYyqdm4dEXs/D0KzkIFBP5wga89UIO3puYg+8mZGH6+GwsGZeNleMykRKVBa1Y5LPFbIjMwtaobGwba8FeMfvEX+8dm4m94nVHZMPXb1b/PvHPGMTflx6diXXR4t8zIROzJlrw06QN+FjMuy9nY8IruQh/KQsDpmag73vbcMsHW3C9Gk7wZ4qIiIiIiIjoDMTyfYHPZlwYuxmXxe5EJ/HXV6ufvKuf4quf1I83436xlD8ilvxRYsJicvDWpFy8H52Dn8SiPntcLlZH5SAxMhOZYjaIf2avmINiyS8RUxaWiVrx19aITMjhmVDEwDHi6xz/WyaqxJSL//2ImANqYCBmQ1QmUsdlIiE6F/PH5+KXCdn4ZGIO3p2UhXGTshE8ORt9X7DgbxG5uKWxPXBtaBa6iq+/MsaITjE70VF8ny7kzzARERERERF5vFgNOkwVC7SYu1/Ogd+LGzBWLNf/jcnGj2IJTxELvDkiC3vCLDgYZMbRQDPy/I0o9jegZJQR5X5GVPgZUC2mxs8Eq/jrOjG2xpEbRxH/myL+HogvN4zhpFfFMQbYHaP+O9R/lwG1jn+vEZWO/44RpeK/WTLGjHwxeSEWHA7NwAHxbVRbBubxFsydmI1pL+bgxZdyEfFKLh55NQd3hezFRWqTgT/bRERERERE5BHUT8R99LhY/YR8gglXBelxY4QJt0Rn4YnobAycmIlXxAL9flQmFkdlYb1a04+wiEU7A/bgDGCMCQgQS/uoxsXd51RjPOG1mce3MTzwN4tvh5hgCxCSCTnM4mgP5EdmQSe+7fETc/F5TA7eG58Dv+gNGDDWhNvUcwbUdkCQ+H7HHsEl6hkCUqwaCsCLvzKIiIiIiIjIPQBe6vI/dSPufTkX/5ySi5cn5eAjsfgnRGbCGGLG/mAzjojlvsjf6Phkv6rxk3f1U3z7sU/rfRvHp43H94QwwPFtMzlaBnZHY8CIajFlowwoEd+no6Fmx6MIuVFZ0L+QjW/F9/2DF3MxRP1xeHW341DBjvwFQkRERERERC7JB2ivnpCvPs//2gZ0Hm1Et/BM9JqQg0ETczBmQja+Hp+FuWIx3iG+/kiwWJ4Dz/TJfktPMzYHjoUDY8xAkBlyeBZKx2bh8LhsrB6fgzmTchCj/jhEbsA9kRvRU20GhOvRRb1doCEQYCuAiIiIiIiInJx6Iv4bFlz/Sgb6qM/zv5CLN8ZlYb36SX+QCQfFop+vfkLua0ClWPYdn/CLL8P3xCXcSRb5ZmkKHGsIGMT3s6EdUDnGjILADBwJt2CLesZBTBa+mpyN2Jc24tlXNuLBKXpcHBvLMwOIiIiIiIjIyaifWqufXqvP9U/U4oZxOXg4KhvPTsjEB+Mz8UNEJrapn/QHiiV4tKGxxm9wsznL4MH3tzMElLBMVIRnIS86CyvGZ2PGhFxExGzEcPXMgNBU3CR+TLuojwn0nYGLfOJ4mwARERERERG1IfWau5ezcf+LWXh6YjY+FcvsL6EZ2BpsxgH1xHw/I8p9DbCJxdd+bFkeKZbgkYbTj6s/AnC2zQBfk+P2AdnPhCr1loExJuQHmXEowgJLZCaSX8jGB1NyMEVtBby1Bb3V6xL5K46IiIiIiIhaScOBfmIZvSRQh2vCs9B9YhaGTMxBaJQFC8dmICU4A5WBpoZqv4/hz5d9pwkA2jh4UEMB9WaBMWbYwzJREGHBnugczB6Xjc9fyMWISbl4OiQbPUI24zr1FoVXtuHyvhp0UB+54K9JIiIiIiIianbq8q9+Ij15AwZMyMaP47KwTCz7+9RPr/0MqBSLbI1YapWz+aS/pcZVGwQnnBlgV29AEH9dIb5cGmxCnnpTgvixThqfg8UvZuHFl7MQNHUbbnl9J7oyBCAiIiIiIqJm4bMZF4bsxUWhaegaYkCPSRvhPTEH48ZmYX1EJrLGGFEX0Lj8tsXC784NAjUUCDQBwWbUj83ErqhMZI7PxucTcvDWpBw8OWkDHgjS40a1jRG7GZfFWnCJBLRTr17kr1wiIiIiIiI6a+pz5+rz51M34FGx9H81LgsLxUK6N8CEAl8DanxMsJ7ts/3OPs7aHDihGVAvxjrKiDJ/I4pDLNgfZsG28dlYKH5upk3ZgICXctBvymZ0id2Li3idIBEREREREf0p9Qo6MR0m78WVkVtw/eRMPDUhC6OisrAiMhvGAAOs/k70ib+nNQf8xIwSP/ZBZthDMlAdlQ1TdA7WTsjGGxNzEDk2G/eLr+sdmoWu0RvQWb2hQX10g7+yiYiIiIiI6DeAV+xOdHp1M26ekImXx1nweXAGto7JwGFfA6rFAmpt62f8PTo4OKEx4Ncwivh5sfoZUBNgRNFoI/IiLNgamYmMmCx8NTkb77yYgyfVmxocIQAfDSAiIiIiIvJwYjGcosfFMUZ0it6GPuM34u9RGfh6rBlLAs0oH21quMaPC79zNgd8f2sGKOEZqIywID86EysmZOLn8dkIUW9qiNyInmHbcMNr6egcK36eH7DgAvUmAf7iJyIiIiIi8iDq8j81G30nZ8E/wqQkhRqVDf5GpdjPoFT66BVFDEae9eDUw7Cg5YKDxnMCHGOC4meE7GdC1SgTygONyA8y4WBkJvTRWVg7KRevT96EiLdy0Sc2Czf4gLcIEBERERERuTfAS13+wvXoEq5D90k5CByfhddCTcqOYJNSJJZ/+dwWfwYAztYcUA8QHC1eAw2wh2XiUEQmtoif4+8n5OC9mBw890Iu/haRi26BubxFgIiIiIiIyD2JBe8VLS6fIBb/8dlybJRF/inAqOz1NypFvgal3seg2EeIZf5cZuR5D4ODZg8OTmgG+JlgG2VC3SgDyv0NKAnOwMHQDOyMzsTSCVmY/mIugl7egOd5iwAREREREZGb8NmMCwNzcWl4JnqFmm1/j8rEjLEWxI8yyDV+hoZlfEQThgGAazQHHGFAwy0CcogZNREWZEVZkBSzAW9N3Ihx4zLwlyjjb7cIxGpwUaz4NcPfOURERERERC4k0oILXtmIOybl4MnwDGV5qFkxi6W/xMegVI80KIqYJi3/5zMMDtogODA2HBrouEXABKt4PX6LQLgFW8ZaYJqYi8/VUODlbPzj1Rzc5cMQgIiIiIiIyAUAXlNzcelLFlwdvQHPRGYjONysZIeYlcM+esU+Ut/6iz8DAOdpDpx4i0CYGRXhGTgalY2l0dn4UUxAdBYGROTilpDNuG6yBleqj4+o50fEqucFEBERERERkfMIjMelU3IxeGIOxo0xKtmjjcpBX6NSO9Kg2Ea04fLP4MBJxnhCIGCC4muELKbKz4jyYBPyQszYH5WJ5PHZWPJiLia9nAv/8Rtxk+MRgViGAERERERERG1PLGev7sYVL4plLTIDE8ZmyP8JNOFogAnWkXrZJRd/BgCt2BowAmPEBBphG5uJXZGZyJyQhf+bmIXXwix4LCIT90am4fpIDa6OPYJLeHggERERERFRG1Dr2eontBOz8cK4LHwWYFT2jGp43t+uPu/vyss/g4PWbwb4mlDvOC/AgDJ/I4rCMrAn3IKN47MxY4L49TV5CwZO3YpH1baJTxza83cgERERERFRK1CXf/UU9xALbleX/wgLFojlv9LP4JlLPwOA5ptj5wUEZ6AuzIKysRYkR1mwcPwmjB+/BX6RGtwemoqbXtuPzrE70akv0EE9L4C/K4mIiIiIiJqZemXb+M24LjpD/iDSLM8eZVQO+xqUCrG8KiM9fPlncNDMhwqqtwgYUONnQFWAGQVjTDgUkQlzZBYSYrLxxgvZGPtyNnq/sRHXshVARERERETUXACvvhp0mJiFG8Zn4/4IsfyHmhWNn0Gp8eECzwCghc8KGCVeAwywh2biaHgWto+z4IdxGfhgQi6enrgRDwbpcaPaSjl+VgB4VgAREREREVETwEtdqmJy0S3SLH8RYVaW+BqUQrF41gzXKYoYnO1w2Xe24OA0AYKznhVghN3PiHr1BoFRRpSEZGB/mAVbozIwf0Imvp6SA++XsvD41DxcykcDiIiIiIiIzgXg9YAFF8QY0S3KhAfDM5SloWbFPFKnWEecw+LPAIABQHM/IqCeFxBkgj0kA1URZuijLFg5IRuTJ+ZgTKQFtwdpcfOxswLUX8MMBIiIiIiIiE7rt0/+IzLwdVgGlvvolWKx+FvP9ZP/8x0u+wwOTtsMUM8KMKJWTLV6VsBoMw5HZMISlYmkmBy8NSUHkS+acNvLZlzHswKIiIiIiIhOQX3m/9gn/+ryH5IBS+Pyj9YeLu0MAM76rAAj7KEWFIhfs7vHZ+OH6Ex8EJWBZ8WXH3KcFZB2wlkBEs8KICIiIiIiDxezBh3HiWVpbCb+KxapRW31yT+DAx5a2NSzAnwNsB0/K8CMA+LX8dZxWZg7IQtfvrgRg6ZuxaORK3FJbCza8Xc8ERERERF5JLUmPd6M68aacb9YmhaK5cnQVp/8MwBgANBsZwWYUTXWAu24TCyP3oAJ4zfCb4IJt43LwY2Ts3HlK9twuXpOQCwYCBARERERkScAvMSydFWURf53uFme4atTCke64Cf/DA4YHJz2rABDw1kBY0w4FGGBITITaydnY+rLWQiKtODm6A3ozFYAERERERG5N7H0RO7GFSHZ6B1mln8ONSsJYvmvGeFBiz8DAPdvDhw7K8DfAHtYpiME2DIuE1+Nt+DtCBP+GZGJe0M0uC5cjy5TDuLimJ3oyD8ciIiIiIjIrcQY0WmcRY6OMMsf+emVQz56pdrTPvlncOAZwcEJZwXY/Eyo8zOizN+IojALdkdYsGFiNqZNzsX7k7PRd+pG3Bu7GRfyTwgiIiIiInJ9gJd6GFqERr3uT/4g1CzP9tEpFSO50DMA8JDmgHpOgJ+YkAxYwy0oibQgflwm5sTkImhCDgZF5OKWkM24LjIBV4zX4DJJPScAvEGAiIiIiIhczBQ9Lo7ZgGeichDqZ1B2+hqU8uF6RfYWC+2Zhks/gwN3Cg58GkbxMSjV4vdBxRgj8oPM2D/WgqRxmVg0ZQMip2yE9+tZ6BprwSUMAYiIiIiIyGVEWnCB+qxzVBaCwix4Wyw9RWL5Uc5m+WcAwADAnZsD4vcBAgzAGCPqwy3YGZGBjOhsfDAhG5MjjPUPBKVbb4vJquw6Obv0Sp84XBirQQf+iUJERERERE5JXVgmZ6NHmNH22GgDjP4GHPROl+3eWrHcn250zTNc+hkcuEJwoIYA6vgalHoxVj+9UupvUArCLNgy1gLjpBx8/EIOXnojF3e/uRE39WUIQEREREREzgdeIRpcFGnA30L08PE3Krv9DEq1WPIVBgAMABgAnHrE7xGMMipKiBkV4Rk4Ep2F+ROy8GV0NgaO34i/RxjRLTQNXWOP4JLYvbhI/X3GP2uIiIiIiKhNxQAdgzbj5hCzPC/IpOiHa5WaMy7/5zMMDhgcuFVAICs+elkWU+lrkMuCjcqhUJOyIzoT8ydk4uspmzB46lY86qPHxTwngIiIiIiI2oxPHNrHHEXXkM319weZkBJowi5vrWxrseWfAQADADduCqgHBwaaFDnYrFSPNcMQlYFV0ZswYfxG+IUY0XtUFm6YrMGVr2hxOW8PICIiIiKiVhVpwRVhRnlysFH+3witUjBcq9S36PLP4IABgrsHAQYxRkXx0Su1Yqr9TUrBaKN8aGwGdFGZWBWTJU96IQd+b2zB9R9vcwQBDAGIiIiIiKhlxexEx7As3BBikj8JMskLxPJf6bTLPwMABgAu2gpoPCvAFm5WDkZkKJvGZeGz8Zl4JTIXfxOvd4jfh10n78WVMWvQUb2Jg38yERERERFRs/LZjAsnm3F/lBmDffXKNjHlYpmTnToAYHDA4MBVGwEGRxhg8zEodX4GpczfqBSGmJXt4RmKZXw2/jsxC69Nzsb96k0cvEKQiIiIiIiaVaQFl4h5LsSMsWL5z/PRu+nyzwCAAYCTja9BgZ9RUYJNSnWoWSmIzMTiKAu+i8rG0Ohc/PPY7QH/BS7+EujI2wOIiIiIiKjJ1KpxgA7dAw3KojF6JWOYVrGKwZnGbQMCBgcMDtqmGaD4GBRZTKWvUSkLNClHgs3KrqhMeUF0tvz1C5kY9GImHlGv6GQIQERERERE5ywWaOevwdV+6bhvjEFJD9Ar+8Ryb2MAwACAAUDbPiYw2qgogUa5NiIThrGZWBmdKU+YkAnfYAt6jrHg+hgjOk3NxaW8PYCIiIiIiM5KmBaXj82wBwab5bfEMpUnpn7oWSz/5zMeFxwwQGBwcN63B8jVo03IDzThQESGkhqViaVTchD5UjaGxR5EFz4aQEREREREf8onDu39NRVXh5vwarAJ3w7TyuXDWnj5ZwDAAIABQNNuDxhlUOBvUGzhGdgTYUFWdCY+mJCFSeOzcX+kBT2nbEaX2J3o9MA0XKD+3uafcERERERE5KBW/8XScHWAGfeLxcLkq1eODEtX7GLwh9E6xzA4YHDgycHBsdsDfAxKvRirn0Ep8TfI+aEWbAzPgnaixfbupEx5wss70fP1nejKEICIiIiIiBzU+8XDM9Er0ISnxCKxw9egVIllX2EAwACA4xrNAfX2gFFGRQ42K2WhGcrBcRZ55rhM+eOoLDwdnYkHQsy4LlyPLiF7cZF6zSf/1CMiIiIi8lAB6egcYsRrgQZ8552mlJ12+T+fcZLggIcWMjhw5+DAcXOAXrb7GlDuZ0RxsEneH2qSN0/IwbSYHLz3Ymb9I6/n4DY19OOffEREREREHqavBh18zLhOLP9fjNZjmVjWq5p9+WcAwACA06rNAfWcAB8xQWalPiRDKYu0KPFRmfLsCTnwnZSLp4MsuDlQh2tij+CS2L28SpCIiIiIyO35AO3f1OPGaCMe8dEpm8SUiWVRbpEAgMEBgwNOqwcHIxtGGWlQqn0MSkWgSTkabFZ2R2YoS8eZ5R+nbMLgqVvxqI8eF/P6QCIiIiIiN+YThwsnmHFXiBHPj9Qq+0folHp16R56hhl2wisDAAYADABcozmgHho42qgogUalNiJDyRxrVtaP24CJ4zfCTz0DZMwWXB9jRKepubiUYQARERERkZtRn/0PMuO10SZ8J5btcqf65N/NAgQGBwwOnCE4cNweYFSUkXrF6qNXavxNSsFoo3IwwqykRlmUJVOyEP5yDgZFb0DnmJ3oyD8liYiIiIjcgHr1X2Aurgk04n/+BixRn/0fehaf/p/PtGpzgAEAAwDOnzYH1McD/NTbAwyKLdys7BmboWSOs+Dd6ExMmLgB94zbih7qzQFqK0C9RjA2Fu34JycRERERkYtRl/8JibgqQIP7R2qV3BFapUQsy7JTL/IMDhgcMDhouWaAXqlXWwF+BqVklFHJC89QssZmKMkxOXh1cjZCpuTgxtid6CQxBCAiIiIici3qyf/jDOgRmGZ7YrgOu711sA5Lk9HSDQA2BxgAMABw7vFVGwFGRQ42K4VhZmX3uCx8G52Ff4014+/BZtwVk4Wuk7Nx5QMWXKAeIso/TYmIiIiInNxoIzqFGhARaMB73ulKsViulWHuusgzOGBwwODgnGekXrH7GJR6H51S7quTi0NM2BFqVDInZsqfvpCFlyZn1t3xxhZcrz4awD9RiYiIiIicmHr4n1j+3/Q34Af18D9n/eSfzQEGAAwA2jgIEOOjd9wcUBNiUgoiLUrcuAz5q3GZ6DcuBw9HpuF6xzkBO9Ex0oIL+KcrEREREZETUev/Plrc7KdXEsUb+53eaUr90DSxKP9+PH2RZ3DA4IDBwYlnBShi5JE6pVL8uVE6xqTsDzYrm6Iz5WkTLPJ7UzbiwZc3oidDACIiIiIiZwF4+Whw2Qg9bvfRKRnizXz+sDTF7uwBAJsDDAAYADhRGCBmjEmpDzIrZWPNyrooi/xLVBZGjs/BkxG56BZpwdVTDuJiXiNIRERERNSGQjS4aFwG/hFkQoB3mnL4tMv/+QybAwwOGCC4fYAwomHUVkD1SL1SMcaoHAkyKjsjM+V547PkL17MwtMvZ+P+2M24kH/yEhERERG1gUgLLgk3Y/AYEyZ6pykFzb78e3hzoE2CBwYADACcIAwIMCrKGKNSE5Gh6MZalGUTMhA2MQNDwrPQPTAX10zNxaWxe3GR2kLin8RERERERK3A24Sr/NLxsY8W88WyXjlELOznOkNbatgcYHOAwYHLBgcj9A3nBIzUK7U+BqUqwKDkjzYq+yItWDUuCzMnZ2L4y5n4p89BXMwQgIiIiIiopYk33UOMuNZXix9HarFeLN01DADYHGAAwACgJRoBowyOVkBdWAY2RFigGZ+BKePNGB2+Gb3GbMH1r2hxeawFlzAMICIiIiJqbuJN9n/1uDgoHbeN1CnZ4g16sVi65aYEAE0dTwoO3LpB4CTBAQ8tdO7goOGMAFkMrCN1qBllkgsDTMrBcLOSOtaiLJmUjeApuegfY0SnWA068A9pIiIiIqJmEgu0m6JHlwAd7hdvzHcM1yq1YilXGACwOcAAgAFAa4yfwdEKsIWYlT1hGUpmlAX/is5BZKgRd4aacVPMTnRSzwlgI4CIiIiI6Dz56HFxmNH2ZIDBHjI0Vclr7eWfwQGbAwwOPDs4aLw1ACP1Sv1InWL1MyjF/kblSLhRMUaalTWTsjDupWwMm7IZXXh9IBERERHReQjMxaVBeru3v16eLJbfQldZ/tkcYHOAAYB7Ngd89Qr89Io91KgcDjcpm8dZ8NF4C16IzsS947LRIzodndVzAiSgHVsBRERERETnwEePLqN08ns+OnmWWH4rXCkAYHDAWwt4aKH7Bgcj9IptpEGp89UrJX4GJS80Q8kMz1ASY7IxeUouRr2eha7q+SUMAYiIiIiIzpK/BVf7pMlfjUhXVogltooBAJsDLhc4MABw6+aAj16Br0GWg80oCM3AzqhM+X8TM/FKRCYeCM9EL/UME/XAQCkO7aVYtOOf6kREREREp+GThBt9dEryCJ2ye0iKYhucKpbk348HhAJtGhw4YYDA5gCDA2cLDsSfUXb1nAAfvVLmq1cKQs3KxvAMJX2CRX59UqY9NHYbbvh4m+PRADYCiIiIiIh+r68GHYYZ0GNkumIarlXyxLJvZwDAAIDNAQYAztwcGOloBChykEkpDTEr+8dlyN+Pz5BjozPrH4kw1N3x+lZcFbsTndQ/39RbTvgnPRERERF5PPXN8Ytm3BSkxWNiyd/vWP5TFKgBQFNnyOmG4YHHPHrA5gCDg9YKDkboFXm4XrH56JRyX71SFGTG1lATjBNy8O8JWYh+cSNuenU3ruBjAURERETk8SItuCBSj9sD9OgnlvTD57P4MwBgAMDmAAOAtmoOOK4Q1ClKkBkVIRk4LP5smzkuCx+FWfBYYAbufsmCq1+14Ao2AoiIiIjIYwXG49JAAwb76TFxSIpS2BwBQLMHCAwN2Bxgc4DBwVnOcK2sDNfaZR89yn0NKAo0yjtDzUrGhCy8NykTEyZsQffoDegcy0YAEREREZ0NxErtHKOROjhmmnSBY+KkC0+aY19/7O9r/Oec6fvio8FlQXoE+Ovx+pAUpYgBAAMANgcYALhFENDweIASaFSqg01KXmQmZkVl4JOIXPwzxIJ7YrLQVX00gI0AIiIiIjolQPISi317JEhXYJ3UBUnSjUiVbhLLfS+kS7chUbpTfP1dSBOvqdId4q9vc/xvSVJ3xIu/L13qDKPUqTEsaO8M36d+68q7+GjxrxE6TB+cIlc4QwDA4IDBAZsDDA6aMQhQxMgjtUqFr1YuGWPEzmATLBMs8oeTshATnY5bJyTiKoYARERERG7O8Ym8j1jod0odsVe6SCzlV2CpdKVY3K/CGqmreL1WLPDXiS93cyzw6iKfKN0q5l4kSH8Rf/138b8/hmTpafF1zyJFGiC+/Lz4+gHi6/s7vk7935Kkx8XrPxz/jPrPJkk9xb/vFvHXNzv+veuk67Fa/HfipWsc/91VUmfxz1+J6dLlmCVdKr6uo6NRIEle6jTnj4G3CVeNSJM/8U6XF4iluZIBAAMANgecNHhgAHCejwY4zglQRhuUmkCDUhBlwZxxFnwWYUDfsHTcF7OzoRHwwDRc4BMHpwhoiYiIiKiZOJZ/9dP4NLFwr5UeFUv4M2I5DxfLeYxYxD8R86VY0BdgvbRcvGrF/2YWX94hZrf46/3i9YB4PeSY9dJh8XpY/DNHxJcbRv2y+nUN/9uxv++A45+Nl/aK2SX+nZnir41i1okvrxDzo5ivxbfhLfH6EpKlAGikYeKfe9DRLCiQLgOkjs0ZAvhocN1InRI3XKeYhqQoVlcOABgcMDhgc4DBwVk3AnRKha9OKQk0KbtCzErm+Ax8HJOJyTEW9FQPDGQjgIiIiMgFOT41Vz/h10sXOz7dV6v76qftan0/QbpHLNoPifETC3m4eH1XzGeOxT9BLP7rHct5duMCXyDGKsYmBuc16yVZjE38t4rEHBVft1W85ohJEN+ulY4gIEH6Siz/r4l5QXx5hKNVoJPudjxqsF66wfF9UJsK6mMFcdJlWCld4jhn4BwfLRiehutHaJXVw7XKJrH81jEA4OLP5gCbA57QHDjWCBhjUGoDjUphZAbmRWXgf5EWPDnWjPvH5eKaydm4ko0AIiIiIhfhqM6vkTqJ5flhRx0/XpoiJlZ8eYlYqhMaP9FXP5E/Kl7zxNeViikTX64UX1ct/r5aMVbxZbv4Ovt5L/6nCgLixSRIdY5wYb1UI6ZaTLkY9dtRLL6+sPHbp7YJ9ogvbxPfpvViloovfyq+7l/i7/EVXx7geKRAfYTgLEMA9ROuYZraHt5abBimRfmgFFkZJBbg348nhgIMDhgceHyDwEmCg5YOEH7fCBhjUPYEG5Xs8Zn4dFIOXhSvvdQDA9kIICIiInIiJ33Sv0S6yvE8/VKpJ1ZJdyNJ8hGLcoRYmj8XM0Msypnidbv4Omvjp/FwTILTj9o+qHF82xOlLPFtjhN/PV3My+Kvo8T3+XGslh50HEyoniugl7o4zhJQf0x2/vHRAZ/NuHCIHr3Em/1tYompFcs+AwAGAAwA2BzwqADgD40AvWINMihFYzOxIDILX4zLxFPhGfjLsTMCeGsAERERURtznM6vkS4SC/ADjmf5E6T3xHwrFmSTeN3s+PQ8Xsp3fKoeL1WIURf/OvGK48v/+UxrhgAN/71jjYFKR1sgQSoSrwWNjyrsEV9OFa+rxOsH4vv4snh92nGOQLx0qfqYgPpjpr6JnZCF7gE6PD4oRTnoWP41YuFPOYtJPbthSMDggMEBmwOuFhyccGtApY9WKT3eCGg8IyA6A7dOMPHWACIiIqJW41j4IbXDculyx3P9WukGx3V76yVvx7P8CdIsMavF5CFRLPzrJaVZFn1nCADOpiWQKO0VrxvFzBHfvq/Fa5jjHIF46XasdlxJeM1ezUPXfWJZ+dcpGRuGjkgvP+KdXomhqfViIbUxAGAAwACAzQGPbw6c2AgINChFx84IiMhA3zAT7lMfC3jVwkYAERERUYtyLP/qgXdLpGsaD++bJJZc9dNunfjyQfGaL14bnuFf53jGvmWXf2cLDtR/b6JU39gSqHCcaZAgfkwabiTY5Lh1YL30fU3Sxf9L2/zk/y3cFvTjq1tnlU/avAyjTbvhaziKwSm2s2sCnOswOGBwwOCAzQEXO7Tw5DMC5JJAI3aGmGCZkGn74IVMeeK4bPSI3oDOsbEMAYiIiIiaxfFP/NUD/dTn+9VP+9W6/3rpFcep/fFisV3vWP5tTrvst31zQBFT3njrwNqapAuXmLc9NH/NzudXvL/7w+q3dn2LqJxUhGVmYpThEHz1+RieXgrv9HIMS7ViaGodAwAGAAwA2Bzw2FsLTrg1oCbIIBdEZWJ2tAWfhpttj4focY/j6sCd6NQ3Fh0YBhARERE1keNwP/UT/+XStWJpDhEL7OviNV3MRjHqCflljuf51ep7vAst/20RIDQceKjeaFBdn9yuauv2rpWZB26sWlp1n7Kg9kHMq/0H5lQ/ie+KRuPL/Ci8tfsbvLx9NkIzczDavEssnVaxyMst0w5gcMDggAECmwMuEBx46xRFjDxCq1T46JTiMUZlZ7BJyRifJb873iKPf2UnusUWo5PEEICIiIjo7Dk+9VcPrVOf8V8n9XKcbp8gvSPmO7HAHnBU2+NPOMHfE+c8GgH1Ke2wdWcXZB28BqvrbsVyey/HLLXdjjmVT+LnssH45NDreG/ffxCzabWjHRBg3Ac//RGM0BZjuLYUw9JqxKLTCqEAAwAGAAwA2BxwsubAsccDxhiV6kCjkjfWIv8SZZH/E56BfwSbcdeErbgqZqcjCOjAMICIiIjoTyC28YC/eGmwmEixsCaLhTfH8Ym/eup9vOPTfs9e/s8zOKhLaY/sA12hL7geq+p6Hg8Altl7O0KAJbY7EWe9Hwtq/4r5tY9ibvU/8WOZN74tHo339n+Et3Y3PDIQmpkN77RKsVjWtX4zgMFB6wYHDBDYHGBz4FRBgOKtleWROpSP1KMo0ChvDzEqpmiL/K+YTPvYN3Nw48fbcLn4k9eL/+9OREREdAJYpAsc1/mtlq4Tc5tYVCeKhfVDMTsdV91x6W+2AMCa2h6Zh66BtugGrKz/LQA43Sy19cGC2ocxp6ov/pc3ER8fegNTt87DpE2rEWjaDn/DfvjoijBSW4JhadVikanF4BR72zwywACAAQADADYHWrk50HhOgDLapFQGmpUjkSZ5+rgM+f3oTDwSnYs+6tWBMUZ0ktQbAxgGEBERkafDNLH8J0k9kSg9KpbUGepBdeJVPbm+hJ/4N//UprZHWlE3xFf1wArbmQOAZerY+jjaAQvr7kWc9S+Yb30Yc2v/jhnlA/Bj6XB8dOhtxO77DBM2xCMiyyDeDJe3ziMCbRQgMCTgowcMDtgc+NNGgA5FgQZ5a7BR0U/Iwqsv5CJoqg7X/FePixkCEBERkUdyPOs/x3G6/zVYK/UVi/4oR+U/QdrsONyPy3oLBQAdkFLSDWtr1ACg1xkDgNMHA7dhkfVezK/5G74uDMP/HZmM13bMwJQtixFk3oIA41746gvgoyvGsLQqsajUYEiKHYNdIRRgAMAAgAEAmwNNbA44bg3QysoYI8qDjDgYaZG/jcrCW9FGPBBpQc+QbFw5fjMuYxBAREREHsPxrH+cdAUSpTFIkl4Vy3+umINiqsXUYZ14axT/J8NFvklTl9wOZfoLsb6yO5bbejZ8un/CNCUEWGrvg8V192CR9T5HM2Be7aP4peIZ/FQ2GJ8efgXv7/8AkzavwLjcVIzUFYo30JWuEQLw0QMGBwwO2Bw4jxmuVWRvrWIbqVXKfbRKYZBZyQk1K5oJFnnSCxa7z4REXBWzBh35joCIiIjcFiAWf/V5/3jHp/59kCi9gQTpWzGFYs68+DMAaPIo6vP/mvYoNXTEuuoef1j+l9mb3gY4ORTojSV1dyGu9gHHtYJf5EXjzV3fY+q2eQi15GCMaQd89fmOcwPUQwTVcwOGpNgazw1gAMAAgAEAmwPuFTw4GgE6RQ4yKUUhJnn32Az8X5QZU8PSq+4LMdT2iEzAFVPjcSkbAURERORWHJ/6r5O6iKX/NrH8fy2+vFTMETHl4q/ls17+z2c8OACQEySU6jviSNalWFvVA8tsvc489rObU4UAS+23YUn93Vhcdy/mWx/CvNpHMKeyL2aW98f/HZ2MDw/+C1O2LML4DYkYqc/DMG2548yAgWKRPjZu2RJgcMDggMGBRzYHvNMVu5j6kTql1Fev5AUbYAozYs0Eiz3ihUz7oLBtuNwHaM93C0REROTyECddKOYyrJHuFPOUWMZXiqXUIpZ+a4sv/QwAGgKARC8UGjviQM6lWFt9S4sGAKdrBiyr7+M4N+CHEh98XRCOt3d/gVe2z3RcKTjGvB0++jyM1BVhWFqlWDTcqBnAAIABAAMANgcaZ4RWwUitYg8y4kiIEZvHmuX3oizy+EBD3R2jjTXd1PMBpvCwQCIiInJVjsr/Sul2rJKeRIK0WkyWWPwrxEKuLv9KqwYAHhwg2JK8cDD3cuzY3hmra9QGQM+zCwGaMqcICZae0AxYVH8XFtXdgwXWBzG/9m/4tfJx/FL+HP6bNwkfHXoLU7YuxPiN609oBthPagacadgcYHDA4IDBgbM3CLzTZbuYel+tUjJKqxwJNiI93ISlL1jsAS9m2Z6OtOAShgBERETkMiBJXtgrXYR0qTPWSk+LxT9ILNEbxTKaL17tLrX4u0kAsG9TJ2zd1aVNAoA/aw6ozYDF1nsdVwp+XRiKf+35HK/smIHQzEyMMW+Fj/5owwGCaRVikajC4BTbn4YCDAAYADAAYADgKoHDSK0CH61iCzJiX6gJWVFm+fVosz00PBO9Qsy4bmouLo3di4vE/6syDCAiIiLnBY1Y/ldLj4vxF8uzCeukfY2Vf3urPO/P4OCkqU9uhy07OiPzQFesqr2lMQBo6jRfWLDU8dpbvN6GRXV3YZH1Hsy3Poh5tX/DnKrHMbNCbQbE4KNDb2LK1jiM3xjvCAS8tWXn3Axgc4DBAYMDBgfO2hzwTpdtYup89UrRKL1yMMykJI7NkOdOzMCQFzPxSMxO3hhARERETgiQvLBSusRx0v9qKQBrHNf8HRRLaI3LVf7dKACo07TDpl1XIePQtVhpdZ4A4HQNAscjA7Y+jkMEfyj1xteFwcebAWGZGQg0b/nDmQGOZoCmMRTQNE7KCa8MABgAMABgAODkDYEROgW+OqU+yKRsDzEruigTYqIt8AkxoEdoGrqqbYDYzbiQ7zaIiIjIKTiW//XS82LxjRSvG5Eg5WGdZPPY5d9JggNrSntkHL4GacU3YEXdrecZALR8cLD0+GtvLKq7E4usd2N+7QOYV/Mw5lQ+jpnqmQFHY/DRwTcxZctCjN+QgJG6PPEG+o+3CbT0MDhgcMDggMFBszYHxLd/uE6pG6FVav20SqG/XtkXblKWRZjlaS9k4fGXsnCnTxxDACIiImpDjk/+Z0mXYrF0vWP5Xye9LxbPAiSI5d/TKv9OGgAYjl6HpNJujgBgqVjITzXLTnhtywDgT4OBxjMDfijxxtcFIfjX7s/xyvYZCLVkY4yp4TaBESc0A9RHBQZp5JObAWcaNgcYADAAYADgBIHByIZGgDXYrGSGmZW1ESYERZnRP8KIbkEmXKW2AWI16MB3IURERNSqHJ/8J0qDxMIfLZbXLWLpLMRaSeby3/bBgSKmOrU9kku6NRwAWN9WDYDzDw5ObgY0nhlQ+yDm1fwNsyuewIyyfvjs8GR8sP8dvLBxKaKyNRihLRQLQaVY1tXHA+Q/GYXNAQYHDA4YIDhNgDDsty8rw9MV6witUu2nV44G6JWdkWZ5ZlSG/J/x2bj/hc24uS9DACIiImoNx5/5Xy1dJ5bNcWI+FEtokRiZy7hzBABygoSqtA5IKOuG5VY1AOh52gZAU6etmwNqILC0rg8W1t6LacU++Co/HG/u/AZTt/6K4IwcBBh3YKQuH8O1vzUDBqbYMFDTGAqoDQGNcv7D5gADAAYADABaMBDw0SuKn16pDjUpyeFmeV5oBoYGZ+AfkZbq66M3lHV+YBou8IlDe747ISIiohYBvXSxWP6fxRopDOukzVh7wif/a8WsO4fh8t7so4ixatqj1NAR6yq6Y2n9b8t66y/yLTdLG4OCY2cGLHScGdDQDPil4ilMLxuITw69gvf2foAJG9YiIkuP4allGKKxNjQDNPLJk3LC6xlHaZNhgMDggAGCZwUHJ5wToAzXKjUj0uVKfwMOBBqxaZxR/mKCBa9OyUSvlyy4OhZox3coRERE1GwgSV7YKXWERroaq6VQsey/IxbOAqyX7Oe8+DMAaLkAYL2EmpQOKDJehHVV3Zv9k39nbw6ogcCSujsQV/sXfFs0Gv87Oh6v7/gJL25eiEDTVvgb9mGktgDDtcUYmlqNISm1pw4E/nRatznAAIABAAMANgeOBQJ+esUWYFDKwkxYGmHGt+NMeGqsDvdHbsfVMTvRSVLbAIAX37UQERHRecEasfyvlB7GKmm4WDRzxOSJxd/epE/+z3e46J925AQvFBk64kD2pVhb1cPRADjnafNFvnmaAQutdyGutuHMgLk1j2BG+bP4sWQo3j/wDt7e/T9EZacgJCMbQ1OrMEhTf44hAJsDDA4YHDA4aN3g4KRGQLpcNVwrl40xKLuCjYol0iy/G22Rx03R48ZXtLicIQARERE1GaZJF2CpdCVWSsPEvID10mExda2++DMAOOPYE7xQYLoI+3Ivw5oWDABcrTmgHiaoHiA4r/phfFkQjk8Pv4SXts7FxI2rMdq4A376A45WgLe2FENTazAkxdqEZgCbAwwAGAAwAGi95sAwraL4G5SaMQYlP9wsz4w0yx+FGPHImAz0id6AzuM34zIGAURERHROoJE6iEW/B9ZI/xBLf7pYMveIv7a1ySf/DBDOOLZELxzI7YRt27tgdXUTA4CmjhM3Bxz/zfre4tt5m+O8gLjaezGv5mH8WvUP/FQ6CN8VjULs7v/gte3fIzTDgtGG7WIpqm04NLBZQwA2B3hoIYMDBgfNExwcawN4p8vyCC3KR2pRGGiQN4YYldQJFkx6wQKf6HR0jrTgAr6bISIiojNynPivkS4Sy/8jWC35Yr20AwlShVj8FZdc/D0iAGiHPZs6YdMuNQC4xekCAGdrDiyt740FtQ9gTtU/8X+HY/DB/n9h0sZliMpOhr9xH3z1R+CdXiLeZJc7zgsYrKk74RaB1hql+Ya3FjAAYADgds2BY9cHemsVeYxBKQkyKHvHZuD/osyYGq7D3aFm3BSmxeVT9LiYjQAiIiI6Jcfyv1y6HCul3mJpXiyW/gwxteLList+8u8BwUF9Ujts3tEZGQe6YlVNKwcALtgcWNoYAiypvw1x1nuxoPYvjmbAnKrH8H3RSHyZH4I3d3yDlzbPRYBpO3x0h8VyXI/nxWL++2mVMIDNAQYHDA4YHPxuhp3w6p2uyOLVNkKrlPpo5bwgE3RhZiyfkGEfNTkbfR0hABEREdHvOar/q6XuYqn8uxiDmANiCbZ55OLvQgFAXXI7bNx1FUyHrsXKWvcJAFp71EBgTtXfMaP8OfznwOuI3f0JInM1CMm0wFd/ECN0+eLNdrl4013pCAQGamxt0Axgc4ABAAMABgCnDgTUVsDwdMU2xqgcDDIquZEZeCUqA0FhGbg1NAtdI1fikpg16Mh3O0REROSAJdJVYqH8SCy+c7FGKnUs/576yb8LBQdWTXsYD16D5MIbsNx6q1hke57zuERo0MLNgYZmQB/HlYILrPdifu1fMLfqUcyq6Isv88Pw6eHJeGnLXEzcsAYjtEcwNLVMLL+2UzYDzjStGgo4cYOAwQGDAwYHzRMcHG8EpDoaATYxdb5apWiUTjkQalBWRxjlnyfl4MmpubjbZzMu5DseIiIiD+ao/sdJl2Gp1FMsr7PE0p/iqP6vbTz0b+0Jh/8xEHC6AKBW0x76w9chsbgbljEAaPZZXHc7ppf3x3fFvnhnzyd4dcePCLFYMNq0FSP0R+GtK3S0AoakVeN5RyBgF69OFAA48a0FDAAYADAAaJnmgBoIjNAq8NEpdcEGZUOoUUkKy0TI2CwMCE3FTUGJuEoNAvpq0IHvgoiIiDyMWCIvFUvrCPE6RSz4B8TUOJ775yLvEsFBTUp7JIvlf5V6A0Bd0wKApo47NweWnnCdoBoCLLbeifm1f8W8mocwu+Jx/FzWD58eegnv7X0XEzasRUSmwdEKGKSxNqkVwOYAmwMMDhgcNHtAkCpjWDqsw7Wo9k2X8/21yq4oizxjnMX20QuZuPeVXHTrq9EwBCAiIvIUjuf+Ex3V/xixgH4mpvQPn/yf77A50GIBgCKmOqUDEkq7YXmtGgD0ZADQCs2BxXV9HNcKfls0Cv87Os7RCpi8eSFGG7fBT78fw7WFGKYtEUtHDQanWPF8it31AgA2BxgAMABwqzDAR6cofjqlOtSsJEVY5F/DDPYhoXrb31/YiGsnZ+NKKRYdxLTjOyMiIiI35Vj+V0o3Y5X0d7GgW7BGOipe7VzkXWesye1Rou+I+LLuWGoVS3ndaabeucb1g4NeYnpjYd2diLPejfm1D2JuzSOYXt4P35cMx7t7P8AbO75FqMXsCAUGpdY2PBrQQs0ANgcYHDA4YHBwlo8MKMPSlBrvNKVilE7ZP1qvbIjMwCfjMjDlxY24KXYnOjEEICIiclNi4e8olv8HxFLvLb68V8xvV/45wzBw+NNRHM//d0Cx4SKsreh++uWfAUArNQd6Y771XsypfgT/PToeHx54EzGbliIyJwl+xn0YqT+KYemlGJpeIZa0OrEk15/xrACXDADYHGAAwADAJcIAP71S569XikPNWBCRgf8FZ+AfgZm4I3oDOo/fjMvE/9N48Z0SERGRm0Cs1A5x0nVikfxRzHqxaFe32PLPRb5FRo6XUKTriAOZl2LNmQKApg6Dg3Obut5ibkOc9R4sqL0f82oexpyqx/BtoT8+PxqJV7b/iEmbFsNPtw/D0wqbfIsAmwNsDjA4YHDQTAcIKsPTlMoRaUrJGJ2yJViraKPMeGGiBT7R6egcacEFfMdERETk4hyn/s+ROmG51Ecs5quwRtogXuuc5pN/Bg5nNfb1XigwdMS+7EuxurIHAwAnbQ4sqe+DXyofx4+lA/He/li8sesLhGfqEWTegJH6Ixh+7BaB1BNuEfDEAIDNAQYADADaLAzwTlfkAJ1SHqhVDoRn4P/GmuWp4Trcrd4YMH5zwWWxe3GRePfARgAREZErcpz631D7nyxeD4mxcpF3vbEleOFA9uXYtrUzVlb1wOK6nmecJa01DA5OGvXQwMXWOxytgPk1D2B2xWOYUfYMPjs8ER/sewsTN6xARGYavFPLMFi9RSDZLkY+87A54NTNAQYIDA5cKUAYlq7Iw9IUm7dWKR2pVY4GGZAeasCSmEwMn5yNf4Ro1BCAiIiIXIqj+v+r1Bnx0nixRH6MNS1w6j+bA60WAOzJ7YRN27swAHCx5sDiut6Iq70b3xd744u8ULy24ztM2TwPY4xbMUq/D8PTCx3nBQxOqfntWkEGAC7XHGAAwADA1RoEjscC0h2NANsYA/YFGpAZmYEp47IwKjAVt4SmoWvMTnTkowFEREQuwLH8pzuW/7vFoqsTc0CMjYu8a059Yjts2dYZln1dsaL6lrMKAJo6S1p7PCI46IVF1juxsPZuzK95EHOrHsH0sn74vng43t39Id7Y9h2CzVnw1+9qCAHOphFwtuPE5w48z+YAgwMGB20aHDhCgFS1ESDbvNPlOt90pdBfp+wLMSiLw43yNxMs+FuMBT0ZAhARETk5x7V/q6RbsVLqKxbILWJJLhfjPKf+M3g4p6lLbIdNO66C+cC1WM4AwPWbA3Un3CJweELjowErMTYrFb66Axihzcew1DIMTakUy2G9WF5tDADYHGAAwGnR5oAaBozQKvDRKtZAg2IONikrQw3wC9LiycgtuF69MaCvBh1iwasDiYiInA400pVYI70q5luxqJaIV1kMHMMF3uWaA9ak9jDv74qU/OuxrEYNAG49xfRs0/HU4KDJAYJ6i4D1t1sE5lb9DbMrH8dX+YH47PAETN06CxM2rMKI9KMYmlKOARo7BoiF/tg839LD4IDNAR5a6HHBwbHbAoalKVbvNKV6lF45NNqgbBlrkL8cb5ZfC8vAreF6dGEIQERE5EQwTboAi6XrxeL4uZilYumvOr78MwBwyeDBmtwehoPXIKnwBiyrZQDgrmcPqAcIzih/GtOKvfHO3g/x6o7vEZyRhQDjdgzX5mFYehEGp1RjkKa24QYBBgDu1RzgrQUMAJyoOaCGAb46xe6vV8pDjMqyMIP8XUgG+o624J4JibjqFS0uF/8PxdsCiIiI2pKj+r9W6iGWxn9itbRFTPlJn/6fz3CBb7MGQU1ye6Tk34g15d2xRG0AWG/9berOdxgcOE9w0Ev8nPbB4to7ML/mr5hX/RBmlT+B6aUD8NGB1/HO7k8wNjsFQeZssRRVY0Cy7aRWwNkMmwNsDjA4YHBwtjO0YZRhqUrV8FSldIxB2R5kUIyRGXh5fCZGB5lwlc9mXMh3X0RERG1ELOodxcL418ar/w6KsTXL8s8AoE2DhhpNeyQVdMPKih5YUssAwHOaA+rhgX0wv+Y+fFUQjE8Pv4ApW3/F+A2r4WfYhRG6wxiWViLeoJfj+ZQ6seDWMwBgc4ABAAOAZm8OOA4KTFUUf71SOcagHAoz4psIE94MseCeIC1uHr8Zl8XuVa8OZCOAiIioVWGJdBVWS5+IWSCW9spmW/4ZHLRZc6A+wQtlaRdgbdlNYuG/BYtqbxVL4W+zuKnD4MBFgoNe4r/fG3HWu7Cg9h7MrXoYsyv/gWlFw/FVXghe2/EtJm9eAF/dfninFYkl99xbAWwOOFlw4MQNAgYHnh0cDElVlKEpit07TSkbkSbnBxqgCzFi2fgM+8gXcvBYiEYNAYiIiKhVwCJdgCTpRrH8/yImRSzfNQwAXD8wsCZ4oUR7AdaU3XzS4s8AwHObA4vrbsOcqkcwo+wZvH/gLby5+78Iz9Qj0LwRw7VHMCy9EINTqjBIU/OHwwMZALhLc6Btbi1gAMDmgOPRgDQF3mmKLcCgHBxjUHLGWvBiVBb8A1NxS2gausbsREdeHUhERNSCHAf/rZN6iYX7KTE7xVSLUZwiAGBw0ORR4iWUp1yIo8ZLsLq8MQCovfWUQUBTh8GBawYHagiw2Ho75tfeh3k1f8Wsin9ietlz+OTQi3h373uIyklCSEYmBqdUigW7vkVaAQwO2Bxgc8AzgwPHowEpjiDANixNqRuZphT6aJV9oUZl4ViT/OXYbDw0MRe3xGrQge/QiIiIWoDj2f/V0t/E+IovH3H55Z8BgGPkeAmlaR1xOONSrCq/uVkXfwYA7tUcWFR3m+MRgW+KRuH/jkZj6rZfMHHjCowy7MRI3aFzPiuAAQCbA2wOMAA42zDAO13BiHTFGmhUjMFGZXloBkYGm/H4eDOum5yNK6VYdBDDqwOJiIiai+PZ/7XSR2LmOs2z/wwOznvs671w2HQJdm7ohJUV3VskAGi14OC8AwQGB2ecul6Is96JBbV3Y27VQ5hd+XdMKxqGr/ID8dqOrzF58zz46fdgeFpBi50V4DIBAoMDNgcYHDT3YYHK0FTFOixVrvbX4cAYPTaONcqfRmdg8otm3BRrRCdeG0hERNQMHFf/rZduwGrpZzFJTvPsPwOA8x7bei8czLgM2zddiRUMABgANOmsgIcxo/wpvH/gdby5+1NEZGkRZM5tsbMCGACwOcDmgGc3B9QwwE+n1PvrlJJQExZEmPG/UD3+HqLH7dHp6Dxeg8sYBBARETUR4qT2YunthlXS38Xyv9Xx6f9qSRHjuQGAGwUI9QntsGtDJ2zY2QXLK3s4VQDgOsFB2wYIbR0c/PGsgMcwvexZfHpoMt7b++8TzgqoEouxa7QCGBywOcDgwLmDg8YzApRhaUrl8HSlOECnbBpjVFInWBA92YJho43o5BOH9nwXR0REdI4QJ12IFdJdWCk9L5b+g2LsjuWfAYB7BACJ7bB90xXI3nUVllf1aDgA8MRpgUMBGQC4d3NgUV1vxyMC3xb54r9Ho044K2AXRuoOn3BWQL3LPCbAAIDNAQYAztkcUIOAYWmK7G9QSsYYlT3hGfhPpBmTAg24Y5QWN0RacIl6YwDfzREREZ0lLJWuFEvrVDFfiaW/7Pjyfz7DEMBpgoO6xHbI3nE1dAevw9KqHlgoFuFj4w5tAAYHbRQgWHshrvZOLKi5G3MrH8Lsir/j+6IR+DIvFK9sn4ZJmxZhZPpBDE0paWgFJMm/jZs0BHhoYRsGCE7cHGCA0ALBQcNtAfLQVMXmnaqUjkhTjoQYkRRhwtxxJvSLycBfYjfjQr6jIyIiOgNA8oJGuhqrpE/FxDXW/xkAuFEAYE1qh8xdXZF+6Hosqe6BhbW3Hp9F5zNsDvDsgRNmsfU2zK561HGN4Hv7/4U3dn2BELMJow2bMTw9D8NSi8Sb+BoM0ljFkuycZwUwAHDXBkHrNgcYALRcc0BtAwxNU+CdptQHGbEjxARdmBGRYzMwJMKIbuF6dIm04AI+GkBERHQKjuV/pXSJWNhvE2PGKinvpPp/WwxDgGYPDmqT20N34FokFNyIxTW3nBQAOMZ6wutZDpsDDA5OFwIsrr0d82vuw7zqB/BL+eP4qaQ/PjzwGt7e/THCMnQYbdgklsQa9E+yi5FPmgFnGjYHGBywOeDxjx40ng2gBgH1Ymp90pX8UVplV6hJnh5hkt+faMHtU3NxDUMAIiKi32k8/K+rWPwf+MPhfwwA3CoASD10PdYW3XTqAKAJw+YAA4CzmYXWPphXfR++LAjEJ4dfQMzGBYjMjoePbi+804+KN/FlGKypRH+NDf3VVgADAAYAbA4wADiHBoEaBozQKoqPVqkOMioJISZ5Vqge/UIN+GukBVfH8NpAIiKi3yBeuhQrJW+skiaL5bugzZd/BgctMjXJ7bG+oBuWVagHADZPANDU5oCnNQg8Pjiw9sKS2t6Iq70LC2ruxdzKhzG74jF8UxCA/x4Zhxe3zEJ0zmp4p+U3BAGnaAWczTA4YHDA5oDnBgeNYYAyNE2pHpamlPvrlF1jdEpGlFl+PSbDHuQIAnhIIBERkSSJ5bATVkiRYj4QS3SJyy7/DABOO8paCVWaDogv7IallT2ab/lviwYBmwNu0RxYZO2DXyqewI8lg/H2no/w8rYfEGjKhp9+B7xTCzE0pVQsdbVi8axjAMAAwHObA7y14JybA42NAMVPr9T465W8MJP8XYRZfjvMhPvCdeg+fjMui92Li8S7HzYCiIjIM2G5dK1YEueJ0YslutalAwAGB6d8LMAa3x4lqR2xuuxmp1n+2Rzw8ODA2vBoQFztHZhX9Rf8WvkQppc9i++LhyF294d4dds0jDZuhI92v1hu65rUCGi24MDNAwQGB87WHGibBoFbhQOahjbAkBTFPjRVKfdOVQoCDdCFGLEsKgMjX8jBYyEaNQQgIiLyMJgmXYDFUnexKK4Rs1ksw/UMANzv0//ahPYoTu+IVc4UALA5wObASYFAL8yvvRtzqh7GZ4cn4L19/0JUzjqEWAwYoT2EYekFGJxSKd7YVzvOCWAAwADAfZsDbXP2gLs2BdTzAYalKjZ/Aw6ONiBnrAUvRmXBf5QGPfw1uFq9NjBWgw58R0hERG4PGqmDWBB7YoX0FFZJe8TUYaVYGledMJ4YBrhZgCCvk1CS1hGHzJdiRfnNiBNL8O/HpQIANgfcNziw9sLi2t6YX3MP5lXfj9nlj2BG6ZP47HA03t/3BqJz1iA0w4BBmkqxkNe3aCuAZw8wOHCq4MCJzx5wlUbAkFTFNjRVqRueqhSOTJP3hRmwYKwRn0ca6v/6ggU392UIQERE7g5x0oViQfyLmGFi2T9y0uLPAMCNAgAvFGo7Yr9FDQC6u34AwOaAxzQHFll7YkHNHfi+eCi+yAvG1G0/YuLGxRil3+FoBQxJLcHglHIM0NSLhdTGAIABAJsDbA786QwWMyxNwYg0pTbIoBhC9MqyEL192Og02z8ijFXXRlpKrpDUawN5YwAREbkjxElXiAVxophPsVIqPWUA0NRhKOA0wYE93guHTJdgR24nLFcDgJpbzzy1ZzdsDrA50OLBgbUX4qx3YEHtXZhb9SBmVz6K74uG4cu8ILyy7XvEbFyIkWmHMFRTiv5tGAIwOGBwwOaAazQHBjeMIqZ2aIpS6a/DvjE65ESY8H6UGePfMOLa/+pxMUMAIiJyO4iTuoglNFbMDKyUKhgAuGcAYIv3woGMy7Bt45VY5skBAJsDbtEcWGS9DbOrHsb0sqcc5wS8seMLBJtN8DdscVwjODS1BM+n1IhFy8oAgAEAAwA2B84YBvjqYPXXoTDYiNlhJvwnSosHI3XoGabF5VMYBBARkbsAJC+x9N8oltD1YraLpb2+WQMABgdOExzUr2+H7bmdkL29C5ZWqAHALSfMrc07bA54ZHOgyQFCEwODRdbe4uekD+bV3Idfqx/AjPK++KFkIN7d+w7e2P4lxphyxJv6Ped0hSCbAwwQGBx4YHNAvS1AfB8Ga+zK0BSlwjtVKRytkzOD9Mq6aAsCJmbiKUcIQERE5MogieV/p9QRSVJPsXQbxUKpPv9vZwDgpgFAQjts2XgFLDuvwtJKBgBO3xzwpAZBszQHemGB9Xb8Wv0X/PfoWHyw/1VE565GWKYOI7QHHbcHDEqpFMtM898ewACAAQCbA+7THBiing+Qotj99UreGL2yJdyM1yMtCA5Lx62haegasxMdxV9fwHeRRETkchyH/y2V7scKaShWSgfFOMfyz+CgRaZufTtkb78Kuv3XYskfAoCmTtsEBy4VILA50HqPHlh7YnGteo3gXZhXcy9mVz6MGeWP4/+OROGD/a8hOme1U94ewOCAwQGbA4pzNQg0jiDAPjRFqR+eqhSNTFf2hxiUxWFG+evoTDzwUha687YAIiJyOYiTLsYS6Qksk4LE8p/v8ss/A4A/HWtCO2TuvBrpB6/D4ioGAGwOuP/ZA4vELKi9HdNKBuHL/DGnuD2gFINTKtBfU49+jQcH9jvN9D/hlQEAAwAGAK7bHDiXBsGx2wKGpynWMQbFHGRQVoYYMDxIi8cijLg20gLeFkBERK4DGulKsTS/KuZbrPYqwyov/HHcIBRgcOCY2oT2SN9/DeLzb8DCqh5YIBb4001ciw+Dg5ZsELA5cMLU9hQ/57eLX9d34tfKBzCr4hF8VzAcnx8JwdStP2FC7jJ4px3FYE0F+ifaxci/jYc2BBgc8NDCNgsQnLA50BgGqLcFWIekKFV+WuWAv1beGJGB96MsGD95XfX1sStxCUMAIiJyelgiXYU10sdi5mOlVyUDADcPABLbI+XAtVhTcCMWVjMAYHPAM5sDi2p7O0KAn0qeRezef+PV7V8j0JQFP/0OeKcUOK4RHJBcKxbeuj9tBJzruEODgAEAAwBPbw6oYYCPTqkbpVOKgk3ynFCT/PFYHR4K16MXbwsgIiKnhlipHZZJN2GFl0bMHqz0sonBaWfVuQ6DA2ebmqT2iM/vhqXlPcTS/OcBQFOHwQGbA04/jh+T3uLnsw/mVd3naAWoVwl+XzwYb+/6AFO3TsMo/VZ4px12nBPQL1F2TP8TXs84bAswOGBw4J7NAc3xMwKUISlKxbAUuShAh8xAPdZFme1jJmThad4WQERETsdx+r9GugjrpF5i+beIBb9AjJ0BgPsGAMoaCVXJHbCuoBuWVLTM8s8AgM0Bl2wO1PbE/No7MbvqQXx6aDze3fs2IjKTEGSyYHjaYQxNKRRv9qvFolXreETgWCDwp8PmAAMABgBu3xwYLF6Hpij2UTolP0CnbA3LwBtjMxFy7LaA2M24MJYHBRIRkTNwnP6/UrpPLLBDxHJ/8IzL//kMg4O2Dw7E8m9d1w4lKeKnvaQbFqj1/+pbmjYuGxw0c4DA5oD7NAccoUVP8X3uhflVdztaATPLH8FPpU/hPwcm453d7yI0Ix3++o1i2aoRC/5ZhgC/m7NqELAtcG7BgZsHCAwOXKA5oFEwOFWxD0lV6r1TlaIR6cr+YL2yJMwgf8PbAoiIyGk4Pv1fLj2OFVKgWNLzWmz5ZwDgFAGA+ul/7fp2KE67ECtKbmr68s8AgM0BD2kOLLT2xPyaO/F1gS8+OzwOkzbOQ2TWOozU7sOw1DwMTinHIE3V8UZA/yYEAmwOMABgAOA+zQH1sYChYrxTFesYnZIRpFNWhRjsw4O0tsfG5eKamJ3oJPmgvXgHxvMBiIio9WGpdCVWSi+K+UIs6WUtGgAwOGjzAEFeK6E0pSMOGy/F8tLzDAAYHDA4cPfmwPFQoifmV9+BedV3YU7FQ5hZ9hg+zwvEfw5OwvjcJQizpIo3/mViybY2XwDA5gAfPWBw4LLNgUENowxOka1DUuSqUVrs89ciZ6xR/vc4vRwVsxNdvwQ6MgQgIqJWh3VSF6yQ3hczWyzbFQwA3D0A8EJxWkccNKsBwM0MABgAsDnQhImr6YOfyp7GN4XDHTcHTNo0z3FY4Ij0AxiSUtp4jaDN8YhASwYCbA4wAGAA4PzNgUFifNJhHaVFYZBWnhmikz8Yl4G/jDOgx/jNuCx2Ly5iEEBERK0Gy6UbxNK8VswWsWzXO2UAwOCg2ca+1guHDBdjR/blWFp2M+aLhfxcZ0FbTU3LDoMD12wOtEmDQHwbF9T2wfyaO/Br5V8wq+Jv+K5wCD4/OgYvbf0R43OXYmjaUbGAVJz9YYFsDjA4YHDgtsHBII1djE0ZkqqUD0tVCkan201BOmVllNk+fFK27e8hGjUEICIiamGYJl2ApVIPsfxqxRw84/V/DABcfmxrvXDAdAm25XbCEgYADAA8vUHQTM0B9dDAWZUPOQ4LjN37Dl7Z/hXGmLLgq9/huDlgiKZMLFVWsVDWt34jgM0BBgAMAJymOTBYzFCNbB+lVQ4FaJXccJM8JSrT7hegQ/cgE66KtOACnzj1fAAiIqJmBo3UQSyEt4p5UizL+9xu+W/VAMF1AoD6dV7YldUJG7Z0weLypgUATR0GBwwO3LY54Phv9xY/bn0wt/I+zKl4AD+VPItvC73x5o5PMWXzTIzU7saQlAKxVNqcMwBgc4DBAYODVgsOBqfItiGp9rrhKUqhT4qyN9Rgnz3WIH88QVt318vmqusYAhARUbNzXP+3VroXa6TBYtk9woXfUwKAdtie0wnZ29QAoDsDAAYAbA60QHNgoXpoYM3dmF35N3x0YDL+tft9x/WBAYZceKflYWhKieMawQEtfGggmwMMABgAOG9zQD0ocJh4Ha6x1wbpkRKiw/wwrXVAhLH+gUgNrn5Fi8vF/3PzbAAiImoeWC5djhVSCFZK72CFV7EYNHkYFrhMcFAX3w65mzvDsLsrFqkBQNUtp59q5xgGBwwOXK45UNtwfWBcbS/Mq7oHv1bdjxllj+GH4n54d++beH37/xBgzMEI7V6xLNbhObFIn25cMRRgc4DBgdMFCM4YGPx2e4AyOFWuGZJir/DTKTsDdHZzuEF+ZZwZo8P15V3UxwL4rpWIiM6b4/q/FdJkMf/Dcq8yBgCeEwBkbb0K6XuvdQQA88SiP69x4Z/HAIABAJsDLdYcWFBzG36tug//OxKCD/dPRVT2agRn6DA87RCGphSIhaBaLEC1jpsDXD0AYHOAAQADgHNvDqjXBvqky9WjtPKRIIP8TYhJfiNQh7tHa9At8gguidmpXhtIRETURIiXrsFy6ReskFLEEl9zXgEAgwOXCQ6s69vBsKsrkg5dj4UVZ2gANHUYHDA4aEKA4NbNgca/N059NKD6Lsyrvhe/lD+M6aVP4JNDE/Hvvf9CqCUF/oZcsQTViMXf/qetgLMZt20OsEHA4MCNgwO1DTAoRbYP1chlw1LkvECdPSVYb18QabQ9F2Oqv89nMy7kO1giIjpngOTluP5vhbRUTBaWe9UxAPCMAKB2fXvo9nTF+iPXI66ix/EGQFOHzQEGAB4ZADRDc0D9snqN4LcF3vjvkXBM2vgrIrPWYIR2H4am5mGgpkIsNtV/aAS4cwDQ2g0CNgcYADhrc0C9LWCIxm4L0Cq7A/WKMVBXPzZIbx80Lgc3Rm9A576x6BAbi3Z8R0tERGfUuPyrz//fJZbwLWKqxChtEgAwOGj16w5rEjog8eD1WF54ExZU9vjzRb61h8EBgwNPaQ6c1Ai4HfOq78Ssiocc5wT870gwPto/GeOyVyHYbMDzSZV4LsEmRj71JDbvsDnA5gCDgzYOEFJOaASkyvWDUuTa4ely3sh0244wvfx1hEF+Y8KW2u6xxegkMQQgIqIzQZzUHmukrlguPSiWxz1iKazHchda/hkAnHcAsP7wDVhafPNJAUBrD5sDDADYHPjjLKjpgx+LnsXXeT54ecs0TMxdBJ/0XRiWcgSDNOVioahC/wQb+iXYGQDw7AEGAB5ya8HAFBneqbI8PNVeGaxXVoTq5e/HmGz/DMzEHZEWXCHmEt4WQEREp4U46WKskp7EaikEy7zyXW75Z3DQ5JFXeaEysQNWFnTD/IoeYuluoUcA2BxwqwDBXYMDZw0Q5tf0wbyaOzC74q+YWfYovsz3wSeHxiJmwzyEZyZgYHKpWGStp28EnOuwOcDmAIMD5w4OUo5fHagMSpWrhqTKJaPS5U0BOnvKOL09bKLBPsARAhAREZ0K4qVLsVIaJuYFsRQXeszyzwAA9tVeKE+6ACsKu2FeG376z+YAAwAGAGfbCOiNGaWP4fvC5/H69s8wedMv8NNtwfC0AxisKcXA5Io/NgIYALA5wADAbZsDahAwOEWWfdPlklFaeXeoXv53hFGO9NOhp08auqqHBPbVoAPf7RIR0XFYJXXGMulfWC5Nx3KvckcD4HTjSeGAmwcHyiovVMdfgMLUi7G8qCEAmK+GAI4g4FznFjYHGBwwOGi1EOA2zK+5HXMq/4JfKv6G7woG4fMjAXhxy0+IzlmGIan5YiGpOr8QgMFByzUI2BY4t+DAzQOE5goIBiXL8iCNbBuWIhd7p8oHgvXKkjCD/M24jPq/vGiuuYkhABERHYe50tVYKX0mZiGWeVUxAPCcAKAy4ULkpV9yPACY14YBAJsDDAAYAJz7xNX2wqyyB/FT8ZN4Z3csXt76DUYbc+Cj3YUhKcWOcwL6J9Sh358dGsgAgM0BBgBu0xwYqpHhnSJbA7RKRpBeWRmitw8L0tkejclC1xgjOvFsACIikhzX/y33WicW261Y1ngAYEsNgwPnef5/dTsUpnTEPuOlWFp8E+aKxf9MM+9M46nNAScJEBgcOEmA0MrBQVxtbyyo7YNfK+/D7IoH8UPxc/g6fwRe3fYlYjbMhXfaIQzUlLVOCMDggM0BPnrQtsFBwxkBysBk2TpII1f5pMn7/FLl7FCD/OZYgz0kKBFX+cThQr77JSLyUIiVOmCx1F0s51oxB8XYGAB4RgBgX90O+WkXYY/5Mixx4QDAKZoDDAAYADhJc0C9RnBu5b2YWfZ3vL/3Fby5/VOMMZnhq9uKoSmFGKQpE8tknVg2nSgMYADA5gADgBZpDgxMtmNkqmL1TVMKAtPtPwTp5HdGp+Ke0Rp0C4zHpTFr0JHvhImIPIjj+r910vVYIT0ilvO9YkG1YVkLLv8MDpwqOLCtaYcDhsuwNftKLC45uwCgqcPmAM8eYHDQesGB+ljAgtremFt1L+ZU/hU/lTyJbwuG4I0dn2DyphkYkbYXgzVFYvm24VmxgP9+nLIl0ILBgdvfWsCWgEcHB89rZGWgRrYPTpHLh6bK+WN0SkqQXl4wNsP2zERL3T3qIYF8R0xE5CGgkTpgjdRTzFNiyT7klIs/A4AWDQD2mi7HptzOHhkAsDnAAMATmgNqI2B+1Z2YXf4QPtz/At7e+T6CTTqM0m3E0JQCDNKUiiXRKpbIegYAbA6wOeDGzYFB6m0BGtnmr1V2j9YrxmCtPTxEa38+LAs3TM7GlVIc2vN8ACIiN4dZ0qVYJg3GcmkilnkVOnUAwOCg2YOD+rXtsDWrEyxbumBRacsGAGwOsDngSsGByx1aeIagYIEaAtT2wq9V92B25V8wvexxfF/8PN7a9T5e3Po9fLQ7MCQlTyzB9adsBJztMDhgc4DNAZdoBNQP1Mi13ily3ohUeXuo3vbfCKPtpXFJuHFqPC5lCEBE5MYQJ10mlv/RWCG9gWVeRQwAPCsAqFvbHptzOsG8rQsWlt7MAIDNAQYAbhoAnDw9xc9ZH0cQ8MnBaMTueRuhGRoEGLIwNDUPgzQlYsmpFcthHQMANgfYHHDT5oB6PsCwVFn2TrVXBGqVRUFa+cvQ9Pq/hWvQa4gWl4fsxUXiXSKDACIid4N1Uhcsk97Hcmk2lnlVOJ7/PzbuGAYwODhp1AAge1MXaHddg7iym/GrEwYAbA6wOcDgoPmDgwU1PTG/phfmVt2NOZX34eeyxzCtuB/e2f0WXtn2Bfz0mzAs7eBJjwW0xjA4YHOAzYFWP0RQGaSRKwenyEWj0uTM0en2tWMz7CMmZtj+EaJRQwAiInIrWCldjWXSl1guLRdLfxUDAM8KAKxr2yNzy1VI23MtFjAAYHOAAYDHNgfmV9/mCAI+OxSKd/e+jLGZ6xFoMmNo6hEM0hQ3uRHAAIDNATYHnL850HBbgGz3S5fz/NPlzSEG+cWxGfZRQVrcHK5Hl1igg5h2fNdMROQGxOJ/A5Z6JYqFf6d4rT8pAGjqMDhwmald1x66HV2x/sD1mK8GABU9zn0qe7hVcHDGAKGqqcPmAIMD5w4O1FbA3Kq7MKfyXvxc9iimFT+Dd/e8hte3f4ZR+g3wTtuPfgl1eHa9/NskOMcwOHCT5gAbBG0aHKghwMBke/3QFKVweKqyJyjd/nOoQX4vJNXaOyix4iqGAERELs5xBeBiqbtY2vVicT2MpV52BgCeFgB0QPqurlh3SA0AujMAcNIAwKkaBAwAPKI5ML+6F+ZU3o3/HQ7Ch/texNjMNQg0GjDsWCMgoQb9EqwMABgAOG2DgM2Bps9QjQzvFLkmIF1JCEyXZwXqbE+N1tfdE7AKnQN5SCARkWsCpHaIk7pikfSgWFr3iLFhaTMs/wwOXCo4qInvgIT912FZfjfMK29iANDUYXDA5gCDA6cODhbU3Iq5VXc4goAZZY/ih+Kn8d6eV/DG9k/gr8/B8LR9f2wEnO0wOGBwwOaA0wYHz2scowxMkasHp8hlfmnyFn+tPS3ShIgJGXg+0oJL+E6aiMjFIFbqgHjpJqyVHsMSr0NtuvgzAGizAKA6XvwyOHgdlhR2w1wGAGwOsDnAAOB0YUB1L/H79W58fng0Ptr3AiIzVyPIqId36hEMPrERwACAAQDPHnCr5sDAZFn2SZPL/dLlfSF6vBtuQpSfDj190tDVZzMu7KtBB76rJiJyAYiTLsYS6VkskyKw1CvfKQIABgetGhwoYqriO2BlXjfML+vR+gEAgwOnDw6cokHA4MBpgoOTGwEP44fivnhv70t4Y8dHCDBkYkT67qY3AhgcOHWAwOaAZzcHBibJ8sBk2TZEI5cM08gHg/TK4lCD/FVUev19U/Q1N/oA7fnOmojIyWGWdKlY/r2xQpqMpV6FDAA8LwCQV3qhIuECrMjrhnllLrD4MwBgc4ABgNM0BxZU3yp+H96Jz4+Mwkf7JyAqayWCTVp4px7CYE3RuTcCGAAwAGBzwOmbA0M0jvMBrKO1ijlQq6wIMdgHh2fUPxyUiKvGa3AZzwYgInJi+FXqLJb/V7FS+hZLvcpdOgBgcHDOo4ipXdsBRZqOWFLQDXPEYj2nonvj65+PywQFpwkO3C1AcMbrDtkc8IzgQG0EzKu6w/FogNoI+NHRCJiCN3a8j9EGC0ak7xJLqBXPiMX9dPNsaw+DAwYHzdkg8MB2QL9kWXk+SbYOTLJXjUhXdvmmKeaxRvmF8RkYOWANOkmxvCmAiMgpYZ3UBcuk97FUmi2W4QrHAYBNmWUnvDIAcJ0AQH3+f20HFGgucjz/fzaLPwMABgBsDjAAOF1zoKERcAe+OOKH/+wfj6isZQg2pWFY6iEM0hQebwQ8s97OAIABAJsDbtAcGJAsKyNS5WrfNPlwoB7/DdbhpaB03OafiGsHrEFHng1ARORkECddJ5b/+VgmGcQCb/XIBoAHBwjyCi+UJHfEQf2lWKw2AMp7nHkqzm8YHDA4YHPABYKD8wgQ5jvOCLgdcyrvbGwEPIH390/Cm7vexWijCSO0O87YCDjXYXDAQwvZHGjbEOD5ZNk+OFkuHZIsHw7U2VcG6ew/RBjxwAsW3MwQgIjIiWCxdD2WSKvEbMRSr7omNwA8sTngDgHAynYoSu6I/fpLsLjwJrHgdz/N9PjtlQEAAwA2BxgAnO2If8evlbfjy7yR+PhgFKKylyDYnHLGRgADAAYAHtEgcLPmwKBkGUOS5bpR6XLOaK09PkgP7yATHg1NQ9cwLS7n2QBERG0McdKFYnqJJXZjY/1f8ehF3gODA/vKdjiUfjG2Z1yORY4AoEfLD4MDBgdsDnhUcHC8EVClNgIewo/Fj+PDAxPw9q53EGgywEe3rdkbAQwOGBywOdBWY8fzSYp1YJJSNTzFvs8nTc4M08ovR+rtAZEWXOETx5sCiIjaBCB5OW4AiJPuFIv7Dkf9v7U//WdzoM3HtrIdDuguwdbMy7HwTxsATZ0TmgMMABgAsDng8c2B+WJ+rbodX+V545ODERifswihGckYlnoQgzQFzdYIYADAAIDNgbZtDqiPBXhrZOuIFDk/SC9/FaKXXwtMrbtjTFr19SEaXBRpwQV8N05E1IpgkS5wLP8LpQFiETwkFlKFi7znBQf1q9phl/ly5G64EguKbsJssaz/fk67yLf2MDhgcODOzQEnCRBaIxyYX32r+LVwu/j9eSdmlj2En0oex0f7o/HOrrcRaNbCR7e5MQSQnXYYHDA4YHPg7EKAAQ1nA5QNTZGP+GuVtUE6+Wex/P8tOgO3xvJsACKi1oM1Ukcslh4SM1IslUdd6tN/NgeaNQDYbumErE2dzxAAtPawOcAAwMOaAx4UAPx+5lb2wdf5w/DpoTBMyFmAsIxEDEs90CaNAAYADADYHGj+5sDAZBmD1bMBtMqmAJ2SFKy1+wbrbI+P0+GaGCM68WwAIqJWgDjpMiyXfLBMmioW4iIu8p7ZHKhb3R65OZ2g39YZ84tvPmUA0NRhc4DBAZsDPHvg7BsBfcTvuzsaGwH/xH/2j0PsrjcRZE6Dr24T+q2vxTPx8m/jxO0ABgcuFCAwOGjF5oB6NoBcNzBZrh6eKh/wSVNywgzyG5EGe3BAOjrzpgAiohYmlv/LxfIfiqVSrFikiz2mAcDmwB8CgOwNV0C7o0sLBQBsDjAAYHPAE5oDzdkgUMOAb/KH4LNDIZiYMw/hGesxLOUABiUXoP/6GvRb73yNAAYADADYHDi7GZBkx7BUWEekoSAw3T4tRCu/7a/FXaO0uIFnAxARtSDESV0aln9pBpZ4VYjBOQ8XeZcf6+r2MG26Csm7rsE8NQAo637mKW/ZYXOAwQGbA57dHDhdI+CdXW8h0KSFj3aLWHKtePrERsDZDpsDDA4YHLRec+A0DYIBjjaAXR6ULJcP0ch5o3VKfJBenhlhxCM8G4CIqIVgiXSVmE/FxIllvtJjAgAGDidN7er2MGy5Gol7rsVcpwoA2BxgAMDmAJsDf2wEjM+OQ6g5CUNTDmDgiY2AeDsDAAYADABcqEHQeEggBmrker90ZYu/VtEEG+AbYsI/Q9PQNUyLy3k2ABFRM0KcdF3D8i+ZxDJvbVIA0NThIu88AcCa9kjd0RVrDlyHuSVnGQA0ddgccM/g4HcBgrsEB2cMEKqaOmwOnOvMq75V/Nrqg9kVd2BG2UP4sfhxfLg/Gm/vehtjjAaM1G473gg422FzgMGBOwQI7tEcsOP5RKVuYJJS7Z1iPzAixZYTasArYw0YHWkpuSIWaMd37UREzQCLpevFrBKzUSzldQwAPDNwqFnTAZpdXbHq0HX4taS7GwQATtAgYADAAMATGgRt2BZQw4Cv8obhk4PhiM5eiBBzMoamHMLA5EL0W1+D5xxhgJ0BAAMABgAuFQzYxe9jxTo8TckPSLN/G5QmvzEmF338N+LaAWvQkYcEEhGdB8RJ7cXcIhbMDWLKxVKutGoAwOaA00z1mg5Yu/86LMq/EbNLumNW2bnP7DJ3CA7YHGBwwOaAqzQHTtUIeH/fBLy58x2MNpgwIn3HOTcCWqw54KIBAoMDBgdt0QzonyQrA5Jk+8AkuWxwsnwkIN2+JjDdPj3CWP/AC5bamxkCEBE1ASTJC2ukjlgp9cZir+1iasWCygDAQ5sD1Ws7YPX+6xCnBgClnhwAsDnAAIDNAVdtDsypvB1fHvXGxwciEJm1BEGmlMZGQBGeW1/TrGEAAwAGAAwAWiUIcFwZ6JcqbwxIsyWO1sM7yIRHIzUVV4/X4DKeDUBEdA6gkTpgqdQDS6QnxFJ90GU+/WdzoNlHEVO5VvxyyLsRc8puxqwmBgBNHfcKDtqwQVBxfsPggMGBSzQIztgIuB2zK+483gh4b98kvLHzXQToMzA8bVeLNQIYHLRRcOAkAQKDg5Y7I6CfejZAkmIVU+WdYt87MlW2hGrlKeMMdt8hPCCQiOjswSJdgDjpTiyUBogF87DbL/9sDpw2YJDFa8XaDliSp3763xgAnG7Kujd7QMDmQNs2BxgAMABw1+aA2gj44uhI/OdAFMZmLkOgMQ1DUg7j+eRiPLe+ViyOdQwAGAAwAHCR5oD6WMBQjVw7XL0uUCv/L1grTw0wordPFrrybAAiorOAldIljuV/kTQOi70KxOCcxxNCAzdvDiiOKwA7oCixIxbldWuRBZ/NATYHGBx49nWHrd0c+O2/eav4NXq7+P12J34ufRjTivrivT1T8Mb2D+Gny8Gw1H1tEgK0aoDAQwsZHLjJdYcnng0wOEkuHZJkPzxaqywL1srfRpnq73slCzf4xKE93+ETEZ0G4qVLESeNxELpJbHkFjIA8MzmgBoAVK/ugIKkxgDgzz79P59hc4DNAQYAHhsAOEVzQIwaBnx+eBQ+3DcREZZVGGPQY7DmCJ5PartGAAMABgAMAM49CBiQJGNgsmwdlSpnBaTa14TqMWisDg/5rEOXwHhcyscCiIhOAUulK7FIelHMF2KZL2tSANDUYXDgNCMv90JJfEccTL0Ecfnd8ItY0v90XKghwOYAmwMtGRy4W4Dgzs2BExsB6o0Bs8rvxs8lj2Ba4dN4Z9dreHnr/8EnfTOGaA6J5bPepRoBDA4YHHhacPDb2QCy8nySbH0+yV41IlXZ6ZNmN4YY5HFRZgwOjM+7lO/0iYh+B6ukzlgsvSXmR7GsljMA8NQAoB2KEjpif7oaANx05gCgpRoCbA6wOcAAgAFAa05lT/H76S58ejAI7+5+ESEZ6+Gvz8Dg5KN4PqkEz8ZbxSLsPmEAAwAGAO7aHFAfCxiWIleNSJUPjtbKHwXr5QkB6dZb/TUVV8cCHcS047t+IiIBcVJXLJKmiVknlvLqVg0AGBw4TXBgX9EOhzQXYbvhUiwoOLsAoElTdkKDgM2BNgkOTg4Q2BxgcOC5zYGTGgHld4jf33djesmj+L7wGby14228uOlLjEzfhsGao3h6XR2eWmcXIzdMfMO4Y0uAwQGDA1cMDo61AfonyvZByXLJkGT5QIAOc4J1+Dhcj17RG9A5NpYhABGRhLnStVgs/SImBYu8ahkAeGYAYFvRDgdSL8ZW02WY35IBQGs3CNgccLIGAZsDDACcuzkwt7KX+H1+D/5zIAzv7HoVwaYkjNJlYmBSHvonluCZdVY8va6eAQADAAYATtocUIOAAcmOswFq/bRIDdDK8wO0eNJfi7tGG4s7hezFReLdL88GICLPhTjpRrFsJonZJZZrm0sEAAwOmj1AsK1sh126y5CbeQXmF6pnANx8iunedsPmgJM9etCGzYHzbBAwOGBwcOa51XFjgBoE/FD0GL7O6483tr+LyRu/x9CU3RiQVNgQAjgaAWc7bA4wOHD94MBVAoTjbYAke+3zSfZyn1Rlw6g0JTHCiJETM/CPEI0aAhAReSBIkhfmSTeJ5Vgn5pAYOwMAzwwA6le2ww795cjOuhLznDEAcIOzB9wrAGjD5gADAAYArdgcmFNxG2aW3o8P9kXhzR1vYYxBC5/0jRiQWIB+CWW/NQIYADAAYADglM2B/omyPDxFKfJJVbYH6vBSiA6jQlNrbopOL+ssqdcF8qYAIvIUjuV/r3QRlkt9sNBrJxZ51YlXiNdzH3cODTwkOKhb0Q6bMjrBtLEzfi3ohpklN/9hfvn9lJ7tsDnA4IDNAQYHrhwc3IpZ5XdhZtl9mFb4OL46OhAvb/0ME3J/wWDNIfRLLBfL/bk2AtgcYHDA4KC1pn+CXe6fYLMN1igFw1KUnYFa+ctQA16JtOD6KXpczBCAiDwCIHlhjdQJy6R7xBK/Vyz/cpOWfwYA7hEArGyPDRmdYFADgMKb3CcAYHOAzQE2BxgANFtzQA0Cbsf0kgfw7p4peG3bhxilN2N42jYMSCxCv4TyxsMCbQwAGAAwAHCy5kC/BMe5AMqQZLnSX4elo/X4enQKHgpMxS3PxeddOmDNzo7cDojIrWGadAHmS7chTnpWLP+Hm7z8n88wOHCasa5sD0v2lUjdehXmnCYAON9xyeCgBQ4R5K0FbA4wOHDl4KAhCPil7G7MKL0f3xU8g8+PjMCUTV8jKisOA5Py8dz6qmYOAc4jOGgcBgcMDhgcNIQAYpQBCfaqgQm2Yp806EelY0mU2fb0lBzc5ROHC7khEJHbEov/hVgk3StmsFjGjzAAYABgzr0Smu0MANylOeBeAQCbAwwAnLE5cAtmlt2DH4sfxds738BLmz+Hb3o2hmp2Y0BisaMR0PBogI0BAAMABgBO1BxQg4ABibJteKpywCdVyQw2IjREj/4hGlwXY0QnidcFEpE7wjTpEiyR+mOxFIWFXgVtEgAwOHCaAKF2VXukb7oK63Zdg9lFLRMAtF5w4BxnD7A5wOaARwYHvwsQ3D84uEWM2gi4BzNK/4qv8/vjs0OjELNhBsItq9A/oUQsmlYnaAQwOGjW4MBFAwQGB78/G0C2DUiQrUOT7Ue8k22bg3TyOxF6e7iPHl36atCB2wIRuRXMki7FImmYmBew0KuQAQADgNQtV2P1nmsdAcAMsXDPaFzAZzAAYHOAzYGmNwgYAHhMc2Bu5a2YUXY/phU9jte2vY9JG6ZhZNoWDNEcQL/1pXhufaULBAEMABgAeFZzQG0DDE6WbUOT7SWjdZgerMe/RyTX3TU8DdcPWIOODAKIyG04DgBcJEVjsfQfsWyWuFQAwOCg2YODmtXtkbC9K5btvw6zip2rAcDmAJsDbA4wOHCV+bXiVvHz1xMzy+7F9JIH8fmRIfj4QLDjfIAgkwbPrW/JGwOcJzjgoYUMDlwpQGgIA+zKgESlfGCScjQg3b4mSCv/GJZef99EbfUNPup1gURErg4zpCuxRJoi5nMs9CpjAODZAUD16g6I39EViw9ch1+Kbz7eAGjqsDnA5gCbA2wOeHpz4NeKnvix+GF8nf8spm7+H8Znz8Gw1J0YmHwEz62vEItOtQs9GsAAgAGA+zcI+iU6zgao801TNvinK+v9U6yDR6dUPxSwCp0jV+ISXhdIRC5NLP5XYaH0MRZJ87HQq1IMznk8ITTwkOCgelUHrNx3Hebl3YhfisTyXtwwM094Pe24QVvA5a87ZHPAyYKDNmwQVJzfMDho/hBgTnlvzCi9Dz8VP4xPD/rjvT0TEGJeBz+dRSyD1XhSLNBnO+7XHOB1hzy00HmCA0cTYL0d/RIVa/8kpXJ4srxzZIqiCzXYg6OMtmd99LiYGwQRuSzMla4Wy/8XYpYhzquKAYBnBwBVqztg+b7r8GvejceX/rOekuYbp2oOuNitBWwOsDnAAMC5GwFzKnrhu4In8L/DwzAxdzrCM1ZgsGYfBiTlO4KAp9fViiXfhifX2k896qK8lgEAAwAGAK3RHHguQVaGpSgVI1KUff5p8r9Gp9vDwnW13cP15V0k9ZEAtgGIyNVgrnQtFkrzxOgR51XbpACgqcPgwKlGXuKFijUdsPDgDZihXgF4rgHAKYbNATYH2Bxgc4DBwalCgN7i570Pfi79C34o+js+3DcWb+98HQE6PYanbhNLYe05NQLYHGBwwOCg5YID9VyAfuvt9oFJcvGQZHnv6HR8H6zDW+P0uDHWwkcCiMjFIE66Tiz/S7BIyhRLuZUBgOcGAPalXihb2wELD92AGeoNAM0QALA5wOYAmwNsDjAA+POZXX4bvjw6EJ8cCMJYy0IEGpIxKPkQ+icW4el1NXhqrbVhgV97nsPmAAMABgBNbg6ojwUMSJIxMEmu9kvDav90/BCYjr+FpePWwRZc4rMZF3KrICKXgDjpRsR5acVCflCMrVUDAAYIThMcKOoNAMs7oCC+IxYcuRE/t9byz+YAmwNsDrA54AbBwfkGCGobYFbZHfip+AF8V/A4Yne9iFe2fISRaRsxOOmgWG6tJy3yx19badgcYHDA4EA9F8AxSv8Ee/XzibYSn1ToR6VjcZjW9uR4A+6ItOACbhZE5PSwWOqGOC+zWKjzxdgZAHhuAFC1sgPyEpwjAGBzgM0BNgfYHPCkAOC3wwJ7iF+Xt+PTQ6Pw7p6JjkMCR+lMeD7pKPolluDpdVY8tba+eRoBbA4wAGAA0LQgIEFG/0TZNjxFOeCTqlhGa+3BY7S2ZwN1uCZMi8v5SAAROS18KXXEL9JtYpneKaYeC8QyGOdCAQCDg2YLDuSlXihZcyEOJF+M+UcbAoCmDpsDDA7YHHD+4ODkAIHNAecKDm5xhAC/lN6FHwofxddHn8Ub22IxecO3GJy8B/3WF4mltb5JizybAwwOGBw0U3Agvn/9EmRb/wS7dWgyDg5PUXLHpMuvhmkx2ieh5AopFu24aRCRU4EkeWGldAmWSHeIxX+vWPxlx/LPAMBjA4CitR2xT3OJSwcAbA6wOcDmgCs0CNgcONvmwJzyXuL3+T34YF8k3tzxFgJ06RieuhEDEovE8lEuluw6sdTbWrcRwOYAAwAGACc9FjA4WakbplEKRqXJ345Jk9/wS8Rt3vG4Rn0kIBYMAojISSBW6oBfpe5YID2OBV6Hji//5zMMDlx27Eva4UhSR+zQXYJ5R7rh56Kbz32Kb2ZzgM2BFm8OHG8QsDngBI8etGFz4DwbBC4VFpTfgplld+Ln0nvxXf6T+PzwUEze+DUiM+MwYH0Bnllb8+fXBjbDIs/mQDMHB43D4MA9goNn19vxXLxd7p8olw1MlA/7pymLAnXyF2OSrX2CEiuuYghARE4B06QLMFvqg/nSc1jgdZgBgIcHAEvb4VDSRdimuxTzjnpeAMDmgOs0B1y9QeBeAUAbNgc8KQA4Pg1BwA9FDzuuDHxx0/8wMi0XQzR78dz6UjwbX9myQQCbAwwAGAD86fRTbwpIkK0+aYppVJqybFSa7Wk/Td3d6rkAMTvRUbz75tkARNR2MEO6CIulf4gJwAKvvGYJABgcuGxwYFvaDntSLsEG4+WYqz4CUHTTOczN5zdsDrA5wOYAmwNsDpx1G2BO2a2YWXoPphf/FV8cUa8PHINIyzwE6pPw7PpysUTXo69YoE81rb3IsznA4MCTgoPGxwKU59bL1v4JcoW3Rt4wQmNPCNXbB0Ub6x8YsEYNAYiI2gjipIsxT3oaC6QwsYTnMwBgALAr7RLkmBkAsDnA5gCbA2wOuEJzYE75rY5rA7/JfwovbfoM0VmzMDRlJ55POiKWoUo8va4GfdfZ2i4AaIM53hxwuwYBAwBXaw48Fy/LQzVykbdG3jYqVZ4QoLMPjUzD9TFGdOItAUTUJhAnXYZFkr+Y18QSXtSmAQCDgzYPDuqXtcNW3WXIyLwCc/JuxHSx2J/r/HzO07bBQVsGCJ7YHPhDgOBKwQFvLWBzwEmDAzUEmF3WCz+X3Icfiv6GT/YH4N+7YhBoTIBPWhaeiq85bRvgXIbNAQYHbh0ctFCA8Nx62d5vvVw3KEnOG5Jk2zpai3+F6BEWsKqss08c2nMbIaJWheXS5WL5DxbzL7FMFzMAYACwWX85TFlXMgBgc4ABAG8tYHPABZsDs8t74Zv8J/F/h4YjOmcmQsyrMVCzD/2S8sVSVCMWQOsfGgFOGQCwOcAAwE0CgGOPBTyfJNsHJcslvqnydP80+d/+etzub8S1PnG4kEEAEbUazJCuxAJpKuKkrzDfqwwLxCL4+3HFUIABQpMCgLpl7ZCd0QnpGztj9tEbMb3wpiaFAAwO2BxwnuDAOc4eYHOAzYHWDA5ml/UWv+b6OM4H+L7gMby3awJe3xKLkWnZGJy0Tyy7VvRdY2+WVoDTBgdsEPC6Qyd79KDxukB5QIJcPjBBPuKXpiwdnS5/HaLB7ZEaXM1bAoioVeBXqTMWSG8gTpqG+V7lDAA8OwCwLm+PrIxOSNvYGbPyujEAYHPAec8ecKUAgM0BD20OnCJ4aIPmwKyyPvjvIW98sGcsQsyr4KfT4/nEo+iXUIK+ahtAPSxwnRsGALy1gAGAk549cOyWgJGpisUvRVnpn2J71j+x7l7eEkBErQJLpKswX/oEC6QFYtmvPGUA0NRhcOByY13WHsasK5G45arfAoCmDoMDlwsOZhY7zyMCDA7YHGBzoPmaA7+U9cHM0oarA7/OexqvbXkXMTnfY3DiAfRbV9YQAqiNgLMdNgfYHGBwcL7BwQm3BCgbR2qUxCCdfWi4vv7hGN4SQEQtCXOlqzFf+hwLpKWY71XFAMCzA4DaZe2hz7kS67ddhV8YALhlAHDGbxebA2wOMABw2+bA7PKe+LnkHry/JwpvbHsbfulGDNNsQ7+EIjwbX94YBNg8OwBgc4ABQCs2BxpuCVCKvDXKtlHp8iT/NPuI47cExPKRACJqAZgrXYs4aZaYVMz3qm3WAIDBgcsFB7XL2yN1w1VYveMazMzvhp/EIn+2M725h8FBswQHx/6533//fzrL+cOPW3HDsDnA5gCbA2cbHLRhg+AUocDs8lsws+xO/FxyL77KewafHRqJidk/Isy0As+tLxHLqPXc2gBO2BzgrQUMDlxmxPfz2Xi7/Ox6e/2g9XL+kER52+g0+d8hafaxAengLQFE1PwaA4D5YgwMABgA1CxvD83Gq7By5zWYwQDATQMA9cvdxbfpVjE9xd/T+6Rp+PpbxPLfXcwfg4PpxQ3D5gCbA2wOuHZzQA0CZpTeg2mFf8erW/+NmNzv4Z26BQOTD+KZdRV4am21WKJteEIs7k80LvBPMABgc4ABQIu1Bp5PkOWBCXKZX5o8IyBdfs8vFXeotwREWnABDwgkomaDedINYuleL2Y75nvVO0UAwOCgzYKD6uXtEb+tKxbvuw4/n2MA0NRhcNAyAULDon/zb5/mO368xdcV9sCMwt6IK3kCi0uexcrSkVhV6osVpcOxvHSo+Pq+mFfyKKYX9MSPBd3xQ0E3x/xYeGxucsxpGwKn+PbO8MBbC375/bA5wOaAEzYHZpfdIn7Ob3W0AX4sehCfHRiO93ePRYhpNfzSzXh6XXXLtQEYHLA5wODgj48OrLMr/ROU8ucTlCM+yfbl/qnyN2OS0ScoEVcxBCCiZoE46UbM80oRy/9esUTbGAB4egDQAWu3d8XC/WoAcBMDADcIABo+7Rdv8ovuwpyi+zC/+O9YKJb8NaWjEV8WBk35C2KmOF6TyidiTdlorCz1wYLixzGv6FHMLvqrmPvxi/jnZxbdgRmFvfBz4a2OdsDZBgA/t/KtBU7VHHClAIDNAY9uDswq64nvCx7F54cHYmLuDwjPWIaByfvQLyFfLFU1YjG2Os4HONYIONc5rwYBmwNsDnhQc+C59TL6r5etw1OUTB+NsmpUGp721+Ku324JICI6D5gn3SSW/1yxQJdhnpcsvozTjiuHAwwOzmqqVnTAil1dMffQdZiuBgAFJ0yhcw2Dg5Pn95/4N3xS3x0zivrg1+KHoKv6N7JrvkO+LQsl9h2oko+iWs5HjVJ40lTLeeJ/O4Iy+14U27Zht3U1ttUugLHyA6RVvIZlpUOxsORpTC/ofcqGwPGfo981BJoSDMxkc4DNATYHWrU5MKusl/g5vU383v0Lvsv/B97dNR6vbXkHI9KyMShpn1ggrc7RCGBwwOaA+wcHyrPrZWs/9ZaAZDlnhMa+LkiLAWN1uN9nMy7kBkNETQJIXlgsdRdL8GYxVWLJVxgAMABYtucazDlyPQMAlw4Afqv6zy/5J5aWDsGGmp+wy7pCLPcFqFOqACj4MzbFCqtSgYK6DThs1WNjzUxkVX+FxLKJWFMagrjiJzCv6BHMEovCL0X3YmZRH8wo6i1+bnqI6d4sAcAMNgfYHGBzoM2aA2oQ8N9DQ/HBngiEmFfCT6fHgIQ8PBdfir7rrHii8erAJ1p42Bxgc8CTmwPPrrN04VT8AACAAElEQVTLQzRKwbAUZfMojTxudDoGqecCqG0A8Ubei9sMEZ01x/L/jXQZZkp3YZ7XPsfyP+9Plv/zGQYHLjGKmIrlHRC373r8nNcNP+bfhB8Lzjw/nWkYHLRKgHDs2+N4Pr/wFsen/ktKB2KPdQ3y6zNRq5Sg3rH4y2dc/hsojrHDKqYWdUoFrEoZauUCVMtHHO2A/PpsbK2di9ya75FQFo1Vpf6YXXQfZhTehh/Ez31LNQNmsDnA5gCbAy0QIPyuOVDWAzPL+uDn0jsxLf9hfHXkaUzd8gHG5/yE5xMO4um15ScdEtiiizybA2wOOHNw0DgtdkvAetn+3Hq5bnCCfGRokrwxINX2anBq3WgfDS7jRkNEZw2xUjvMkK7EfOk+sfgfaJHFnwGA6wUAKzpgwb7rMV0NAAoYALhmANAdP4sFfEnp84gvDxdLeg4q7Icdq3zzUWCVK1AtF+CgNR27alc5HhFILX8FS0qeR1zxk5jjODvg3oZzA4puE9+mHuLb14rNADYH2Bxgc6CZGgTqowG3YHrx3Xh3TzRe2/oOfNIzMESzE8/Fl4gFpfKcgoDWGjYHnGeONwfcrkHQCgHAibcEJMq2QYlykW+K/Ru/VNtrfknoqR4OKAHt2QYgojOCRuqAeVIPxElPiCX9UIsGAAwOXCJAsC5ph6I1F2DegRvOevk/n/npbIfBwZ/Ob8/8N5zQ76j9F/8De6yrUSCWfxuqxbpuQ/NTHG0CG2pRL/4bVqUEtUohyuz7UWzbjp3WZdhUOwsp5S9hXVk4Zhc/gBlFd2Bawc1iuuGHwoY53a0Cvw8GZrTCsDngOs2B4w0CNgdaITjo4XhVQ4CfS+7Cj0X344sjz+KTA74Ya/kVo/UJYjkpF8t2vfMt8mwOsDngRsHBM45HAmS5f4Jc9nyC/VBACmYFpuHDoITam6fG41KGAET0pzBNugCLpN5YLD2DeV6HGQB4dgCgfvpvXdoORWsvwFwGAC4bAKjP3v9a9ACWlQzC0XpLC3zyf2Z2pc7xuMDRukzstyYjo+p/0Fa8g6WOKwafddwqoJ4ZMKPodrHg93Y0Fn4svNkpAgA2B1ynOeDqDQJXbg6oQcBPxffgm/zH8NKmjxGdNRODNTvQP/EInl5XJZbEWqdsBLA5wOaAuzQH+q2XMSBBrvHRKCmjUuRfR2vxSFg6bvXR4+JICy7glkNEp4QvpY74VXoY8yUfzPM66pQBAAOEVgsOlIUNz/8fie+IuQevFwt6t1PMTU4xrhYcNHuAcMpP/rs5PlWfUXgndJWxyK3+CValuIU++T+7dkDD2QE14ttRilrxbalwNAO2YWftUmysmYGEsnFYVToKM4ruFj8+PcW3/6Y/bQYcDwjUKw6L2+CRATYH2BzwhObAWQUIDY8E/FLaCz8V34fvC/6GD/cF4e0dL8I3XY/Bydvx1JpaPLHafuZx1kWezQE2CJw/OFBvCajpFy+XjEhRdD4pysLRmvpHIlJrb+mrQQduOkT0B5ghXYTZ0t/F+GOeV57jAMBzmfknvDIAcPkAQF7ohfKVHXA4oSN+ZQDgkgHADwVisSn8C3Kqv8Wu2hWoV6rhTOxKPeqUShyxmrG3dj0MlR8gpXwqFpb0w7zif2JW4f2YWXgPfi7sLb6fPR2tAFcJANgcYHPAbZoDTWgQ/FLaG1/mPYWPD/giImMhAvQaPJ9wGP3ii8WyaXU8GtC3DQIANgc8tzngvrcWnNwccDwSEC/bvDXKvuEpisk32e7rr7E9FpCOzlP0uJiPBBDRSTBNugQLpH6IkyLFIl/glg0ABgdnHRyoAUDhmguxN/lizDlwPX7I73bGOXVIwOCgtYKDY/+746T9ArGUFdyNhUXPodi2GVa5FIrjtH9n09AMsDmaASWoUQpRYtuJgvpcbKyZBUvVF1hdNgZLSgdhev5t4tdZd0croKEZcJNjjjcDjv34HLsC8TTBwNkOmwNtFCC4UnDAWwtOPaU9MLO0F2aU9BG/Vx/AV0efwOtb38Kk3K8wKHEPnl1X7AgBHhcL/7F54nyHzYE2CRDYHHDCWWvDM+vl+mfX22sGJ9j3DE2yGwPS6wNDdban1EcCuPEQ0XFYKV2CWdJgzJYmiqW34JwbAE0dNgecMgCwL/JCwZqO2JN8CWYfZADgegFAD8wt/BtWFI9AuX2/4zl816CgTq5Gtb0I+6zJ2Fa7GKnlr2F9WTTmFz2BOeL7pLYC1Ecbfiy8VUyP35oBbhAAeGJzwKUDAN5acMZR/xs/F9+BD/aG4M3tr2JUuhbDNJvxXHyR49rAJ9bYnD4AcKnmgCcEAGwOnNU8vc6uDEy0Vw9Ksh/0S5Xf9E+1B482olukBVdIsWjHzYeIJMRJl2GeFIC50utiIS9yy0WewcFZj32hFw6v74jtaWcfADR1XC04cNbrDo99u6aJH9OfC26HpnwyMio/czxz71oabxNQalCvVKFWLkK1fBQF9RtwuE6HzKrPoa34FxYWP41fix5uaAXk3+gIPn448dfJ6ZoBjfPz76e4eYbNAQYHbA4cmx4NIUDpLZhRcof4fXcPvjz6FD49OBzjMn9GoGE1nllXKhb4upPaAOcybA7w7AE2B07XBLDj6Xi78sw6m31Aglw4MMG+0z9F/jA4DdE+68q7+MShPbcfIg+H6dLlWCgFYYH0tljki1utAcDmgJMGAO1wMKEjtqarAcANDABcLACYUXAXDJX/xsbq6Y4T+F2d+vhCjb0I5bb92F6zCLlV07CmNATLSoZjTuFD+KXwPswovAM/F94mfgy6Ox6B8KQAgM0BNgdcoTmgBgE/l9yB7wr+hpc3v4cJ2T9gcPI29F9/WCwsVWIhVA8KtLlNAMDmgIc3CJyoOdAvwa4MSLCXj9TIc0Zp5P/4peIO/0Rc+8A0XMA2AJEnBwBx0hX4VZok5v/E8lrKRd6zgwPbwnbYk3QxNuguw6wWDgBaPkBw7+Dg2KJ77BPw7/NvFAvx/dhduwL5dVmOZ+zdgRoCqCcGqAcHWpUyVMl5KJP3Yb81ATtqFzoaD2tLgzCz8C7x43irIwg5qRnQeDjiHx6lOF0gcLbD5oCHNAec49YCl24OlKq3BfQQ35dbxe+9e8Xvz4fx0b7R+NeOycdvC3hyTW2T2wBsDrA5wObAaR8HwNNrbUq/BLliQIJ81CfZtnhUiu2L6AzcGrsTnRgCEHlqADBDuhLzpRcxT/pCLORlTt8AcOfgwRkCgEXtsCvpYuSoAcAhBgCuFABMy78ZswsfwgGrBiX1O8XaXO8WAcAfAwFHHICi+i04XGeApfIzaMtfx8LifphX9Bh+KbgHMwruxPSCW8WPa4/GHycGAG3ZHHDKWwtcKQBws+bALyW98FXek/jkgA8izHEI0GkwYP0RPLuu5PhtAZ4YAPDWAjYHWqo58Gy8Hf3i7dbhKXaTb4p9aUAqHg9Kx22RFlwi5gJuQ0SeFgD8JHURy/87mCv9jF+9KjBXLILHhgu8xzUH6he1w9a0S5Fh7oSZh25o/DT1z8eZQwJ3Dg6OV/8dp+Pf7Kj/LyzqhzL7HtgV9/j0/8+oIYANtY5WgHqLQLFtB/Lqs5BT/b3jasFFxf0xt+jv4tdod0c7YlpBw/yxGdAwx65VPDY/n3ZuPr9hc4DNAQ9vDvzSeFvAzyV98H3Bg/jq6JOYuuUdjM/+FgMSDoolqFws2/Wt0ghgc4DNAQ9qDijPrLNbn11nLx+WaMsYkWRb4a/FY+F69GIIQORpAUCc1AWzpQ/EzBFLv/MHAAweWjwA2Jx+KUwZDABcKQD4oaCH49P/pcXeqLQfhqI449V/LdsLsMqVqLLnY1ftKmys/gXrSiOwvMRH/Lg8jJmF9+Hnwj6YXthL/FjdLOYmBgBsDrA50ObNgR6OkOKn4jvw7p6xeHXrm/BJM2FI8g48s64ET62tPH5bAAMANgfYHGie5sDT62z2oUny4eFJctbIVPvoUenoG52OzlPUqwIBL25GRJ4QAMyVrsZ86UvMk5aLpb/qpACgqcNF3mWbA3WL2yFXezl0lisxQw0A8rqd++R3Y3DQCvNDfsN8L37Mp+f3QULpeBjKP4RVKfGw5f+3EEC9RUC9QUA9ALFGzkeFvB/7rYnYUbMQieWTsKp0jOOmhB8K1FZAt8ZmQLeGEKWwYf5wZkDRqefnc56bm2dcODjwxAbBL78fNgd+dzaA+t+8RfzaVq/4vA+fH34W/9nni/CM+fDXJYvFpkIs4M4RArhrcOBSDQI2B85/Gm4JsD0Tb68dnGjfOzTJZgpIsQeGptqe8lFDACLygAAgTuoqlv9vMVdaLRbjarcPABg4nDEAyNZ1QnpmZwYALhAATGsMAH7OvwOp5W8gq/JbsfyWeWgA8EfqOQjHzgowVXyClLJXsaD4acwpegQzCu5uDANucQQCDAB4awEDgLZtDqhBwI9F9+Dro//E5I2fIjJzFgYl7Ua/9fliaakWS6rVsRQzAGBzgM2B8x/1kYCBifaaQUn2Qz4a+U1fjT04SI8bY4w8HJDI/QOAudK1+FWaIyZdLO+1zRIAsDngsmNd1A5mUyck53bGz00NAJo6HhscNC1AOPbjoQYAM/Pvx9aauThoTYNNqeXmf8qzAkpRoxSgyLYZR+qNsFT9H9IrXsevRY85HhFQD1E8qRFwmlsEfipqmOlNHAYHbA6wOXD6RsAvZbc4zgdQ2wDf5j+Cd3eH47Wtr8E7NRsDEveLpdiKf66yH5/Hj42LNgTYHGBzoM2aA2oIEG9X1EcCBiTIhQMT5R2jUmzvBqbZxw7T4EqGAETuHwDMF2NgAMDAwbqoPYzmTkjcoAYANzIAcIkA4Cb8UvAAdtesRL4127Hw0ukeEpBhlUtRaT+IrTULkFX1DVaUjMKi4ufFj+FfMaPgHkwv6NVwnWDj+QoMANgcYADQNs2BGSW98d+D/fH+nkAEGVfCJ92AZ+Pz8dTaMrEk1+Gfq2wMANgcYADQDAFCv3i7MiDeXj4iTZ7hm257z2ct+visQVdJo+nAcwGI3DEAmC1dLxbNlWIB3yCmrk0DADYH2nxqF7dHuuVKrN10FX46fKPj0+UzzTRnGQ8JDn679u9YANAdcwr+jiL7ZliV8sZn4enPQgDHRYJKpeMGAfXQxBLbTuyoXYTc6mlYWeqPRSX98UPeLeLH9kbxY9wwP5zwY98SzYDmDxAYHLA54NrNgYbbAnqLX0d34Nu8R/H5of6IyfkcYeZ5eHZdUWMbwHZSI+Bsh8EBby1gc+B3zYG1NuW5eLm8X7x82DfZPtc/Tf44KAE3T43HpQwBiNwtAJgn3SAW1DVikd4spp4BgGc3B9QAIDXzSqw+FgAc7dYweSe8MgBwigCg4RC7m/BjXk/MK3gcpfbdsDmu/2MAcC5kxY56pRqHrQbsrl0NTfnLWFsajl8LH8UvBfc7zgmYXtD7+O0BDADYHGBzoLWbAz0ws7in+H13P97cOhWTcz/D0ORNGLD+gFha1JsCasQyb2MA4CIBAJsDztsceEbMs+vstSOSlDRfjTzPJxGPBiTi1r4aXCSmA7cmIncJAH6RbsQcrzQx+/Grl00MTjuuGA6wOXBOU7O4PZJyu2D59q748SwbAE0dBgdNm98++b8RP+T1wNzCf2JFsT+q5aNc/s+jF6CenaAGAbVyIarkQzhg1WJnzUpoyl/EmtJgx0GLP+T3aPz1e+Nvvz6OBQKNc/yqxmOHCJ5pilpnGBywOeC6wYHaBOiOGY5DAu/GdwUP4OP9wxG7MxJ+6SkYkrwJfVfXNKkJwOYAmwNsDvyhEaCeC1D7zLr60uHJ9tSRyfa5Qan1f5moxQ0+cWjPzYnIHQKAOVI3sfzrxBwSS76dAYBnNwfUACBhQxcsPRYAHGsANHXYHGiRAODYEqrW1BcUPoc1JWGolvO5xzdXKwA2lNbvQV5dNjIq/ou0sjewoOgZzCl8FDPy78LP+X3Ez8UtYrofPzSQAQCbA2wOtM7MKOmJb44+is8ODMJY8xyM1q1H//hDeGZtseOxgMdX1TMAYHOAzYHzuSFAvSpwnc02LFHeNTzJrh2VbB8SnIwHRq9Bp5g16MjticjVA4B50k2Y0y5HTCl+bSeLwenHq2njbsGBMwcI59kcqF7SHms2XY24ndfihyM3iOX9xjMu8q09rhIctFSAMC3vtwDgp7zeWFMaivTyt1ErF3Nzb9YQoB52WB3nBNQohcdvDzBXfoKU8pcxp1C9SvAuxyGMf9YIOHZo41kHAmc7ThccNFOAwOYAmwNnmJlqI6CkJ34uuQ3f5f8VXx55AlO3vI3x2d+gf8JBscCUn/MjAWwOuO+hhS7VHGjlAOHPgwAbnlon1z+zzl49KFHeMiRZSQpMtT8/Vof7fTbjQm5QRK4cAMySbhbL/0YxFWLJVxgAeHaDQA0AVm26GvN2NQQA3x29UUy3P8z3J7y2yLhBc6BFA4CjjQFA/m1YXzIehvIPUauUcGtvsQcEfrs9YHP1XFgqv8Sy4hFYUPQsfsn/C2bk3y1+bm51PCJw/PYABgBsDrA50OLNgZkl3fFj0R14d1cYXt3yOkakmTEoaSeeWlsqFqkqpwkCGACwOeB6AcDxNoA8KFEuGZIkb/dNkseN1tgH+aShayAPByRy0eU/VmqHWdItYrnfJcb258v/+YzX+Q2Dg1ZrDlQtae+o/8/edx3+n72zAI/yStvwlIRSBVrc3b1AKUVKW2gLdaHe3Xa77b/brRtSCsHdXeLBggUCCRaCB0gg7u7uMj7Pf75vZpJJSMhkMpN8M/O+//Vcw98uIRnpxXOf+5yzu9IAMDRkDpgCHHDFnwcz7NE+eyhulixDaLkTpKoSauomhgDq2wNKIFEVokSRgjx5BP/c3y5diyN5r2J/7nPsNe7Fv0a7stW53wzQXOWYq84+PUPgwLTgoDkBApkDhoKD3hojoA97zw3BntyR2Jj6KlYmfIIvbx/Dh9eu4UWvMkGZAAaDA9p6QOZAM4IDDgK8dFYum3VBlfbGRVXgRz6y/35xWfHmtwF4jNoUDY35AQBbOIn6wa1FAouSAACZA2UnbHEsqgOcOACQqSmaBqcZzIEHGASWAAB26wCAHezRIXsY7pSsQ2T5IchUpdTSm3AUKikkyiIkii8govwgvAu+hkf+e3DNGQ+nnJHYl90Pe7P78Dc17CIAQACAzAGTmwNOhZyFMxJb0qfix6At+PrOYcy6kIgZZ3NZkROzwiklAEAAgMwBgyPHzPMq6esXVVnv+shXfnBJ+d1Xd9Dj2wC0EdmhBbUqGhpzKP8QPYQtotZwFI1g5T+ZBaYDAAQOzAUclJ6wxeGYDtiX0plfxa+r3O/SeTR+yBx4EDioAgBd4ZA9AmHlbkiWXIZcVUGtvBm8ABl73qWqUpQps1GoSEKM2APB5fY4VfAJ3PNf5Q9q5F+zOoyAqmsFGwYECBwQOLBGc+A+gKADB5w05wM4FvbDrpxR2JY5EQtifsIvYSvwxoVYTPfOw5QzMkxmRVobc7YDCByQOdDU5gB/LoC3XPnqOUX+zPOK+I98lSs/u6z87vXTeIogAA2NOQAATv/fIXoKjqLRrPynEAAgAKAFAAdjO2JPapcHAgDTpnudaY6zB4QEALSH/3HP0/bMrnBkf8mNLD+CNIkff2AdTXOiABXkECNDEoCEivO4VPw7vAr/BbeciXDKGQ377EHYl92/0gjQ3h5AAIAAAJkDxgEANWOfPxCrk97Hopjv8NG1K3j7UhhePlvAikwpK8lyAgAEAMggMMQcOKvAK2cVqtfOykve84Xb7CtY+f456eDZXuggAmzoXAAaGiEDAHeRjfoKQNEkVv5TeQBgaAQHDujQQkPAgYql5IQt3OI7YWd6V+zKYEVTnzSg3JvcHNDjEEFzNQe4r7mzBgBwyn4GqeIrKJLF81fX0TQ/BuBAjBwVECtzUapM4+2M6IrjuFD8P3gWfoS9WQPZa9hTfU4Af1ZA9wcCAVOBAQIHZA5YujngWNCLvTcGYk/uMGxKn4ZVSe/hX3cO4OPrPph2pgSTPeUsiuo5rV8IHBA4sGpzQL0lQDX9rLLklXOKjA8vKdw+4WwA34ruv9zEo6xlEASgoREkAOD2/+8X9WKZCtcWaQQArBwAHFIDgGIOACSoAcBOEwAAMgcaCQAydQBARlc4Z49FuuQWSuRpfPWkEdZwVwnmy2KRIfWHX8kKXCr6FQdzp8ElZzwcsofAPlsLA3pUggACAAQALM0caG6DwLGgN/bmDMG2jIn4KXgN/u3vjFnnEzDdO4eVwgpWfKUEAAgAkDlgQF72VmD6Wbn4PR/V5dmXlPtn+8ie/dQHvWZ6odVsd9hQ26KhERoA2C1qiUOiITggeo2V+PRGAQACB+YPDlj5lxxqgVyPlnBN7IwdrNjXl52NjQEl3zQGgXmYA1oAwJ3+v4MDAOnd4ZI1AfnyWMhUYn71mUaYEICzArhrBMuVWciUBiBJfBG+xXPgVfg17LOGste3d+X2jsr3QV23B2ivFdQmV1ghcEDmgBBNAO66QMeCvtiVMxLbMp/Dwpjv8FuYHd68EIUZ3tnVIYAhOd2wWDxAIHDQ5OCgWQwC9ZYA1Uteiorp3or8d33kPh9ckjl/cgnDvrqKDnagcwFoaIQFANxFD7PyPwz7RbNYGc8gAGDdAIBb/ZccboHcky3hImAAYK3mwC4dALBDAwB2ZvSCW/YkFMoToFDJqGmbwXCWRqk8A3myKNwt2YprRQtxKHcGXHMmwiF7qMYI6KU2ArTvB83WAAIABADIHDBO9uUNwNqkt7E45ht8fM0H71wKxsveeazQlGBKbdsCCAAQACBz4IHA4UUv/qpA2dsX5FHvXpD7vn8Jr86+ghFfnMPj3wagJbUuGhqhAIAtolZwE41n+QCuLTKbBQBYHEAwX3DAAYDSY7bIONNKbwDQ2JA50PBUAYCesM8cCfecWShVZFCzNjMIoIIMElUxKlR5yJOGIk1yAzeKl+JC4Q9wzB6DPVkDqg581L7+2rMCKs2AHnz21pF99cVSwUETAYQmBwdGAgjNCQeEYhCozwYYgD25Q7E5fQpWJ72Ff/u74NMb5zDtTHHtZwOYKgQOCBxYjDnA3RCglL58VlH69kVl4Hs+qjOfXxZP+fqmpP+3uwkC0NAIAwB4iVrBUfQcnEUfsTJNAIAAAIqP2yLNyzIBgLmbA7pfczv3Z2exv8RmjsPRnHdQpiQAYL4wQAmxIh/F8iQElznCr2QNjua+jgM5U/krHu2zB7Py35t/vSshUOVZAQQACABYkDnQDLcWcGcD7MsZiO0Z4/FLyAp8G2CPWefj+bMBXjhTwQqplAAAAQAyBxqYF70VijcuKLPevqgMftdX+tkHF8TTvg1Amx9i0YoOB6ShaW4A4Ch6hD8AcL/oC7i2yGJBnTFHOEDgoEFRHnoIBSdaItn7EThzACC9W5NAAOs0B3QMAj3NgZ06BsB2/vf2wcGc6Tid/yXKldnUpM0cAvB3B2iMgAJ5DDJlAbhdsh6+RXPhkvMc9mUP02wLqN8IqA8M1BcCBwQOrMUcqDoboI/6bICsCbCL/QZ/hC/Amz7hmHE2s/FnAxA4IHDQHOCgmW8teNFLoXjJSy55/YIq7i0f1fVPLkjf/9JX9pwaAtDQ0DQfANggehQHRdNwQPRPuLTIJgBAACDPoyUSzxIAaE6DoC5zoJoBkMEBgL44nDMTXvnfoFyZQy3agnCARFnCb+uIKHdHQOl2nMh7D4dyp8MpexR/c8DurD6acwJqNwIIABAAIHPAsNjnD8Ca5FlYHPclPrl+Ae9cCsTLZ/NZoSk1/GwAAgAEACwUANQLCLwVqtfOKUtfP6dMfPeS7JfZvtIPvjiHjty5ACKQCUBD0zwAYLfoMbiIZsFV9F+4tMh5IAAwNAQOzAYcKA49hKzTrRB78TE4JnbG9vRuemdHzRA4MLo5wH8tzffDPee7M/rjVN6n8C38ExXKPOrNFgYBuLsDpKpSiFWFKFYkIVceioDSHbhabAe3nEmwzx7RZEYAgQMCB9ZiDmjPBtjLnw0wFauT3sHXd/bj4+sXWZkqwSRPOYuiWgRpBxA4IHAgAHDAGwLectWL3nL5a+eVGbMuyEM+uoz/fnENb35xLutxamI0NM0HAN6Eq+h7AgAEABSHWvAHAEb7cACgCwEAIZoDOgBgT8YAnM77J64U/gWxMp86swXDALlKggplAWIqTiKobB888j7C4dxX4ZQ9mr85wNRGAAEAAgDWZw70Zp+ZQdiW8Sx+DF6Dr/1d8Nr5eLzknYMpZySsGMsIABAAIADQABAw47xS9toFZfa7PspV7/sq//fZLXRnaS2yo2sCaWiaFgC4iB7nbwBwE/3GynquSQAAgQOzAQfyQy2QcqYVwn0eg0NSwwCAoSFwoL85oAUA3PezLb0r9mQMxPmCn+BXvJa/X57G8o0AmaoMUlURShQpyJNHIKhsN26ULMP+nBfgkD1aYwR0xc6sbrwZsCtbnUojQJscdfY2ARQgcGCO1x0SOHDM76VJX/YZGomtGc9hQfQP+CVkGV67EIsXvfNYmZbdZwMYEksFCAQO6NDC6mcFyPGil1z5yllF/mtnFXEfXlYu+eyq4pvPvNCaGhkNTVMCgO2iJ3BA9CHLH3BpkUcAgABAktcjCL30OAEAgZoDO3QBQOYg+BT8jjvFmyBhpZDGekahkkCiLECc2Ash5U44lfcZ3HNfr+WMgG7VtghUbQ0gAEAAgABAQ7IvdyBWJL6LBdH/wQdXr+J1n3BWZgpZ4SmrdVsAAQACAAQAagcBL59VqF45qyh+z0fp+MEl5ZKPfNDv02t4ikwAGpqmAgD2oifhavMPVrj/hkuLfEEBAAIITQ4O5IdsEHf+MQRefRIOSdwZAF2bBAIYBRwIFCAYGxxsz+jKZysPAIbgRuFShJQ4QqoqoVZshVaATFXOv/YlilTkySMRUuaEWyVrsD/nJThkjeWNgB2cEZCpBQHqx93a1DAD9uboGzMBBwIDCAQOzBkc9MLe3IHYnTMMG1JfxvKED/HFzRN4//JNVgbLMOmUou54miYEDswUHFjx1oNplYBArpp+Vln8yjll6vsXFbs/8VX+xR0O+O1utKR2RkPTNADgK1aY7QgAEACQcQDgwmMIvPYk7AkAmAEAGAq/olUIK3XjD4ujsWYjQAaJshgJ4gsIKz8Az7x/4Ejum3DKGgOHrKGs9Pdh7x+NEaDdYsLDAM1ZAQQACAAQANArDvm92edmGDanTcZ/7m7FP24ewavnkvGSVx6mnJJg8ikZAQACAAQA9AAB07wVeNlbUf6ej+rM7EvK3e97S0e+d7a8yzRf2NINATQ0pgQAbqLWrCz/l2UVXFoUsKDBsSRoYOXggAMA4Rcfx63rrbEvsTO2pXWtO+nVs/2+EDgwBTjQPr9b2WuwN2MY7pZsR0z5SX5vOA0ZAVojoFSRjnx5DMLKXHGnZAMOZs+AU+Z47Mzqie21GAG7Ks2A7urUPDOgnhA4MDOAIDhwYCSA0CTgoBcPAezz+7HPzChsTZ+EPyPm4PvAjXjlXAorN8WYfEr+YCNA3xA4IHBgweBAAwNUL3kpyqZ7K7I/uKg68vEl5YZPfdDrd7omkIbGhABgt6gNK4v/Y1kD5xaFBACsGwBID1cBgL1JBACEDwCGI7BkN+LKz/DFj4ZGO0qVHFJlCZLEvogod8eZvK9wLPedWo2AnTpGwM7MGmcFEAAgAEAA4IHZmzsIS+I+x9yI3/Cu723MPB+LaWeKWVGrYCVeTgCAAAABAD2sgRfPyCXvXoTf+5dwdLa3fOIX59BndjgetgOdC0BDY3wA4Chqy4r/r6zIb2YpMggAGBoCB4KL9JANgn2fwHW/NvUDAEND4KBR0T5vW3gAMBLh5QeRIrkGuUpMrZemxnDXB1ZApipFqSID+fJYHSNgOpwyx9VvBGR3r5Y9Ro65gQOrP7SQwEEt4a4LHIhd2cOxNnkWlsT+Ax9du4g3fUIw1bPCOCYAgQO67tCCwYHm4EDVtDNyyUtn5IVvX5JffPeSzOkTXwz++iaepsMBaWhMAQBcW/zOspUAAAEADgAE+j6BqwQAzAIA7MschcjyI0iT+EEBCfVdmjpHqVJAqizVMQK+xLHct+GYNQb2DzICNGcEEAAgAEAA4MGxz+uD7ezztD51Or6+7YxPrp3F9LOZmOZVhMmnpI23AQgAEACwAnNgmpdc9sYFZeRbPgqf9y/Kp8++iKETb+JR/lwAGhoaIwGAHaKnWBmfxwrsLji3KG5SAEDgQHDgQHLIBgHXnoSvf1vsMRUAIHBgEDjYrkkVAOjCA4C48rPIloSB1TtquTT1TG1GgDPulKzFgeyX4Zg5lhX+Hs1qBBA4IHBgvuCgF/seerPnrR/7DD2DjWnT8EPgGvzrtite9MplBVqC51k5f1AmNXcIHBA4aPbrDuV48YxS+tIZRcmbF+W33/VRHPv0kmzsf26i22x32FBzo6ExBgDYL3oKTi3+YuV/DyvXBACsHQActsGda63h4/8U9iQTABA6ALDPHI2EiovIlUZBCRn1Wxq9p8oI8EFE+SGczvsHjua+2exGAAEAAgCWYA7Y57HPTvYwzIv4ET8GrcTrF8Mx/Ww6K1XlrGBKCAAQACAAUK8JoJDPOqdIffO83H/2Fbz16TWMfesknpztjoepvdHQNBYA7BM9zUr1YlZEneDUogTOrAjWjDlAAWsECCYAAOLDNvC73hrnA57CruTO/EFz+kZQsMACwYH2n+sCAIfMZ5AuuYMSeQZUUFCrpWngcLcGVPBXSKpvDYhGSJkT/IrXYH/2i/z7a3tmD2x7gBHAwQAhAAHjAwQCBwQOGgMOerH0YZ+NodiWORZL4j7DnIhf8aZPMGacTWOlWFqvDdCQEDggcGCJ4ICDAC95KcpnnZWHv3VOfuFDH0z98goGfBuAltTgaGgaDwCWsrgQACAAID5si5s3WuPcXQ4AdCEAYAYAIFNyD2XyHAIANI0a7a0BCeILCCs/gFO5X8A95w04ZI3GvqwhrOz3xs7MntWMgJ06twbs1IAAAgAEAAgAVA+3JWBdyktYGv8RPrnujbcv3cWLXnmsIJWy8i4nAEAAgADAAw8IlCtfO6vMe/2sPOKdi4rPZ1/CC++cKGw70wutqMXR0BgKAJxF7VjxX82K/iGW0loBgKEhcGB24IADAJdvtYFn0NPYldQFW1O7NjxpXQkcmCDbNNE+b5tTusAhfRzyZNGsuJXzq7k0NI2bWoyAUkf4Fa2GW/YL/JaT7Rk9sC2jK3ZkdsOOrG61mAFqIFDTDKgr5gIMCByYGThoIoCgLyzYl9uXvylgc9pkrE58C1/dduNvClBDAEWzhcABgQNzAAfTvBSKl7zkkpkXEPfGRVz77KLija+vYAx3TSA1ORoaQwGAc4u1rOC6EwAgAFChAwB2EgAQOADoCof08ciXxUGmlBAAoDHqVBoBFecRVuaGk7mf43D263DIGom9mYOxM6M3dmT0VIOATB0rILM7f06A1gzYRQCAAIDVA4AqELA7eyC2sP9u/xi0Gl/fdsEr5xJ5G2DyKQkrxDICAAQACADUYQ5w1wS+dk5VMuuCKv59H/z3o4t4Y3Y4nv4yEY+wNvMQNToamoYAgAOi9nBqsRnOD3mw0l5mVABA4MDswEHFIVv43GkLj5B2hgMAQ2M14MAwgFAdALBfp/aCc8YklChSqfzTmGg4I6AcUlUJe5+lIE8ejnule3CtaClcs5/Hvszh7L3ZXf0+Z+V/+4OMAE1215ds/WJ54EBYAIHAganSi32/fdjnYwS2pE/EnPCf8X3gKrxyNhkvnC7G8yelLPK604y2gKAAAoEDgwCC+QMCueqFM3LZq96K1Fln5QGzfRUf/cNXPvlLXw4C0NDQNBQAbIXTQ6cIABAA4AyAC3fa4jgHAJIJAAgZAGxP7QuXjKmsmKVRT6Ux+ShUUoiVhYitOIPgMkecyJ2NQ9kzYM+KzJ7MQdiZ0Qs7MnrUbgRk6hgBmQQACACQOcAZAXtyBmBp3IeYF/ED3rl0C6+di8VUz2JMPlXByr6MAAABAAIAtUGAMwrVDG+F5NWzivR3L8j/+OCi9OMvzqHjt554TAQyAWho9AMADqIOrPjtgutD3nBqUS4IAEDgoNnAQflhW3gHPAX3sPbYntwFW1gx1zdbmysWCg5qAoSqw/+4n4OVoPThOJD1Gr9Xm4amaYYzAsogURWhWJ6MHFko/Iu34ErBAjhmjcPujEFVRgB3bWVm3UbAbmOHwAGBA7MDB+otATsyh2N10iwsivkSH1z2xesXwlnJrcDEB5kADQ2BAwIIFgQOOAjwwhmF/BVvZeZr3sqQj3wV//7ymvy1NzkIQENDoycAcGmxB64PnSMAQACAAwBn7j6FQ+EEAIQNANhfttNH4lDWLJQqMqiX0jQ5CJCrJKhQ5iOq7BjuluzEsZx3cCDrRezLGoY9mQOxkzsfIKN7rUbALh0jYHcmAQACANZtDuzL7Y0tGc9gTfIMfOm3H7OvXMRLXpmYerqo/i0BBAAIAFipOcCdFfCyt1I2w1uZ/d5F5RIOArx1Hl1n++IJMgFoaOoDAC6ijnBs4QSnh3zh1KKCBQ2OOUMDSwQIjQQApwLbYX9kR2xP6oItKV3vT6pxYy7goLkBQuXhf6nc1owecMyciKM5s1GmyKQ+StMsEABQ8jcGiFWFKJTFIUtyFzeL1+BCwW+wzxyDnRkDNFtXmsEIMDJAIHBA4MB04KAnDwH25vTDlvRxWJs8Hf/nvw2f3zjGSk4hJp6U8TZAQ2I0c+CkQh0CBwQOBAgOpp6WY6qnTDndW5n76lll5PsXZL985qv44ItzeJwaHg3NgwDAXlEnVuKd4fzQZTi2EBMAsG4AUMYBgKB22B/VEdsIAAgXAKT1hHPmJBzP+QhlyizqojTNDgOkyjKUKrIQVroft4s34lDO63DJmoy9WcOwO3Mgfz7Adj2MgF2ZzQQECAAQAGh2c6Aney56sc/JcPwWOh//CdiCV8/F4EWvbEw6WcHbAAQACAAQALjfBHjJS6Gc7q3If/eCcsMHPsqfP/NC93+dxJNkAtDQPAgAOLfYD+eHrhsMAAwNgQPBgQMOABwLbg+n6E7YltSZFf46IIAhIXBgHADAXpOtKb2wP3MGTuV8hTJFNvVPGkFAALURUAKxKh/5smikS27jetESnMv/Hnszh2NHRp8HGAHd77sx4EFpdmOAwIF5gAOBAQS9bICc3uzzMJS/LvCvyP/g52A7vHIuDi+cyWflXtpgG4DMAQIHlg4ONNcHKl/yVhTMOKuIfe+S8s9PLis+4bcD0NDQ1AEAnFochPNDNwkAEAAoc7fF0eD2cOQAQDIBAKECAO4KwP2ZM3Eq5xuUKwkA0AgNBaggURbzN1QElTjgZtFKHMx5Bc5Zz2FP5mDsyujPnw/AQYAqI6D7/cmqMgN2EgAgAGAVAKAqe7L7Y0XCW1gQ9Q3e9b2K185HYIpnseaAQBkBAAIABABqQIBp3grVS2cVhe9cUG59/5Lyj9kX0PMzL7QmE4CGpiYAcBR1ZsXfHU4P3WaPkiYFAAQOBJfSw7Y4HNYe++I6YUtyZ75sNjRbKiNMcNBsAKGR4ED7ddQAoDeOZL2Ds7nfo1yZQ42TRoAQQMmigERVjHJVLnKkYUgRX4NP4Z/wzPsSu9MHsfd1j6rDLjkjQAMEuPMBKrcEGDnmAg7MDSAQODBFuFsC+rPPxFCsTpqJRTH/0LkloNykJgCBAwIHZgwOlC+fURTOOKOI/+CScv6nlxVfvMVtB6ChoakJAB46CoeH/HkA4MiKYG1x0nkkAGDRAOBgWHvsIQAgcADQB0ez3sO53B9RrsyltkkjeBhQrshDgTwe/sVbcblgAdyyX4Bj5ljsyhiAnRl9q4wATWo1ArRnBeg81hqdswQIABAAMHdzYG8Od0vAGKxJno4v/dww+8oFvOSVhamni02+JYAAAAEAcwIAWggwzUuheslLUfTuBeXODy4p573piZ5v0ZkANDQ6AGC3qAucHjoB54fusYIvNQsDgMCBSQGAW0QH7EzobDAAMDQEDh4MDrR//iYeAPTFiZzPcDF/DiqUedQwacwAAiighAwSZRHKFdn8+QDxFd7wzvsPjuW8j53pfdXAq/L6y258dugeFviAYm/qEDggcNB84EB9OOCe7L7YnDYOqxOn41v/HfjsxglMOVWIiR4yFrk6ArICCBwQOGiuTFFHyUGA6V6K+Pcuyf/85LKUzgSgoakGAJwf8oDTQ4E8AKjLADA0ZA6YFQAoOdwSbpEdsDORlf/kLgQABAwATub8A5fy5xMAoDFLGFAsS0W2JAQ3ipbjfP5P/PkA+zJHYldGP+zM6M3Kf3c1ANAaARnd1THECGhoagENBAAIADS/OdCTPWe9sC19BH4J+Qvf+m/FK95xmHY6B897VGCihzBsAAIABACEAgFe8FKoXvTizgRQbH3/kvyP97wqus92z3mCTAAaAgCuoi6wf8iLJZyVZKlZFHkCByYDByWHbeEY1QFbkjpjc5IGAuiblOaJtYAD7fe3iT3X21P6wTP3G1wuWAyxMp8aJY3ZjRJyKCBl798ClCoykCS+hMhyd3jkfIqDWa+w8t8LW9K66BgB6uzI6IqdXLjbA2pN85oCZA4QODDtdYc9+S0BO7KGYXP6BMwJ/xHfB67EdO8UVnhK8JyHjEV+XybWFwIHBA4sEBxoTYAXTysKp59WxL7ngx8+8cU7X5zD49QAaawbANiLusLhIS+WcFbwZUY3AMgcMC8A4N6yCgA0pPwTAGhiANAfp3P/D1cKlvIFiobGvGGADHnSaKSK/XCp4A/23v4SDpnjsSdjGCv7fVjp71UNAOzQAIDa04izA8gcIAAgeABQlV3ZA7A07gPMjfgeb/ncxitn41iJK2WFVnwfCCAAQADAWs0B3gQ4o1C9eEZR8PYFrHnfB9/P9kXn2TfxKJkANNYNAJweOgfHh6JMAgDIHDCbKFxboPBIS9hHd+RLpqEhcGAacFAdAAzA+byf4Ve4DmJlITVIGrMfzgaQQ8xvaSlWpCCm4hSCyvbhcPabcM6chG3pPXgjYGt6Vz7bMtTZronWCKjbDKgv+h0iSOaAtVx3aAbgILsne68MYO//4Vge/zbmR32Lty/exiveCawki2s1ARoaSwMHRgcIBA7MAhzwJsApufJlL0XeDC95xHvesi8/Oy9/mYcANDRWCwAcHrrAEiMoA4DMgSaP3LUFCggACBoAbNYAgB0pA3Au7zf4FW6EhAAAjcXBAAkyJHcRX3EOXvncIYGzYZ85BrszhvBbAzgYUBMAcIcF7qjTCtAnZA4QADBPc2BPdh9sSpuAlQmv45NrJ/C2z0284JmDyafq3hJAAIAAgLWZAxwEePGMQvHSGUXOO+flf39wQfaPNz3RfqYXWlEbpLE+ALBT1A3OD/nA6aE4OLSQU5G3XnAg2W+D3GMPNxoAEDgwDTjgDv/jwwOAgbhUMB/+xTv4U9VpaCxrVJCrJJCpylGmyEKBPA4hZc7wK14D56zJ2JMxAlvTuj3QCKgNCDTOECBzgMCBUMFBT/Zc9sbOrP7YlPo8Via8iS9uHMb7vlf4LQHGMAGMDhAIHAgq1gIOOAgw1VOhmO6tzJjhLb/3oQ/e/PoKxsz0iiUIQGNlAMBZ1A2OD/myJLDyKRwAQOZAk0alAQA5xx7GvuiO2MhK5kZNMd9IAEAwAGCjFgCkDoJvwQLcLd4FiaqY+iKN5aIAlRIyZRkSxBcRVn4Ax3M+woGsV7A3czh2ZQzkbYCt6d1MYASQOUAAwNzMAfWWgM1p4/HfgA344sZBvOyVwgpPASvjUgIABACsHgCoIYAcL3mpJC97qVLfuyj77uNLitdneqH1NF/YUiuksS4AYG9zHfYtUnkDwIEVwoaGirzZgwMOAJQdtEXmiVbYF9URm5K63J9kYcZcwEFjAUIljGGvxc7kwbhSsAyBxU6QKkuoJdJYOgaATFUBiaoExfJk5EhD4Ve8DhcL/oB9+mjsTOunAWW13RrQrVoMKflkDhA4MBdwsCe7J3see2NrxgisT5mMHwKX4l+37fGCZy4r3pJmtQEIHBA4EApAmOwpxxRPmXy6tyrulbOqK+9dkD331RX0IAhAYz0AYK+oOxxtrrMizwEAhdkDADIHDAMALi1QetAW6RwA4AwAVjLvS7L+IXPAxAAgZTCuFqxAULELpCoCADTWAwK4rQHlyjyElx7CnaLNOJQ9iz8kcHfaYOxM68/KfzejAwAyBwgAmJs5sIdle+ZgzIv4L34MXILXzoXjxTMZrERXYIKODTCBAAABACs9e2Cyp1z1sreqeLq3KvqtC4r33vfFuGm+eIRuBqCxHgDgYHOTFfl0gwGAoaEiL5gonVug+FBLpHo8gr06AGCTzqPBEag50GCA0MzgQAsAuNdjR8oQ3Cxch7CSQ5CqSqkX0lgVBOAuDuTe92JVAXKl4UgVX8elwnnwzPsXdqYNxJbU7vz5AFy2pXXlUwkE0rupowUC+kYw5oCOQSAAc0AwAMFqwUHdAGFPdi/syByMzWnP4K/If+Pn4AV45WwsXjid32xbAggc0HWHQgIHkz0Vyqme8opXzyluzTqvcP/0vGTAn9fxJEEAGusAAI42fqz8Zlg1ALBy4MABgKLDLZFysjoAMEoEag6YEwDYpAMANmgAgF/hBoSXuBMAoLFiFKCEWFGAInkS/Iu34XLB33DJegH7Mp7BzvR+rOj3ZuW/W7MBgKY2CJrDHCAAIFwAoM2urP5YkTATC6K+xDuXruHVc5GsBHE3BIj5WwImnJBXj4fOYy0hc4AAgCWZA5M9FfJXzyqSXjsnv/HeeUz60he9aSsAjXUAAAcbf1bIc5ocAJA5ICgAkOf+MBJOPWoUAEDmgPHBQRUA6MwDgNtF2xBZ6gGZqoyaII1VQwAl5JAoi1GuyEGa5BZiK87gdO7XcM9+C1vTemNTKmcDdOVTeWuA9qwAVu6319gmUFt2GhoyByzi7AHzBgccBOjL3ueDsTJhFhZEfYU3L97CdO8EVjLFFmkCEDggcKB32M85+bRSNtVTUTjrnPzoWxfl62d6lXYgC4DGsgGAg6iHDgBQEgCwTnOAAwC57g8j3kgAgMwB4wIAXQNgvQYA3CnagajSUwQAaGg0w4GAYlkqsiUhuFy4EF55/4FDxgTsTh+O7WmcDdDTLAAAmQMEAExhDnBbArjtAKsSXsUn147jLZ+bmHoqH897lNVuAjQ0ZA4QADBjc2CKp0L82jm536xzcvf3r2DAZ7fQWmSHFtQUaSwZAATAvkUui5IFdcYc4ACZAwZF4dwC2cdaIfbMY9gd3YFfZa6Zpij9ZA7UDhDUAIC9BixqADAU94r3Ia7sLH9XOg0NTRUEUEAKsTIfJYpUxFR4IqjUHgeyZ8IhcwK2pvbAZiMYAfqGzAEyB4QTzgTgzgXoh/Upz2Np3Fv46OpJvHHhNit5ZRZR5AkcEDhoBDhQTfVUiF84pUh/64JywQeXFP946ySepKZIY7kAwL7FXZY8AgDWaw5wACDrWCvEnNYAgMTO92VjYpf7k6TzKJRYijlQGwBIUgOAnSnDcK/IAXFl5yFXVVDro6GpZRSQIENyD3EV53A67xscyX4PezNGYlf6ILUNkNbdogAAmQMEAPTJ7qwe2Jk1ABtTn8XXt3fg42semHY6A5NOFhvHBDCyQUDmAAGApjIHJnMmwClF8evnlbveuaicN+sMOs/0QitqizSWCQAcWoSwFNcLAAyNuYMDIQEEE5kDHABIP94KkV51GwCGhsyBxkd9/V91ABBU6oqECl8CADQ0D4IAKgn7jJSjVJ6BfFkU7pbsxtXCJXDIGI+daYOwJbVbNSOgEgSkd1PHyECAzAEyB4RwaOHurJ7sNe/D3vujsSrhZfzjpjPe9z3PHw5ojVsABAMOzBQgWBQ4OKlQvuSlyH/ZSxb+njfe+scFjJnpFUsQgMbCAMBuUU8dAKAiAGCdBoHCxQZpx1ohgtsCENOxVgPA0JA50MjiX3n9H/dcagHAcASX7EdixRVWbsTU8mho6hmlSn1QYEz5aQSW2ONI9rtwzZyGXWlDsCOtPyv/3awWAJA5YL23FnBbAjanjcT/7q3AP/2c8JJXKiafKuKvCWw2E8CazQECAIIwB6adUchfPKPIeP2c7L/vn5fMeuUcHqdDAWkIADRVCBw0mTkgd2mB1BOtEO71GHbFdNC/4CfpPBo5ZA5UBwEbNc/1Ov4MgOEILz2CVLEfAQAaGr1HxR+aKVEVokAWiwyJPy4X/o0zed9iZ+pgbElRnw/AZWtqVz7cFYLqawS7VUvN6wSFkp2NDZkDVgcOOBtgS9owrEmcjG9vb8anV4/wEICKPIEDawUHmu0A0le8VcGvnlV5vnsGA//FnQdAEICGAAABAEsyB+QuNkg50Qph3hwAMK4BQOaA4eaA7u/ZoAMAdqaMQHjpUaSKb/GKMw0NTcNAgERZgmJFGu4V78HVgiVwyZyGfeljsT2tLyv8vVj570YAwNrMgQcYBJZuDnBfe2vaEPwaPAff3tmMl72SWAEqNC8TgMwBAgDGPTdAMcNblfGKt8r/9dPy52d7intO84UtNUcaywEA+1pEsJSzqFiEAwAIHDQpAEjweARBZx/HzpiOWM+p5jVi1IJP5oBeBkHdAGAkoso8kSEJhEIlpT5HQ2MABFBxxwQqi1GuyEGqxA8xFadxMvsfOJg5k5X/3vzhm5tTu/KpvDVAk22s/G+rAQVqy466QuYAmQMCAwe7snpiW8YQrE+eiP/zX4fPrh/gIcCzrCTXFSryZA5YBECoEwLIFZM95QWzzmPvWxew4PVreIqaIw0BAAIAFgUA4j0eQWBTAQAyBxpmECTpAACWnakjEVN2BlmSYP7KMxoaGsOHuzqwSJaCTEkQLuXPx+mcf2Nf+jjsShuKram9sCW1BwEAMzYHmvPsAXM0B7alD8bvob/iPwHr8JJXIitBhaxIS4ULAAg4EAAwEQDQmADlr53HmVnnsfPtc+jxpS8eYe2JtgLQWAQAiGaRVAIAQ2Pu4MCKrzvkAEDcqUdw7/zj2BndEesTOlclsXEhc8Bwc0D7+zbUBADJoxBXdg45knAoVDJqcDQ0RoAAHEyrUOaiWJGE8DJ33Cneym8N2JM+CptTuvNGwBbOBkitAgENBQL6hsBBM5gDehwiaA3mwK7MntiaPhjrkp/D//mvwWfX3dQmwHH5A22AhoSKvIUYBFYBDmSqqZ7y8hc8ZQlvX5R+9Mll+cRpPASgoSEAQADAzAGATAcA7BAyALBCc4Av/4k6AIC9JrtSOABwHjmSCFZcCADQ0BhvVPzVminiG4gqP4Hj2Z9hf+Zr2J0+HDvSBrLy352/OpAAAJkDlm4ObOVNgJ/xn4A1eOlMEiZ5FNVpApglACDgQABAz0zxlGOqpzz39QvKn9/zUbw7zR1PkAVAQwCgsSFw0OyROdsgyvNR3LnwxP0AoLEhc8AoAIC7/o97XtYmcGcAjEJC+WXkSeMIANDQmAQCiCFVlaJInowsaQhuFK3C+fyfsSttGL8tYDN3PkAtRsC2tG7qGBkIEDhoPDgwjUFgueaA1gRYmzQRX9/ajo+unMCkk0VqE8DQWIJBQOaAVYKD50/KpTNOy0Jf8ZSeefMK+nyZSFsBaAgAEAAgACBsAGDG5kDtAGC0DgCQU1+joTERCJCpJChT5iGkxBU3C9fBLWs67DPGY3tqf2xL7Y3Nqd34QwIJAJA5YKnmwNa0ofgpcD4PAV48nYbnPUpYAZZZLwAQCHAw67MHzBIAyBTTzygyZpyR33nVR/bMuzfQcbY7bKhJ0hAAIHBgtuCAAwDhpx+D38UnsT26I6+Z18z6pg6ZAw8EAMkV11EoSyIAQENjYgjAnRAgUZWgXJWHTMldxFecw6ncr3Ao63XeBtiU0rnKCEhTp2prgDrbK9NNkDEXcNBogEDmQIPNAc4E2JI2BKsTJ+OL68541+cCK0MljTMByBwgc8DcwIGHjDsUUD7plCJn5mnpqre8ZP+d6YXW1CRpzBMA7BP10gEA5lP+CQAYNVKXKgCwLYYAQLOZA7UYBGoA0FkDADphbUInHgCkVNzgTy4nAEBD01QoQIESeQZypGHwLfgbp3O/hX36WOxi5WhrCitJKd2xmZX/zQQALAoAkDmg/t9sTh2G/wSswuc3XDH1VBaeO1FuuAlA5gCZA2ZqDjx/Ul7yqpfC+XUv+ZKZXuhAFgCNeQKAbaJe2NsilkWGPawM7tUj5gYKCBzoBQBCTz+GGw8AAI0NmQOGRbvyvy5JfQPA2vjO2JU8Bqni2yiWp/OlhIaGpmlGyT5vCshQocxHsSIFYWVHcLt4K5wzpmJ32ghsTu6KTck6RkCqOlu5bQLVtgrUSHr1bK8zZgIQCByY/taCpjIHNH/Gjkzu7IuRWBk/HR/4nsHMs/dYWSvHeFbQa+ZZocSCzQEyCJoJHHjIlNPOKHJfPCMPfNNbNv5LX3QmCEBjfgCAMwD2tIhjketV/gkAWCwACDnzGK77EAAQWtTfXye+/K/jDID4TjwASBPfQYk8kwAADU0zDXdQYIr4JiLLPHA8+2Psz5yBXSlDsSOlPytKXQkAkDnQpAaBqc0B9dfuhU2pY/DPG/vw/iVvTD5VwMqphJV+GQEAMgesBQDghTMKCUvCzFOKmbO9MHRsAFpSo6QxPwCwt0WS3uW/MTF3cGApAKEOABDo9TiuXGqNbdwZAPGd9U+CaWOV4EDHINCq/zwASOiENfEdsTN5DL8XuVyRAxWU1MRoaJplqm4LKJQlss9kIC4XLsGZvO+wPWUQNiV3588HqHZGgBYI1AUCGpr02kPggMwBY5sDPADI6sGejz5YnTgJC6M/wMxzdzHVM52VZEmtJkBDQ+CAirygwEHdAEH1/El58WveCsc3vOV2r57F09QoaQgAEAAwSwBwz+txXL70pAYAdKojnXUeCQCsb0oDIKEmALiHckUuAQAaGgGAAKmyAqWKbNwrtsfVguVwzngBe9JGY2tKH2xJ6YlNrPxvIgBAAMACzIGd3PWAqYOxOmEq3vM9i1fOhrCSVMaKs4wAgDWbA2Z82KEBAIA7C6B8hrfi7Gveit0zzqMrWQA0BAAIHJgdOJA42+De2cdx+XJrbInuyO8zryvrjBUCB40CADmSMEgUxQQAaGgEAgH42wKUxShTZCNVfANRZSdwJPt9uGS+gC3JPfizAWqCAKMDgUYCBAIHZA7UZw6oTYCe7P0yEIui3sdvwT9i2ukUVvoq7tsK0FQhcEDmQNNHpppyUlE65aQ86q3T8hf/6YV+03xhS82ShgAAAQCzAgB3zz4O38tPagBApzqzzqCQOWBMALAr+ZlKAKAuHjQ0NEIZ7maOAmkC0sX+OJv3E45lf4K9aaOwM3UgK//ctoCu2MxK/2YCAAQAzNgc2M5tBYifioWRH+HVs8GYcirLaFsBCACQOWAOwGHySblyykl5+kxPxQfvnZKNn+mFVtQsacwHAOxpkcTfAFAzQoYCBA6MDgBun38cF67WBwA66zw2LGQOGAYOKg//Y7+HuwJwNW8APINcaRSkynICADQ0goQAMiggRpk8B/nSOAQU78LlAjvsTh2NLSl9sSm5S6URsLmaEdCVT7MBAWsDBwIFCOZgDnAQYEdGb2xKHYkf7i7AVzd3skKUj/HH5IaHwIH5gwMzLPKN2j5wQlY63Vvp9upZ5fKXj5e0o2ZJQwCAAIBZAYBb5x/H+av1GwCGhswB4wKAPGkMZEoxAQAaGgGPSqWEVFmK6FJP3C3aiwOZs+CQPhFbU/phS0ov3gbgIUClEUAAgACAeZkDW9MHYE7ov/F9wCK8wG8FKMOzx2QEAMgcsArgMPGEvOLlM4oLM84o9s04ia60DYDG/AGAoTF3cGCF1x1yAMDvwhM4d601tkR1xNq4TlUxCgAgc8DQaNV/7XO4Kr4jdiSPRaEsHkqVjBoWDY3wMQCkqjJUqAqQLQlBYsUlnMr5Bgcz38aW5F7YmNQZG3kjoEvlGQGVQICV7S1pVUBA3xA4IHBgaoCwq/LXPbAldSBWJUzC7MsnMfOcPw8BxrFCXzPjTRUCB2QONONZAJNPyksnn5RFzvSqeO7j8+VdZ7vDhhomDQEAAgCCBwBilyoAsDnaFACAzAHjA4AEKFVy6lY0NGaDAZT8loA8aTQu5y/G6Zz/Ym/qWOxIGczKfw9sTO5WCQA2EQAgACBwAKCbHRndsSFlJP55czfe9z2DiR5FrJjLCAAQALAKc2DyKbli8ilZyqtn5K+9e1o6hG4EoLFOAEDgwOwidrLB9QtPwOtaa2yK6og1rPjXl7X1hcwBo4CD+wBAbEfsSByLYnkKNSoaGrODAAr+fIAKZT6KFMkILTkAv8IN2Jf2LLalDMSmpK4sVUbAZu0ZASld1dFuEdA3BA4IHDQRONie0RvL46ZhXvhnePFMLCtXJaz0y2o1ARoaAgfCBAhkDrCcqLxKsHCGp3z9a2dkP06/gDbUMGkIABAAED4AcNYBANFCAgBkDtwPADphR+I4AgA0NGY+cpUYSeWXEV5yGIcz34VT+lRsTx6ALcm9WfnvygOAjdprAwkAEAAQOADYkdkT65NGYknMq3jtnD+mnEpjpVdCAIAAgFWYAxM95CUvnVa4vnJavuzl42jHGtZD1DJpCAAQOBA0OOAAwNWLT+L09TZ6AwBDI3RzwGgGgZEAgfbwvzXsa/KJ64JdSc+iWJ5KDYqGxqxHBZmqAhJVMXKlkUgWX4dX7g9wz/qQhwC1ng1QeWtAA0FAQ0PggMCBAeBgR0ZPbEodju/8F+Ef1/fi+ZP5RgEABA4sCxwIAiAY2RyYeEKmeOGMMnXaGcX1mV6Sfj/E0pWANAQACAAQADAbc8Awg8B05sD9AKArdiVNIABAQ2MxGEAJsaIQhbJEXCtYBe/cn7EvdTx2pgy572yASiOAAAABAIGaA9yBgL+H/B/+478EU05lsMIoNtpWAAIABACEmudOyJVTPBVFUz3loa+fw/BvA9BGZIcW1DRphAsAdrdIYkGDY87QgMDBfQDgss+TOHXD9ACAzIGGmQM1AcDauO7YnTSRAAANjYVBACXkECsLUKxIRVipO24VbcHetOewNWUQNiZ1rWYEaE2Azaysb06t2hpgcjBA4IDAQT3ZntEDm1IGY0XcNLx+4QamnU7Es8fEGHdU3qw2gDWCAzq0sAnNAfU/U070kGe+dlrx9dtn5dNnu+NRapo0BAAIAAgWAFToAICNVg0AhGcO3A8AemB30vMEAGhoLHS4swGSK24govQ4DmW+B8f0F7AteQA213I2AAEAAgBCNAe2pffE2qSx+MD3FF47ew8TjpcRACAAYBXmwHMn5HmvnJH/8eZZ6YfT3PEENU0a4ZX/3aKW2CfqbzAAMDTmDg4sBSDUBACXWuPUzbbYENURq2M71Z84dYQICyzJHNB+7TVx6v3/6+N6YW/SZBTL06gp0dBY5Kh4CCBVlVSeDeCZ8384mPkOK/+9sU7HBNCCgE31AAF9Q+CAwIGxwMGWtAH4I+Rr/Nd/ESadzMbYo/L7Mk7fEDggcGAm4OA5D3nZNE/ViZfPKDdN80R7aps0BAAIAAgaAPheao2TBAAEZw5o/7365+EAQG/sTZpCAICGxuIxgPZsgARczl+K0zn/w57UsdiWMpiV/+7YmNyVBwEbdUEAAQACAAIBAFvT+mJh1Nv4Nfg7TPVMZoWygpV+GQEAAgAWDgBk4hdOqa685Kl0GX+mrLMIdBsAjdAAwBZRK+wRDWxyAEDgQHCpcLLBxUutcbwhAMDQWAo4MApAqN8cUKv/2uetM9bH9cHepKkEAGhorAQCVJ0NkIzAYmf+oMBdKWOwKakvNiZ1UZ8NwB43JWluDODPCOjKZ0tdSTVuCByYGhyYGUDgIUB3bEnri1UJE/H2RR+8fCaKldmKWk2AhobAAYEDoYKD507IVM+fVBRPOiUPffWodNi/TuJJggA0BAAIABAAIADQoKzRZHVcRx4AbIjri31JLxAAoKGxspGrKhBXdgFBxa7Yn/469qU+h80cBEjsyZf/jZqotwZ0xSYCAAQAmhUAcAcCdsO65NH48PIRzDrnx0pZGQEAAgCWDgAw0UMpnXRSGT/jpGzcbC90mO0OG2qdNMIDADtbJGEXK4J1xRzgAIGDRgOAC76tccyvCQAAgYMGgYOaAGBj/ADYJ79EAICGxupGBZmqAmJlETIldxFX7o0jmR/DKf0lVvx7qM8GYNnEnxHAHlk2czaAPkaAviFwIGhwIMStB5tSuGsBv+WvBXzeI8coAIDAAYEDIYODCSdk3FaA7Bmein+/dUY+Y+JNug2AhgAAAQCBAoDzvq1xlACAoAEAdwaAFgCUyNOpD9HQWCUGUKBEloFsSSjO5f6GY1mfYWfKCGxJ6s8bABu0ICC56rDATfUZAQQACACYKFtS+2FBxPv4OfAnTDmVxoqrhAAAAQCLNwcmnJDlvXwav830wgfT3HPoNgAaMwQAhsbcwYEVXXdY7mSDc5db48ittlgX2QGrYjpWJbaudOIjSFhghuCgLoCg/eer2XO+Jpb9RT5hEBxSpqOENwBUeoSGhsbSRgkF+z8pSuVZyJVG4WrBSpzJ/RFbkvvzJsB6TbQmQBUI0NwWUE+2VKarcWKl4IAOLeSuBOzO3nMDsDxuKl7xDsAkj8xmhQAEDiwPIAgRHEzwkJe8cErh8pKnfOnEs3iaWicNAQACAIIEAGcvt4Y7AQACADQ0NOYDAlTqAwIDi11xtWA17NOex/aUYdiY1B0bNDbABg0I2Fjj2kACAAQAmsoc2JrWA6sTxuGN876Y5hlrtMMACQAQABAwACib4qk4+cJpxRa6DpDGugAAgQOzSbmjDbwvt8bh2gCAoTF3cKBJcwMBLcDgnrvVsewv5/HD4Zg8kz8DQKXH/0Hv0NDQmOeoIFEWo1SRiZiy07hbvBf7Up/H1uTBWJ/UlTcCtNsCtEaAviZAQ0PggMBBXeBgQ/JQfHN7JT656ooJxwvwzBH5fTEnKEDggMDBgzLhuFw2+aQ8ZspJ+YVJJ9GVWieNsADANg0A2MmK4E5NAd9JAMD6AICtDgDoSABAsACgqw4ASCcAQENDUzkKlQQZknuILffG4YwP4Jj2gvpcgMSefPlXQ4BOahsgpYtJIAABAAIAdQGAjSmD8cPd3/HVzU147kQeAQACABYOAGSKSSeVaVNOKm48f6yw12x3d7oJgEZAAECIBgCBg2YxAM5cbY2Dd4xoAJgIHJgLQDAVANiSMBxOKVoDQKmTxv0fgQIaGvMfuUoCqaoUOZIIJJZfxvGsz+GSNoMV/57qswESq2yATfxBgeqzAapuC2ieCB0cNBtAsCBwsCW1F5bHTsG8sE8w+WQqK/yyWiGAIbE0cKA3QCBwIGBwIMNzJxTy5zwUCS95yp75x0W0EwEtqH3SCAMA1DQADA2ZA2YOAGx5AHDgjtoAWBnTsKzSeSQAYHwAsErXAEgYAaeUWQQAaGhoah3uvwcV8nzkS2NxIXcuTmT9EzuSR2JzYj/+XAAOAmxM7KTeEpCkBgDaQwIJABAAMFW2pvbAmsQxWBj1Bl44Fc8KbIXRIAABAAIAQjQHJrA8d1yeOvU0nn/DB91mu4MsABqBAgAhFHkCCE0ODjgA4Hm1NfbfMeIWADIHjAIO7jcA6gIA+oZAAQ2NNUAAJWQok+cgTxqNy3l28Mz6P1by+2GNxgRYr2MC8CBAAwOqGQH6hsABgQO9LICeWBU/Hm+cv4RpnjEaCCBvvhxVh7YeEDgwGSw4Ic+acVr6+dtnxVOm+eIRap80wgQATR0hAQdrBgBOtjh1tTVcOQAQ1XADwNCQOaAfANDPACAAQENDU32UKgUqFAW4V2SPK/lLsTvlWWxJGowNSV3V2wG0WwISu/AQQGsCbGwoCCAAQABAz6xJGI13fU5hhtc9VkLLCQAQALBwc0CWM90L37x5Hq+M9cx4jNonjWUBADIHzBoccAZAJQCIYKU8Wo+YqsiTOVAt3J+9kgv//XKHAI6AU3JjAEDTgAICBjQ0whiV5paAEkU6govdcD1/NXakjGTFvyfWJXZWnw1QeUhgdROgoSFzwDoPLWwIAFifNBRf+63BR5cPYMLxwuYFAAQOCByYGBw8e1xeMPmkfOk0T9m/J7ihNbVPGssCAGQOmDUAKNMxANZGNhwANHWsyRwgAEBDQ2OMkasqkFDui5CSA3BOexk7U0azwt+9cjsAvyUgsXOlCbAx+X4jgAAAAYDGAoANSYPxX/+/8cX13XjueD4BAAIAlm4OFE4+KV/3winZD2Pd0YbaJ42AAIBNEgvqj4UXeSsGB2WOtjh5tTVc7rTFmsiOWBGtJwQwJGQONAoAbI0fA5fkt1AkS+X13rqi0sakkIBAAQ2N+YwKMlUFypX5iCs7j8AiJ+xKmcBKf3+sS+yCtdXOBlCbABuTDbcByBwgcFBbNqb0xdywj/D93d8w0SMTY1ihri9mCQkIHBA4YHn2mKz0eQ+l2yQP5fJnj5e0o/ZJQwCAzAGrBwBkDhAAIABAQ9O0o1BJkSUJQ1z5RexPfwt7Up7DhsSeWJegviFAfUuAxgRIapgBQACAAEB92ZTSB39Hvo5fgv4Pz3tkEAAgAGDZ5sBRWdnzHqqjk08q1489UNKe2ieNcADADpskFuidnQ0NmQNCBwe1AQBDQ+aAccFBTQCwLWEsXFPeqRcA6BsCBTQ01ggBJJAoi5BScRPhJUd4CLBJACYAgQPLBwdbUrpjbeJwLIp6DZM9EjHGXcoiqyNydY4YFgIHBA6aGxw8e1Qmfv6k6vLkk0rnCQfKOlH7pCEAQOaAcACAgw4AiBA+ALAWc2CVDgBYQQCAAAANjRFHCTnyJfFILr+BA+nvYE/yc6z4s3KW0FnHBOhSaQLongvwoDSFMUAAwIwBQGo3bEgagCXR0zDlVCwruBUPgAAEAAgAmDkAOCYXT/JQ+E3xUByacBIEAGgEAAAgegg7Rb0bDAAMzU5DQ+aAqcFBNQOAAwBRjYMAZA4YN9z3vCKmA3vsgq0Jz8Al5W0UyVJYgZfrEYVRo1Ip1SFQQENjARBABqmqBInlVxFcfAA7k5/B+oSePARYm1iLCaC9JUDfkDlgFQDBEAtgZex4vOJ1B8+fyMAz7uIHWACGpHHgwGIAAoEDAUABmWyihzLyeQ/F2Ukny7tS+6QhAGANBoGZmAPVDIBwywUA5mYQ6P7e5QQACADQ0JgIAuRIohFffhnOadOxPWk41iV205gAnXgIsCGxCzZwAEDXCNAnyWQOEACoPavin8FM72uY4pGosQAIABAAsEQAIJdNPKGIe/6E3GfSSRAAoBEIBNgm6tVkAIDMAcGmzN4WHldbw/lOW6wOZ2UzSgMBDAmZA0Zd+a8EANEd2PfVBVvZX5pckt9GoSwFClbwtVE2OsYGBeaxtYBAAQ2N+mDAckUe7hU543LecmxKHITV8Z2xLoFFxwTgIMCGekq/QaaAmZgDDQYIBA7qzOqEUXjP5yhe8brFylqpkQEAgQMCB8IAB+OPyRUTPBSZz3nIb004hu7UPGkIAJA5IBjgwBkAlQAgggCAUMwB3RAAIABAQ2PK4a4IjCk9h4BCe2xPHsPKfw81ANCaAEk6JoCpI1BzgACAMQHASMy+dAAzva+y0lVCAIAAgMUCgGdPKHImeMj9CQDQCAsAbLdJYsF9ETIUIHPA6ADg6NXWsOcBQAcsj9InHWsNgQMTbQG4DwAks+Iv0yNyAgUECmho9BgVZKoyFMrjcSTjc9invIj1CT2wJl5tAawzMQAgc8C6wMGahGH4/PoOvONzipWuQoxmBbyhEQY00Im1gwNNLA0c6A0QaocAymePyYsmHJMFj/dAD2qeNAQAyBwQjDnAA4BrrWHvTwBAqOYAAQACADQ0TQEByhU5OJ39Iw6kv4sNCb2xJr4T1iV24iHABs15AJVnASQ2gQ1A5oBlAoDEYfjH9c14z+cYK0kEAAgAWCoAkKmePa4onnBcHjLWXdyTmieN8AGAoSFwYJZbABoOAAwNgYOGgIMVmiyL7sD+fPYXsvhn4MwDgCR+365+EIBAAR1CSEOj33AWQETJSdwq2IbNiYOxKq4T1sZz0TkLgAMBSfWnKUo/mQPmed3h2oQh+NfNVfjQ1w3jj+Zj9GGZQRCAwAGBA4FHxV0F+OxxWdRYdxAAoCEAQABAOLlvC0BkHYnSeSQA0EwAYCyck98hAEAAgIbGJCNXiflrAYOK92NL4jCsiuvIWwAcBFifwIUDAJ00NsCDs1FrC+iGzAECABoA8LXfcnx02ZkAAAEAiwYA44/JJc8ek0UTAKCxbABA4MDszAFdALAqogOWRVVlueBiXeBA+/u512JFVFdsix8H1+R3USBLZn9Rl2oggD4hUECggIam/lFBgVJ5NtLFAdieOBqrYtUAgD8LIKETfyhgpQGgpwnQ0JA5YPngYE3CIHx7yw6fXtmH8Ufz1ADA0BA4sGpwIPBDC1Xjjskrxh2TRRIAoCEAQABAUOYADwCutIb9bQ0AiKzKcmPEKOYAAQA1ABgP1+T3CAAQAKChMREAUEKsKEaWJAzbE8fwAGA1DwA66QAA/QwAQ0PmgLUAgEX45MpeHgCMYkV+lKbQjyIAQADAkgDAcXn5uOOyCAIANAQACBwIChw8CABUS5TOYz0hc8C40QKA7fET4Jb8AQpkSZCrJDqR6hUCBQQKaGjqG+6/KXmyWOxIHFsrAOCvBTS04JM5QOZAJQD4G59e2d14A4DMgSa97pDAQYOiHHdEXjzuiCyEbgGgIQBAAMA8AUADQuaAqQDAs3BLfp8AAAEAAgA0JhruOkAxcmUx2JH4jPEBAJkDZA5UAoCF+OTKnmoGQGPTIIOAAAABgCYAAGOPygrHHpUGEQCgERYA2GaTxIIGx5yhgSUABCOCA1MAADIHjAMOlmuylP9e2F+c4sbCKekdFMgSawAAfSM0UGAuwECpDoECGgsfJeQolKYiqfwmtiaOwsrYjljFyj8HAdYmcOlceS3g+npi1IJP5oDgDYKGQIM18YPxL7+lmH3ZkT8EsFFbAMgcIHAgUHAw7qhcMf6YMuPZYwq/CcfQnZonDQEAAgDCAQD2OgAg3AQAoKnNARPeWtD8AOAZOCW9pQEA4joi0XkkAEAAgAAAjf7DfR6zJRGIKTuHLQkjhQMAyBwQvEHQUADw1c0V+MDXpRoAaK6QOUAAwETmgPzZY8rUCccU10e5oxs1TxrzBwCGhsCB4ABCmUNLHLnSBvtuP4WVER2wNLIqzQkDLMkcMBQg1A4A3ka+NBEypaQy8ppRNTYECix5awGBApq6RqIswb0iF/jmLcfGuIFYFdMRq+I6YXWc+irAtfGdK68DrDOJjQuZA5ZvDqyKG4J/XN+Id32OYNyRguYp8mQOEDgwfaTPHpeGTzgu8Rp7DF2oedIQACAAIBwAYK8DAMIFBAAsyBxoFACI0gEAsWoDQA0AxJWR14xKn5ApQACAAABN1XDvrQplPq7lbcDprF+wIa6fDgDorAMAOpsPACBzQJDmwKq4ofj82la8ffEExh0pbHYDgMwBAgCmiUz67HF54ITjco+xx8oJANBYMQAgcCC4lO3TAQBhrPhHGJBIAYIDPQwCczEHqgDAGDglvol8aQIr/hXVIEBVJDqPEhObAvoBAwIFBApohF7+VZAoipEriYJTyuvYkjAKq2O7qg8BjOuENSzruIMA9TEAGhsyByz+1oKVccPxgY8rXvXyxVj3Yow6JKs/QinyZA6YBTgQAkAYe0Re8ewx+eUJx2TOzx9HR2qeNAQACAAQACBzQD8AEKkDAGL0AQB1x/imAAEAAgAEACxh1If/JSO5/CZ2JU3Curi+rPx35gHAGh4AdNYBAJ0tHwCQOWBSc2Bl7Ai863MI072uY+zhkmYHAGQOEAAwSdxlFROOy889d1y2Z6RLKQEAGgEBgK02SSyoN+YACSwZIJgaAFxujX232hoOACKMAw7M5eyBpjICtN/Lkqj27NedsSlmDByrAQB900hToInOFlDoHQIFdAghjTGnQlmIy7mrcDLze1b++2NFTCesZKWf1//5awA7Vx0CqGfWN3XIHDAbc2B57GjM8r6IKR5RrOSWYyQr+PVllKEhc8DKAIKgwEHJ+KMK12ePypcNc8fT1DxpCAAQACAAIFQAICBzwLQAoAGmgF7GQFOYAgQACADQGHdUkCrLUChLgmfWz3BL+wBrYnthRUxHrGTlf1VcZ1b+tQCgMwEAoZkDQjYI6jIFkrpiefQzmOF1FRNPJGD0oQqzBQBkDhAAeLABIC8ef0yxd/wx+YIR+/EUNU8a8wMAhobAgeDBAQcAjvu2hqNfW6wIY2UzoipLhR4LNwfqAgB50nj2l/byWlLBR2ZwGmYKNNctBAQKCBTQGGekqjKEF5+CX/4ObI4fjVUxPbEqthOv/tc8/V+7BWBdQtOEzAHLMwc4SLEhqReWRD+PyR6RrDiWspIu1QsANDZkDtDZA3rFiOCAfb2CsUfli8cdlf2rv1t+a2qeNAQACAAICADY6gCA9gQABGQOaH/fksjmBADNcbYAAQACAAQATL3yL2Ofv1JFNvwKduJszl9YF9sfy6M7YCVX/jWH/xEAIHPAqEnsijUJ/bEw8gVMOhHPSrCElXPrAwCCNgcIABjTHMgbe1Q+d9xR6SfD3PEENU8a6wEABA4En7K9LXH8Ums43myLFaHtsSS8lkTUlQ4PDIGDxpkD3OF/S7UAILIzNkWPgWMCBwDieG23dgigT6zDFGj6QwgJFBAoMI/h4Fti2TUEFx3GzoTnWfkfgJUxnbEipjoAWKOzBWCdsULgwPgxgUFgCgCwPqEXFoS/jJ/v/RPPHUttsvJP5gCZA80BDkYfkWdNOKH4fJKHfEpvXzxCzZOGAAABAAEBAFsdANCOAICAov3+uOeaAwAbo0fDIeENgQIA4ZkCBAAIANDcv/LPfXbKFXkIKXbHtfwNWB87GMuiO6nLvw4AWKO5/k8NALTXADY0OuYAAQCrNwfWJfTGnJC38L8732HCsXSMPChT55DOIwEAMgcsAgBw/0yaOdFD8e4UT9kz/b3QiponjXAAwBabJBZURogwgMBB8wMAQ0PgwGgAYGkk+0tZ1HDYx7+GHGkcJDwA0DfNBQqMdAuBxZkC5gIMlOoQKLCglX8JkstvIaz4OHYnTsOGuKH8yv9yneK/Ko5b/e9YWfy1WwCqHhsWMgfIHNBmTdwA/OfOb/j82kaMO5KDEawwayN0E4DMATIHGngYoYL9XInPHseoaSfQVmSHFtQ8aQgAEAAgAEAAoIEAoBPWRw3HPh4AxFoAALBmU4AAAAGApl/55/b8lynzWPk/gRv527CRlf8V0Vz571hD/a8NABgeMgfIHNBmddwg/OuGHT68tA9jj+RhxEFZZUYaEjIH6NYCAQIA9ueo2KNkzCFpzNijGPymJx5jreshap40wgUAhobAgdmCAw4AHLvUGg4322J5aDssZsW9ZpY0dQgc1AoA1kUNw974V5EjjYFEWVpLymqN6UGBOmQKWCsoMI+tBdYMCjg4lqDZ878n4UVsjB2OldFdsDy6I1bGsOLPXftXQ/1fG2+MkDlA5kBVlscMx9sX3PGy501W+kqqAMAhnccGhswBMgcECA5kY92lcWPdJT6jPNFNBCr/NAQACAAQACAAQACATAECAAQAmmjln/tvQ4k8E8HFh3E1fwM2xgzFiih1+V/BnfqvAQCrY9UxLgAgc4DMAXXWJ3bFspjRmOnljSknQll5K6tmABiakY2JAA0CMgcswBw4LJU+c1QW9MwR6cmxruVdqHHSWC4AIHBgtuBAHwBgaAgcNC5LItVZzP0MugBAEg2JooSlVB2loSFTwJTGAIECAgXNW/258l+CoCJW/PM2Ynv8c1gXO4gV/y5YxpX/GHUq9/7HdsLq2E5Vh//VkbX1hcwBiwAHxgQIXPlfET0Ef4VOx/MnolhxLeFvAGg0ACBzQNDgQNAGgQlhwajD0tKxRxRu447Ilw92LmlHjZOGAAABAAIABAAaBQD2aACAWFHCUqqOsioSnUfrAgBNaQoQACAAIGQAwP0UCpQr8pEvS2Dlfz1OZ/2KNTH9sTSqIyv/HfjUVP9XCwoAkDlgUQAgoRsWR47DH0Hv4Lljiay0S4yy+k/mAJkDAjUHisa4K3aMOSyfM5o7AJCGhgAAgQOhgYOyPbY4eaE1XK61xfKQdlgc1l7/hJsmBA40AEAT/jmJYH+5jRyGPXG6BoC+MU9TwDTXFTbAFGiiswUUeodAAR1CqI/yX45CWRou5SyHR8b/sDF2JFbH9MXy6E588a9r5X91nDprTBQyB6wXHKyO74fv/b/Fl9eXYNzR7GYv/40xCMgcIHNAj+SMPSr777ijkllj+QMAaWgIABAAIABAAMAQABCuBgC7OQAg1hoA+sY8TQHTAIAGmAJ6GQNNYQoQACAAUP9wr61MVYF8aSJSKvxxIuM/cEl5Gyuie2BJVPt6V/4tAwCQOSBEALAqbgD+fXMePvbdjrFHcoUDAMgcIHPAiObAKP5Rqhp1WJI59pji0+eOySf1dsQj1DhphAcANtsksUDvmCMsIHBQLwDwuNAaztfaYllIO9ixYl8zi40dAgcGGQCrIgdgR9yLyJFEsUJfXGsk/GNJAw2BGjGSKaA/MDAvU6C5biEgUECgoK5RQo48SRySy2/icOpX2Jc4E2tjBmBldE9+v/+DVv7XxAk7QjcHjGYQWCg44P7spdEjMdPbE1M8AlnRKsNwVoL1jSBBAJkDDQcHVnBrAfuzVc+4yyvGHJZFDz+JkaN90VZkhxbUOGkIABAAECQAOHm+NVyuEgAQNAAI71gFAMSRdQIAsQYANCpGMgXMGwAI7xYCAgAEAGpX/stQpshDYvk1hBQfwZ6E6dgYOwrLorpgSVSHypV/vvwbsOffOgBAUxsE1mIOdMHquF5YFDEBL5++ignH4ll5rDB/AEDmgCABQHObA6MOSZVj3OX5Yw7LAkd7SgZMS+RW/+kKQBpLAACGhsCBYAECBwBOnX8Srlfb1AkADA2Bg4aCg+oAYbEmdvz3WWUAZIsjUaEoqsyDYYAlmQKNBQbWYQo0/SGEBAqaAxSoVCr+bI+wYg/45e/Ezvhp2MCK/4qo7qz8d2bpyMKKP3/dX0cd9b9T1b5/AyJ0YEDmgHDAwRpW/ucEz8T/7vwbE44msxLLyv8BKYus4TkoI3OAzh4QujlQ8Yy7zOeZw1KH4QfQico/DQEAAgCCBQDlu6sAwPJgAgDCBQDsL+6RA7CdBwARjQYA5mkKCBEACM8UIABg2QBABfYcQYoyeS7ypPG4mbcNZ7PmY23MYM2qf0f1yr8mK1n5X6UDAFYRACBzoIkAwOq4Pvgp4HN8fWMuxh3JNKz4WxIAIHPAos8eGH1IWjbmiOLI2CPydWMPlLSnpklDAIDAgWBTvssWnueehNuVNlge1A52oe2NCgEIHBge7Z9jF8aBmQ5YHtELW2MnIasGANA3hpsC6kfDbQFDbyEwV1BgpFsILM4UMBdgoFRHgKBACQVKWfHPlkTDO3M+3FO/wvrYkazY9+NX/blr/pZrUrXy30kdTfFvTPlvVEx8yCCZA8IzB5ZHD8N7F53xyhkfVo6KGwcArBkckDlgJuaANG/MEeVvY9wVHwxzz3mCmiYNAQACAIIHAK4aALAotD0WhVXFTueRAEDzAoBlEb2wJfZ5DQAo1DNFlY+GmwKNNQaqbiGwDlPASLcQWJwpQADAcACghFRVjgplITIloYgtu4RDKV9gX+IrrPh3w+Ko9qz8d+CznJX+5dryrwEAq2KaufwTALA6c4DT/xdHjscs71OY6nGPlbEyAgBkDlimOXBIyj0qRx2WZrI/86tn3OUvdXfHo9Q0aYQLADbaJGETK4I1I2QoQODA6ADAy/tJHPTVMQAMDZkDRgUH9wGA8J7YEvO8wQaA/qaANmQK6BMyBawVFDTd1gKu/MeU+OBuwX7YJ76OrXHPsXLfG8tZ+VcX//Zq5Z877E+Tmtf93Z9mBgLWBg6MAhDMwxxYHd8Tc4Nfxff+/8KEYwmsTJZh2EEphrFCXjPDhR4rMwfo1gIDwMEhmXKku7xo5GFZ6LjjGD79AtrQ6f80BAAIAJgFADjgq2MAGBoyB4wOAOwqAUB7LOUBwERkicMbYAAYYgo0HABYpylgSgBApoC1AwDuaj8Ft9dfkYd8WSICClxwKXs1NsaMxsqo3lgc2VGz8q9O5Wn/XPnXAQCrCABYEAAwD3NgFbf3/+6n+Prmnxh7JLPW4k8AwAINAis1B0YfkipGusvTRrnLbow9JOk30wutqGXSmCcAMDQEDswOIHAAwNvrCRy81BrLg55mRb5dtdjpPFalvXFD5kCtsasBABaHdsHGqHHIFIehXFHwgBTyqVnsyRSoHRiQKWBcY4BAQeNBAVf+y+R5yJXE4nzWYhxL+w82xo7G6pj+6r3+kR0rD/lbHskSVX3lX5tVOo96J7a+EDggc6DurI3nDqIcgbfOHsZLJ2+w8lXyQABgaAgckDkgGHBwUFY66ojs4Jgj0lWDndGOGiaNsAHAOh0AsJEAgDUDgLNeT+BQHQCg9rQ3bsgcqBMALNIBAHahnbExamwDAYBlmwLGuIWATAF9TQECAKYHAAr+PVquyEeWJAzx5ZdxJOXfcEx4k9/rbxfZDksi27OC1b4KAERVAYBqK/+GhgAAmQMGmgNc+V8Z0xd/hz2PGacv4vljkaxIlhMAIHPAbA2Ceoo//zj6oKxo1BH55jFH5b+OdkRbapg0wgcAW2yjWWGUGA0AEDgwu5TvtMW5M0/gsE9DAED9qd0csCyDwNTgoCYAWBTaGRs4AFARinJ5vk4K1FE0NGQKCBEUmOa6wgaYAk10toBC71gHKODCve+iSs7Bv8AZ9olvYGvcRKyI6oNlkd35q/248r8sUqf486v+2tP+G7nyb6wQOLCgQwsbZg6sjO2LH/z/ga+uz8P4o6nq8r9fyiJreA7ICByQOSD8qA//Sxt5WPHmMwekI4e542FqmDTCBgCbRT2x2TaaFVgJK+EqAgDWCQAqOABw+gkcvtgaK4wIAJraILBEc0AXAPCGRGgnbIh6BhkmAQBkClg2AGiAKaCXMdAUpoB1AADuuZKpylEqy0GeJB63C+xxIXu5eq9/ZG/YRXSEHbfqX3PlP7puANDQGBUYEACwwlsLuFP/u2BZ9CD8++Yf+Nh3M8YczjWs+BMAIHPAbMwBqWrUYVn5qIPSmLHu8smT3dFTZAdbapg0wgYAnAGgBQDNbQBYK0AQCAC44Pk4jlx4EssDn8bCkHb3ZZE2TQAHrMEc0BcgVEINzXOyMKQ91keOQnpFCMpY8a8r5XVG2KZAlTHQcEgg0YACSWNiJFNAf2BgXqZAc91CYMmggPv5iiTpyCgPgWfGHBxM+SfWR4/Aqsh+WBrVmZX+jlga2YFP5cp/5Z5/dfFfEaNOs6/8Wzs40MQawcGa+K7s/ToQc0NewIsnb+BZ90RWZisaBwAIHFgfODDAIGjW1f+DMvHIw/Lr7Nf7R7mj2zRfKv805gAAtAbAJo0BsFFzFkB9MeaZAQQAmh8A7NABAPeaHwDQ2QNV5V/7PWl//r/Za7AucmQzAwDTmQKNAQCNMwU0MZIpYN4AQHi3EFgeAJDz3y9nxZTKs5FS5o/IIm+4JX+C3fEvY2lEV9iFt8PiCPbfgsj2agCgWfWvvuf/fgDQ1CFzgAAAl9Vx3fFX2HP4+e77mHgsAqMOFmD4fgkBAAIAlm0OHJSVjXKXnxjtLts08ADaU7OkMR8AsFEHAJizAUBbDxoFAC56Po6jDwAAhobMgcZHCwAWsixgz+VaHgAEsaKfy58Srl+aFhSoQ6aAcK4rtA5ToOkPITQEFMj454b7XN4rOIQrOZuwM/4lbIh5Bisie2FZRDdW/Dvw5b/myv+KSFb0ozpWKf+GxtRFXmDmgLkABHMFB9w/WxI1BB/6bMUsLw+MOpzPCrMEQ1kZb0wIHAgLHFja2QNGMgCyWb4es18yvbs7HqVmSWNeAGBjAw0AQ0PmAAEAMgcaVPy1jwtrAIC0ikCUynMEDgDIFLBsACA8U0DYAEDGvxZiZTEKpSnIrAjDpZy1OJn+G9aw8rSUFX+78A78uR9LItT7/Wuu/PPl30QAwJLNAQIApgMA3L7/FdF98HfYs3j97FFMO+nHilhJo8s/AQACAII2Bw5KuUfJqIPSxBEHpO+MOigbQ4f/0Vg+ABBikSdwYDA44ADA5VOPw+O88QGAOYGD2g2C5jMH6gYAI5Bc7o8iWQYPAUp5E6Bm8gxMQ0GBJooCAyN0U6C5biEwV1BgpFsILM4UkPGvC7d1J6bEB4dT/gWHxDexlhX/lZF9sDiyE+wiuBP+1blvzz8r/cujq7Kinqw0dcgcIHCgyfKYvvj+zhf48to8jDuapCn/UqMAAAIHBA4Eaw4clEpHHlHeG+WuODH4oLh3fy+0olZJY/kAoKlD5oBJAYBYBwCssGIAIDRzoC4AsIYHALdRJEtDiUUAgKa4haC4kWn8LQTWYQoY6RYCCzEF1Kf7V/CgrkCWhIhib9zJd8Ke+FewKXoslkR05lf87SLU4QFAVIf79/xHCxcAkDlgnQBgdVxn9txwV1MOxZfX52C2z1aMPpzbrMWfAAABgKYyB0YdlFaMcFecG3lEsWekS2lHapQ0BADIHDA7cFCx3RaXPR6Dx9knsOze0/xBczUjBCjQIIBgAebAIp3H6gBgOBJKbyJfkowSeValBaBPmh0UNGprQVOYAg2/rtA6TQF1yBSoGxRwX79Mloc8cTwu56yHZ8Yf2Bz9LPv8qnX/JeGd+VX/yuKvXfHnTviP7Khe9Y/Sr/AbO2QOEDioL1z5/yvkefwc8AEmH7+HZw5lsDIsxlA3WcMjAGhA4IDAQQOTPcJN9s0oN8krtPefhgAAGQRmCQDEOgBgOQEAQZoD1QBABAcAriNfkogSmTUBgKYwBRoOAKzTFDAlADBnU0DK/1nce6iMfS4zKkIRX3oVHmk/wy3pEyyP6AW7sA5Vt4BEqKNd+a+m/Efpv+JvjgCAzAFzBQCd2e/twt6XffHr3Xfw7c3/YZx7MobvL2dlXkoAgACAZQOAQzLViANS8ciDkoQRhxRv095/GvMFABtsI7HBpoIVZBV7xH2hAm/x4IADANePP4bTXk9g+d2n8XdwO/0T8uAQODDcHKgq/+0rn88FwWoAEFPqi2xJjI4BoG9yGxTzBgWmMwbMzxSoHRiQKWBMY0CiOd0/H2FFHvDL24298TOxJeY5rIjsi6URPSoP+bPTFP9qe/35dMQyrvjrGgDag/8akujmCZkDlg8OVrHyvyyqP+aHTsIrZ85g0vEgVjpLMYSV/yGszOuTocYKgQMCB00PDsTDD8qvs8f9rPj3pL3/NOYLANbbRmK9wAEAgQcCAFZqDiysBQCsDh9WCQCKZZkEAKzUFDDGLQRkCuhrCtQNAGTsn3PPbYWyCAXc6f7icFzP3QbvjAVYFz0SyypX/dnnmyv/4VUr/5V7/SO1+/01ACCKAACZA0JLZ/57WxHTHQvCnsMv997FlBMBGHs4jZVgsd7lnwAAAQDzBQBSFknZ8EOKoyMOydcPPFDSnpokjXkCgFX8FoAQVnKLWdmvHQAYGiryZgMOOADgd/RReJ9+vOEAwNAQONArWvX/75Cn+fwV/DRWhQ9FdMk5ZInD+JsASuTZ9aZhkKDhwIBMATIFjAEKTHNdYQNMAQOMAYmyRH26f6kP3FO+gWPCO1gbPRQrI/ticXgn9aq/9pA/TZZGqrNMd/WfU/+5/f9RhqRjrVlhaMgcIHPgvpX/zlgV3Q12YaPw9nl7TPc8i5EHCzTlX9ogAGBoCBwQQGgKgFBn+T+gkI04IEsZ5SZ9d6yr7Jn+W2Jp9Z/GjAHABtsQVtgtGwCQOfDASLZVAYAVAQQAzAEARJWcRaY4lAAAmQIWZQqYBgA0wBTQ0xiQqsohUZXyW3DyZYmIKPbCnXxn7El4DRtjxqsP+ONX/NvBjqVyr39tAKDa3n8CAGQOCA0AdOYfV8Z0xeLwEZgT+DJmnPZSq//7y5qk+BMAIADQ/ABAphxxQF4w4oAsdOwB+eTn94t7iexgS02ShgAAmQNmG8lWW9w++ijOcQZAwNO8Zl4zfwstVgIOagcAQxBWdAap5UEokqbxBwHen2x15A1L04ECQ4FB/gNjrqZAlTHQcEgg0YACSWNiJFNAf2BgXqaArjEgY39+sTQTWRWR8MlaBY/UX7AhehxWRQ7GkjBuhbRz5UF/WuVfW/yrrfhH6qz4Rzam/BM4IHPAlOCgM/tanbA4YjA+8l2L188ewJjDWaxQlTXZyj+BAwIHAgAHpcMPSA8PPyBZ0+cAOol8qfzTmDMAWC/qoQMAlAQArBM4cADgzpFHcd6TAIC5AIDQIk+klN/VAIBMTbJ0HgkAmJMp0BgA0DhTQBMjmQLmDQDqjpRFwn4f954tlmUgtTwA0SXncSzlezglzMaS8B74mz+3Q3O4p/aU/3B1HggADI1RwAEBAKGZA0YFD40EAKu0K/+RAzE35Hm8ycr/S6cus1JUbBbFnwAAAYDGR8qVf8Wwg7K8EQckG0cekPzc1x1tqEHSmD8AWG8bgvUCAgBkDjQLALh76BH4eDyG5f5PYUEQBwHqSrsGhcBB41J1+J/6+Z/PXpsVYYMRUuiB5DJ/FEhTWSHJqjMl9Sa7evSGBTl8hAsKDN1a0DhQoA6ZAsK5rrDxoIAv//IiFEvTEZDvBt/sddgR+zI2RI3Fsog+fPnnV/t1Dvmzq1T+O/DRnvZ//6n/1bcA1JXlgguBA6swB/iV/4H4x5VFeO/8How5lIrh+4sx2FXMIq0zQyojU8eMYAGBAwIHuhlxQKYYfkCRNfyAPGDUfjw75iC6itxhQw2SxvwBwAbbYKy3KSIAYL3mAAcA7h16BJcIAJgNAAguPI6kslsaAJBZZ0pqTS2mAAEAIwIAMgUsAQBwv79CXogyWR5yxDFIKQuAT9ZqeKT9gpURg1np76a5raMdX/65Pf92NU751wsA6JHlxgyZA2QOPCArNQBgZUwXLI4cgPkhz/Hl/9XTp1n5L3xg8ScAQADAAs0BKSv/4SMOyr2HuaL/SBc8LgIeogZJY/4AYL2NP9a3yGGPShY0OOYMDcgc4CPdaovAA4/A9/hjWKEFAIYmuL4QODAGAAjMd0dCyfUaACBL57FhKdE7BAqqRVFgYIRuCjTXLQTCAAXcPytT5CO25BICCw7DMfFDbI+djpWRg7A0ojcr+x15zV+74l9zr/9SrvRHGF749QqZAxYNDprVIGDf0+Lw/vji6jy8e2EbxhxOYkWosN6V/8bmPnBgpgCBwIFFgYO84Qfkfww/IP1w0Ek8SeWfhgAAAQCLMQc4ABC0/xFcPkYAwDwAwCDcy3dHPA8AUh5oAOib+k0BAgDGBwBNcQtBcSPT+FsIzMUU4Pb4c9CDe+64z1WWOBL+Ba688r8pZhIr/0OxMLQjFuis+GuLf829/k0CAMgcIHPAFInuDLuIAZgXPAHvsfL/6pkTGL6/wKTFnwAAAQDhAQCpij1WDDsgTRx1QPr5mMPyqb0d8Qg1RxoCAI0NgQPBmAMcAAjd3wrXjj3KbwH4i5XMmllg6lgZONAXINQGAJaHDUJAnitii32QJ03mrwKsmeL7kilwU8DQQwjNBBQ0amtBU5gCDb+u0NJMAe55yKgIRWzpFZxI/QmuiZ9iTeRILA/vD7vQLlgU2gkLQ9vz0R7yZ1dZ/DtUy9KaaeQWADIHCBw0iTkQ3Ym9nwfiiysL8O75nXjmcDJGNMHKP4EDywQHzQYQjAMKKkbsl18csV/m0NcdPXv7cuWfVv9pLAUArBZ11wEACgIA1mkOSLfYIsytFa5zAOAOAQDBA4DQgfDPc0UMBwAkSQYAACGaAgQAmtcUaDgAMHdTQMKnBBXKIv4zkydNQETxWfjnu8Ex8QNsi53Gyn4X/MV9BkPV4fb82+kAgMXmCADIHCBz4L50Yl+vK+zCB2Fe0POs/O/CjNOn+D3/g1ixHqQp2oMIABAAsHgAIGWRK1gKh7tJXVmWDXPH09QYaSwRANzG+hZZTQ4ACBwIxhyQbbFFuGsr3DjyKFbUAQAMzYKmiqUdWqgt/ppw1//9VWkADIRfnj0rK96stCSy8pL+gGQ8MKYyBRp8C4FAQMH9wMAcQYHpjAHzMwVqBwYcBBAri1EoSUZGeQguZC7HiZSfsCFqPFZFDMGS0O6aVf/2/DWc2sJfpfx34FNn4TdWzMwcMBeDgMBB9fK/LKoL/g4bgg8vrcTr3s4YfTilSfb8EzgQGEAgcMD+XKly+EFFzrBD8sAhTuKpI13EfUS+sKXGSGN5AGCdzS2sa5FJAMB6zQHZFhtEuLTCTXcOALTFX4FPV0+QziMBgOYDAEFaA2AAbubuQ1ixF/IkCXzRLzQJADC2MSB8U8AyAIBlmwKG3kIg5st/KV/8OTjF7fNPKvNDRJEXjqR8B8eED7A4tAf7vLWv/PxxJ/zb6QCAxZX7/a0QADS1QWAUc4AAQN0AgFv178R+rq6s/I/AH4HTMMvbBS+cvMjKUFHlyr+xIkSDgAAAAYD7zQGpjP06kuX8iKPSwRO80FpkhxbUGGksEQDcwLoWaexRwYL7Yg5QgMBBIwGALWKcWuHOYeMbAGQONC7ar/9XkDrz2Pe8NHQArufsQGihB3Il8azIp+kk3cA0FBToAgNLMgUM3VpApoDQTQGxsgRlshzkSxJwM28vzmUtw7aYF7AucjSWhHMn+3fn9/dzqv/CMHWqTvnvwB47NF3xJ3OAzAFTg4Oozlgc1RPzQ8fg7XM7Md3TA6MPZGKYWzEGu4gxyEVaLYN1HuuMBdsCtYMDuu7Qkg4tZL9XNWS/LGf4Ifw04jDeaW+PJ6n801guAFhrcx1rW6QSALBmAGCDWKdW8D9UhwFgaMgcMC4ACNQCgP64lr0NwYXHkSuJQyEr/lVJrze1GwONAQBNcbYAAQAyBQwxBUrUK/7svcC957lD/hJKr8Mr0w6HU/+LFeEDsEizz/+vkKer9vrfd8p/h2ohAEDmgPkCAG7Vvwt7vntiXsg4/BwwEy97emLiMX8MdS25r/g3KK5SKzMHCABYDgCQqobulxcPPSCLHn5A8eHIQ3iuvxdaUVOksUwAsEHUDWttLmNdi0RW9uW1AgBDQ+DAbACCfIsN4hxaIeCAGgDMZ6Vdm8YWeTIHjAMOagKAS5kbEZB/GLniOBRJWfFn4R6r2wAPCpkCzQMKDAUG+Q+MuZoCVcZAwyGBRAMK6rIB+H8nL0KJNAOhhSfhl7sXe+PewJboyVge1h9LQnvi75AO/BYbbp8/v9dfGw0A0L3ijz/sr2Yi6kqHB4bAAZkDzQUOlvP7/Yfij8AX8NrpQ5h6/ApGHshhBa4Eg10kjQMAD8gDDQIyBwgcNH9Kh+2XHRrmJl0z0LmiW2/HRDr1n8aCAcAyUTdW1n2xrkUC1hIAsGYAEG/fCnf31wEAmjpkDjwQACwJ7YdLmesRkH8QOeJYvvxXRqZvyBQgAND8pkBjAEDdpkAxSmU5rPhnIkcSi9SKQFzP3g7v9IVYF/UMloX3Y5+99vy5GgtC1P/sA5EAAIAASURBVKnc6695tNMAgMUEAKzHHDDhrQWCAABRnbA0qjsWR/TFb3dfwn9vfYIpx69h7OEYVkLLTFb8yRwgACBsACDlHqUs2cP2S9YP3y/5sa872lBDpLEGAOCDdS3ijA4ACByYTeSbbJBs/zCC9z+CFberAwBDQ+aAccHB/CCWwHb8IYBLQ/viQvpK3M51Ro44mhX/1AZEbQoUCtoUaPwtBHqbAg0GBjl8LO+6wsaBAnWa3xTg/jfc6xRd7It7+e5wSfwcu2JnYkX4YCwJ64OFIZ34VX/dQ/50V/zvu97PVCFwQOaAKa87rAUALIvsjt8CX8B3tz/ECx6X8OyRMFa+uGv+ylkJl2BgcwIAMgcIHDQfOGDlXx421E3uPfwARo5xRwfa909j+QBgtahrJQBYZyMjAGC9ACBl38MIcTMyADAjg8DcAMC5tOXwy3E0CACQKUAAwDQAoLlMgSL+Zy5lrw93KGZ6RSj8893gm7URW2OmYU3kKPYZ6oj5Oiv+XPlfGFLLij9X/gkAkDkgEHPAKACAO+wvsg/+DhvGr/r/4+qvGOceieEHclixFvPFXxshAgAyBwgAmAYASLnvRTnETVo2dL/8wrD9in393Sq6D3PHw9QOaawDAKy1OYe1LaIEAwAIHDR5FJtskL77YYQ7P4KVRgIAZA4YN1zx556feUFPYXFob3in2eFGzh5kiSP568zqTiqfwgZHGKaAftcVmtIUMPRsAUsFBZooCgyM8U0B7nlLLgtAZNE5uCd/B8f4D7E6fDiWhfVjJb8LK/udKq/TrNzrH6aNesW/6rC/hmVJUyeivhA4aAqDwJzMgSXhffDNzS/xme88PHskGCMPpmCIS6mm/EuqAQBDY3bmgNUaBAQOtOBgyH6ZkpX+gmH75eFDXCWvD3cuG0nln8a6AMB6G2+sbxFBAMC6AUDm7ocRKRQAQOZA9QTqAIDAp7A4pDe80hbies4uZFWYDgAIwRTQDwCY0hQgAGB8ANB4O6CMfx6ykS9J5D8DoUUeuJVnj72xb2Fz1CRW+jvzK/5/aaILAKod8qcBAHYEAAgAWIo5EMk9dmLfZ1f2Xh+IeUHj8anvArx9bjtG7M9ipbjCaMXfbM0BExgEQjQHCADUBQC4ff9S2dD98hiWSyNdZc+MdyzrLHKHDTVDGusBAKttvLCmRTjW2shY0OCYMzQggFAJAHJ2tESMQyusuNUW8+49XZn5dSVQWDHWIYJCNQe0PxMPAIJ74WTKXPhmbWHlJ5wV/GSdpBiYpjIFmvpsAaGbAoYeQmgmoKBRWwtqNwW47ydTHImEsps4lTYfB5K+wZqI0VgWNhCLQrphISv/3CF//CGbNff6h7ZXR7vyr93zX1fCTZMlzRULBQfmcvZAk9gAkR2xOLI75ocOx4cXV+B1LyeMOZSA4ftzMciZlX9nVv6dpYbFRWrx4IDMAUsHB6z8uynkQ1wVGcNcK74f5lL+Znt7PEnln8a6AMByUZdKALDGRkoAwDoBgHJjFQBY6WcBAMDSzAGdP2PePTUA8Ej5E5eyNgkCADTMFKjfGKjdFDAGABCiKUAAQB9ToJz/83L593iOJAbRJRcRWHAErklfYFfcTPwd3JW/IaNyxV97y4YOALDTAAC70PZVK/8EAAgAWIo5wIr/Un6/f3f2WRiDXwKmY6aXC17wuIChrkWGl34rAwBkDlg2AGA/j3KomyJ3qKs8dIhr+Tsj9peP7b8FragR0lgfAFhvcxLrWwQZDAAMDYEDwUS5wQaFO2yR6PAwVvq14UumLgQwJGQOGDG6WwDYa2MX3BPHk3/Gxcw1yKgIQz4rRTVTUG/IFDCFKdDgWwgEAgruBwbCAQVlijz+cL/U8kBcyFyFEym/Yn3EBKwIG4bFwT2wiJX/v7irMnVU/79D1VnIyv5C7ap/LSv/9QIAQ0PgQNixQHNgWWQXzA8ZgV/vvoRXTx/ClOO+GL4/mxW5YlbexRhgDABA4IDMAUPAgbAAQuHQ/bL1Q1wlP/U7jo79vbjyj4eoEdJYIwDwwLoWgQQArBsAFG23RZK9lQMAoZoDtQCAo8k/4jwrQ+YEAKzBFKjdGBC+KSA0AMCV/lKFesU/VxKH+LIbCCs6g6MpP8Ap4SP2GejNPhsd1Z+LoPv3+usCAG35r23lnwAAAQDzNwc6svdGDywM649f/F/B/938ApOOX8czh2NYIS3ji782BADIHLBWADDYTaoa4iYvHewmSxyyX/LLsAPS9zu54HFqgjTWCQDWiDqzMn6MJYBF0qQAgMCBYKLaYIOSzbZI2f0wVlUCAENjInAgMIDQpOaADgCYy57jhcE9cCjhG3ilLUJ6RQgr/El6JLlZQEHDgYHQTQFdYGBJpoChWwuMDwq4f18gSUZmeRguZ2/B6bQF2Bw5GavDR/EHYC4K6X7/ir8mlaf866z4Lwqre+W/sSFwQNcdNrc5sDiiB3648zq+vv41nmfFf8zhKFa2CjXlX1INABiagc0dMgfIHGhsXKVlQw8ojgw9IF8/eKe497DteEIEWvmnsW4AcITlDgEA6wYAZZttkUYAQLDmgPbPVQOA7jgQ/zVOpy5AekUwK/KJNZKk82h+AMDYpkBjbiF4MABoirMFrAMAlLJ/VsK+XiEr/nniOCSV3UFU8QWcTPkT+xO+wtLQfvg7uDPmBbWrvte/FgCw6AF7/e0IABAAsAgA0JH9+Z2xKKwv5oeMxL+ufYuPfRZh1KEEDHYrrFT+jRUCAJZjDgjZIDAFABjsJlOxR/EQN0nWEDf5xmH7Zb/0dixsSw2QxroBwHJRJ1aqD7LcxGobMdawQlgz5gAFCBw0GgBINtoga2dLIwCAp5oFIJgLOKgGEBqyBSBQ/XPMvfsUFgZ1g0v8F/BInYO0iiDk6WUAJDXKFKgfGDSTKaB5JFNA6KCgbmDA/e+41zBbHI0bOXtwLn0Ztka/jLUR47A4pA8WhfTA/KD2LO00K/+s7GuyMESb9nwWhd4fO90tADUT1jwxF3AgvOsOCRxwWRLRCQtCB+AL31/x3rl1eOZgFIa7ZWCQUzkGOkkwgI/UqBCAwAGZA+ZoDgxm5X+om/w6+/8P9nTD0G7OaCeyQwtqgDQEANba7Ge5TgDAus0BLQBYfZMAgBANAu3PwQGAvwM5APApPFJ/Q2o5BwASa7EA9In+poAQAUC1kClgZgAgl/863HsnTxKPlPK7iC3xhVeaHQ4nfYcVoUOwKLgH5gax93zQUzp7/RsOAB4YE20NIABAAMD4AIBb9e+EJZFdMT94GH67Ownvnt+IV04fxlCXvKrSrxsCAGQOWKk5wAGQIfvlkiFu8jz2XLiz/93afi7oSNf90dBwAGCtqCNW2Tiz8n+Zlf2KWgGAoSFwYFbggDsIMH9HS6y60YYvmQ1N80IDywcH2u9XDQC6Ym/M+6wofY/UsnusQCWwJOokiYcCnBlQV0xtDBgfFDT1LQTNYQo0/hYCvU2BBgODHD7GAQU57LXIRI44Hv55rriUuQE7YmZiQ+RELA7ph0UhPfnV/nm612YGq/N3iDqVxT9UV/vXve5P/ViV9sZNWPOGth5YHzhYEtkZfwUP5ov/rDOOmHbCGyP2p7Kyk4+BTuL7y39jQuDA4sHBAw0CyzADpEPcpKGD3SRnhx3C+JHH0F1kB1tqfjQ0VQDAEattLhEAsHIAwJK/nQCAkAHAXA0AWBDYFXti3uVXSlNqBQCJGgBQdxpvCpgfACBToDkBQA7/dbjXkHu/ppYHI67kOi5mrIZHyu9YGTYSdiF9+D3+3Ir/PE0q9/o3AADUnvbGjYkPFyQAQABACwCWRHaEXXh3/B3WF78EvIj/+H2EqSfOY7x7MCurpehvzOJPAIDMATM3Bwa5SDgbQDbYVVLMcm6Iq2TvkGPiXhNv4lG67o+GRhcArLXZw3LO6ACAwIHZpXBbS6y91hp/+bc1CAIQODAdONA1ABYEdsHOyJnYH/8vpJTd1QAAfWMupkDzXVcoBFNAv+sKTWkKGHq2QO2ggPszuffcvfwjuJq9A3tj3saWyBewJKw/K9Q98VdQB/Y+b1ep+i8Iamzh1z+1GwNkDhA4EAY44Mr/D7dfw9fXv8Tk474YezgMQ1wKMIgv/xIeABgaAgd03aEFmgOyIa6yuMFusitDXTFluBP6iXajJZV/GhpdALBC1KESAKy2KScAQABg3bXWWEAAQJAAoMoA6IxtEa/CNe5LpJQFNAIAGNsUEN4tBOZqCugHAExpCjQWAHC/ztLs8U9AekUoEkv9cClzM06lLsC6sHFYFjIQ84LaV1vxrwQAwU0HAMgcIAAgPADQkX39zvg7tB/mBo/Ev65/jY8vLcDoQzEY4sbt9xc3qvgTACAAYGnmwCBXfuVfPthVUjrIVXZtsJts/5D9kgET3NCarvujoakdAGxlOSUYAEDgoNlStK0lNl5ujUW32mJeEwEAg3NPHWsBB5UAgP3ZfwV1wqaIaXCM+4S/Li1XEl9nGgYHyBQwnSnQ1GcLNK8poF7xT0JIoQdu5u6DQ9wH2B79MpaGDoJdSG9W8jtiXmD7qsP9Amvs9dce9BdSPQv1zKImhAR05gCBA+OCg47sZ+mEv0IG4PNLv+Hds+sw5mAkhrmlY6BTOX/YX2NX/gkcEDiwNHNgkItEMdhNkTrYVXZnsJPklWFu0qG97RIfoRP/aWhqAwDrRO1Z8d/KCvQpljICAFYOALbaYpMWAAS0xRxWtB+UuTqPBACaEAAEdsKGiCmwj/sQSaVNAQDIFGi8KVC/MVC7KWAMANAUpoAaMlRf8b/F6/7e6YvZ+/V5rAgdxt7L7TE38Cl1dE/3DzJfAEDmAAEA4wAArvh3hl14N8wLGo5fAybjnbMbMePkYQxxyUN/R1b6HaX3x0nnkQAAAQCrMwck3KNisIu0nP06YJCL5MQQF+nwsQdK2lP5p6GpCwDYcQDAdiMr0MexyqYMq1kRbGjMGRpYEkAwCgBoie2+rbHcjwMAAjcArAwc6G4BmH+vI9aGjceemLf4kpUriXsgBNAvCXyMAwrqNgbIFLBMU6BYmoU8cRJCCz1xK9cRDnEfY3v0q1imWfHnrJX5gR34k/3nBeqs+FeW/nZ8DC38xgqZAwQOmgscLI7oxD4fQ/BLwBS8dtoJU4+fxfD96RjsWmA05b+5Q+CAwIFRzQH1v1MMcZVnDnGV3RvsonhzqLNsTHd3PErX/dHQ1A8A1rMCfJQAAAEAzgDYcak1lt/UzwBobJrFILAIANABq8PGYlfMG/y+auEBADIFrMEU4L5eviQJueIEpJeHIrHkDq5l78LZ9GXYEDEVK0JH8qVfnxV/awQAZA4QAFAX/w7sdemOBaF98ZP/S/j25seYfOwixh4MVZ/yX9uqvzFC5gABALM2ByR8+WePFYNcZYGDXeSeQ1xlz4x1RRcq/zQ09QGAFaJ2WG27ihX5g1hlU2oQADA0BA4EBxCKt9piz/knsfpqG8z3b4s5AU89MHN1HitjidaAAMABV/7naADAvHvtsTRoGLZETEd86U3k8ACgoWlqUFADGFi4KdBwYCB0U6A6MChiyZMkI7zIC3fyXOEc9zl2Rs/CspDBsAvqU7niPzfwaT7arSxVK//qwr8gRJ3mLv5kDpA50FzgYFFod/zv1ix8dfVfmHjkKkYfjMBg5wIMdCpFPycJ+rGS/sA46TxqYgm2gEnBQTMDBAIHRoligIs8e6CzLHjgAek7gw6Wj+u0NutxkZ2vLbU7Ghr9AMAKVmT3EwAgAMABgH3nnsTaK/oBgFpz9ykyB5oAACwOHIRN4dPMHABYrilgCAAwtinQmFsIaiv/uiv+adwe/7LbuJFtj/Ppq7E58kWsDB3D2yn85/OeetWf0/3naVb9q6/8EwAgc8B6AcDicO56v07sM9CPfVZG4sur3+LDi4sw0i0Wg5zyWekV11/8H5D+powlmAMEAMwYAHAr/zIF+3XFQBdW/l3kZwa6lY8f6VbRnVb+aWj0BQB2oqexusUSrGnhjFU2JU0KAAgcCC4lm23hdPZJbLzcBn/dMRAANCDVDAIyB+oBAJpSdVd9RePfgT2xLnwC4kquIUcS+4DE1RqzAQX13EJgalOgfmDQTKaA5rEpTQHudYgqPou7+QfgGv8ldse8hWUhQzQr/p1Z2e+oOajyaczRrPxrV/z/CmzHHtupV/61q//ag/4akpAHh8ABmQNCBwd2XPkP7YL5QYNZ6Z+PN7y2YvTBaAx1y2CltJw/7E+vlf/GhswB2npgjuDAWaIc6CrPHeQiC+3vXPHBAJeKCZ3W4nGRHWjln4amgQDADmtaOBIAIADAAQAX7yex2bdpAACZA4YDgL/udcOa0HFVAEBsyQCg+UwBIQKAajGhKcD9vso9/hWhSCrzx60cR/hkrMPWqFewOmw8fyBl5Yo/v+rPir/moL95Oiv+XPknAEDmgDUDAL74h3XGwtDu+DNwFH7yn4bXz+zEiyc8WLHJZ2W8CUo/mQMEAMwWAGhX/mUVA10k4QOdJOcHuMgmDHMR96TyT0PTUACwUvQUVraYh1UtdmGlTTFWsSKojTnAAAIHRk3pZlvsP/0Etl1szQOAP1kxrytzmjHWaA7oAoA5XALaYUXIcMSUXEa2JLoeC0CfNBcoMOZ1hXWbAs1/tkBKI9NUtxBUAQDuuYwqvoC7+Yfhlvg19sS+i6UhQ7EoqC/mB3VmZf/+Ff+qvf6awh/YyMJv7BA4IHOgmcDBIlb+f7/7DP5361W8dPIwJh69jKGumRjkXNho5b9JYwXmAB1aKECAwK/8y/IGukrCB7koZg9xw3Md3HOeEPlS+aehaTgA2Chqi5Ut5mBVix2s9BcRACAAcNDzCey4IGwAYG3mwFwdADBHAwD+DHgay4OHIrrEF1mSKOSIYwgAGP1sgdpMAfMDAPqbAqnstUhk76V4pFeEIKnsDm7lusAncyO2Rc/EmvDn2PuwI/7QWfGfowEAlXv9A7V7/Y204k8AgMwBMwcAduEd2XusJ/t8DMR//d7Al1f+hWfdb2Lk/lhWCsvMp/hbkTlAAEBIAEDCIlOw3y8e6CoOH+giPj/YteL50QfFvWnln4bGUABgJ2qL1S1/xmrbjVhpW4RVttA/Ng8OgQOzAwccADhy6nH+JoC/brfBn/5c0ayZpxoVMgcMDw8kNK/D7+y1WRI0CKGFXkgpD0SWOArZkpjK5NQZMgWEbQo033WF3PMUya/4u2N/4tfYG/sulgUPhV1gH/wV2BnzON1fC6K0V/vxB/09VVX8tXv+g9Wpec2fvml2UGCp4EAbMgeaBBxw3+Nfwb3w9dUv8PHFPzH+cAAr/vGsDBazUluOvo4S9HWQ1h/H6jFLUEDmAIEDQ+IkUQ5wleUOcJWGDnJUzB7iyK384wnRbrSkFkdDYygAWCVqgxUtf2SFfj1LIQEA6wYAZZtscfTU49h7/kksuGV5AMBczQHdr/WnDgBYHDQIwYWn+L3ZmRwAEMdUJkc3Ep1HAgBWcQuBXqVfksI/p9z5EellwUgqvV254r89ehbWhk9k77sO+CNAbZ3w208q9/pXlf95QToAIIgAAAEA6zYH+H8X2ok9313ZZ2QAfgsYiw8vzMcbZ7ZimGsaBjiWslKvZ/G3JABA5gABgIYVf84AULBUDHAWh7Gc47T/MfvRi1b+aWgaCwDsRK2xtuX/Ya3tCqy0LWgYADA0BA6EmrKNtjh1/DE4ez1RBQAMDZkDRl35rwIA6qgBwAAE5B5CbPEVZIrD+bMAqhKjV8gUsF5TIFccj4ji8wjIPwTX+K+xK+ZdLA0egkWBfVih16z4a4GWVvnXFP+qvf464a73Y48LggxIcH2xLHBgbgCh+c0B8zEIFoV1xPygfvg1YDze9NqClz2OYLhbIgY757DSW9Hw8t+YWKg5QLcWWAU4UAxwlucMdJKFDHBVvM8d+Ndhe84Tot0BtPJPQ2MkAPAN1touIwBAAKCcAwDHHoPzmSfwNwEAwZgDdQEAu8ABuJPrhugiH2RUhCNbHK2TGL2SU1t4Y4AAgMWZApJk/jXg3h9pZcFI5Fb8c5zgk7EB26JmYk3Yc+w91gG/c59X7WGTNc+kqGvFX5MFQQQACACYl0FgLHNgUVgH9pp2x/zgPvjZfxL+c/NtTDtxAhMO+/HKf5OVfiswB+jWAgsGANzKPyv/LBUDHaUhLN502j8NjbEBwGrRk1hh80+sarGQlfP8pgEABA6ECg44AHD2yKM46Pk4bwD8wUpmzfxp6pA5oLcBsCiwH65l70ZIwSn+mrbqAEAnEp3H+9JYU8A0xkBTgQLDryusDRTUbQwIwRTIFcchvPgc/PMP3rfiPy+wM3/AH/8e06z4V9/rrz7ob36NVO75D7wfBjQKCBgNIBA4IHOgacyBBaz8/8/vNXx15Z+YeMQXYw6GYpBTLgY4Fuu/118oIXOAzIHmi6K/qzyLlf6gAful7w3cX/FsJxc8Tqf909AYHwB8gRUtFvAAYCUr2g/KKp1HAgCWBwA22OLckUdxiAMAfgQAhGgO1AQAV7K2Iyj/+IMBwAPTWFOAAIBgTQFJEv/cZoujkFYWhMTSW/DLccTFjPX3rfj/cVedStiku9c/6KmqU/5r5K96QgCAAIClmgOLNKv+i8I6sc9IP/x+dyT+eeXfmH3hb4xyi8JgJ075F5tX8SdzgMyB5gIA/J5/mZz9unyAMyv/zvIzXPkffrCiB63809AYGwDYiZ5gxW821rT4nRX7PGEbAAQOTA0OKjbYwufQozjq8Tj+rgMAGBoCB4abA3UZAAsD++Bc2mrcynZBakUQfxNAzWRXpgFQwKTGQHOBgsYCA0NBQQ1g0ISmALeNI7z4LPzzD6hX/KN1VvzvdmbvqY78++xPXUBV43q/hq74GyvmAg4EBxAIHDSZObAotAP+DurBPj/D8cH5RZh1ehdG7I/GYJcM9HMqY8VZjD4OEhap3jFLWGCp4MAKbi0QFDhwkij6u8jT+jtLA/rbS97q7yB7ptParMep/NPQmAIArBU9jpU272NFi19ZWc6t1wAwNGQOmA0A8D30KI4TABCsOVANANzrDe+05biZ7YBUzVWARgEAxjYGBGEKCAkAGNsU0IR9/WwJ97pHIKUsEPGlfvDLccDFjHVVK/4BHfj3DneyP3+6vxY41dzrz8r/vLoAgL5pBCggAEAAQLjmACv+wV3Z+6cnfvUfh//dfAWvee7F1GOnWYkpaHDpJwBA5oBVmwNOEvYok7GU9neSBPR3lnhw5X+QfXlXkTtsqKnR0JgCAPwuepyV4DexssX3rKDnCrvICwwgWAo40AEI4g22uLb/Ef4gwIU32+CPO22NCgGsARyYGiD86a/O7+y1+ftuL3ik/AXfzG1IKb9XKwDQN5ZuCjTd1gIjgYJ6biGobdWfey1Ci87gdp4rnOP+iZ1Rb2FJ8BDeFJl7tzMr+R359+YfAep9/n/WsuJfs/g31Yo/mQMEDswFHPwd0gU/3J6Eb66/i6nHT2L84ZsY7JyFAY6FrMSL0cde2vA4NC4EDsgcMFdwMNBJIu/vIksa4CzzG+QoeW2wo3RE1914jFb+aWhMCQDsRI9huc3rWNbiO1bsc0xmAJilOWCdAOCG2yM4fZQAgDkAgAV3e+J48hz4ZGxEcvldVuQj60mUzqN1mQLmCQDqMQXYv8+SRCGTX/G/i/jS67ievRfn0ldja+QMrA4dz96LHfAbe59z+/z5vf4aAFBzr/88nfJ/HwBo6pA5QABAcACgPfu6HTEvqDf+vDcEX1/9EJ/4/IBxB+9iuEsyK7HlhhV/AgBkDlirOeAo4R5lLCUDHMV+Axwqjgw5hOFj3NFBNNudVv5paEwKADaIHsVy25ex3OZfrOxmW3aRJ3BQXyTrbHHbtRV/E8DCG234kvmHoSFwYBJwUB0AdMeh+O/gnbIUyeX+jTIAyBQwr+sKOciQWRGFoILjuJljD4fYz7AtchaWBA/G34G9K1f8/6hlxX+Ozop/5ap/Haf8GxoyBwgcmBM4qAQIdZT/BcGd2GemPz7y+Q1veq/D6P1hGOqcyspdKSuwFazESxoHAAgcEECwNnPAUcpp/zEsl/s6yV8e4CIdInLEI6T909A0BQD4RfQo1tpOY+Xvn6ygZwvOACBzoIkBgA38XVrhvDsHAFoTABA4APgroDsOxH+D0yl/I6nMH5niSD5ZOo+GhUwBQQEAsab0i+ORVRGJjIpwJJXeQWzxFVzJ2gnvtGXYGP4SVoSMZe+h9nqt+M+tofybBACYkUFAAIAAwP0AoD37GTux160b+yyNwA+3puBNr4142eMgBjrloS9f+pup+BMAsAqDwCLNAX7lXyYZ4CgtGuAouzzQSeY6wKV0yDD34qdFdmhBzYyGpikAgJ3oESxr+RyW2XyEFbZZLFTkrdgckK6zRZBDK/geeBSLNAaAoSFwYBpw8Ie/Or+x52peQFfsi/0YR5J+RmLZLf7wN0OLPZkCwgYF3NfIZMX/bp47rmbuwr6Yj7Al4lUsChyEv+71xtyATvwBf9r3x581T/e/ywo/S117/YUSMgcIHAgFHCwI7oyf74zHf27Mwgseh/HsEV8Mdk5nBSYfvR0q0JuV/96shOuTPkKLg3FC4IDMgYZHIu3nJAvp5yg529dFPrm/E/qJtsS2ovJPQ9OUAGCLqBWWtXwWy2xms6KdKTgAQOZAEwMAG4TYt8KV/RwAaE0AQOAAYG5AF+yJ/gCHEr5HQpkfvxdcawE0JIYbA2QKmAQAiNWPOWJ16U+vCEFi6W3EFF/GpYxN8ExZiPWhU7AsaCR+92+PX7nPnL86ugBgju7p/hoAUNdef0EBADIHCAA0W9pjYXBHzA3shT/uDsK3197B55e+xfjDNzDCLYaV3jK9Sz8BAAIAZA5Ui4pFPMBRms/Kv3c/R/GegQ7oO8geT4qAh6iR0dA0JQCwEz2MVaJhWCGaxcp/Bg8ADA0VebMHB7K1Noja1wp+bo/C7nrjAACBA9OAA+2fxwGAOQGdsCViBpxiv0B82Q0NAIjgTQDtY90RhilQBQzIFNAFBdz3mMaK/528g/wtD7uj3sOmsJexKHAA/rrXi732HXndv7L4a671q9zrX8/Kv76ZX1eEDA7MwCAgcCBMcLAgqBP7zPTHJ5f+h7fPLsPo/UEY6pyIfg7F6Gtf3qBVf2OEwAGBAwsyB8T9nWR+/R2lR/sexLh+B9FDZIeHaeWfhqY5AMBuUUssFQ1heY0V5nSLAQBWCR6MAwBi9rbCbVcCAMIGAG3UAMC/IzZGTIN97Cf8CfBaAKBfmtIU0McYaEZToJox0AwAQBzH/17u+8ooD0NaeTB7PW8isvgiLmSsh0fKfKwJeQ5LAoeyst+OX/Hn9vn/5t/2PgBQude/xsr/XGsCAGQOEABo4Ko/V/z/CuzKPkvD8aPfJLzlvQrTTzpjkFOWuvjvY8V/n7RJyz8BAAIAFmEOOElU/Rxl5f0cJTkDnaXuAx1l67u5VXTv7YtHWAuhlX8ammYBAHYiWywT9WKZykp8WqMAAJkDZm8OyNfYIGnHwwh0eASLmwkAEDh4cLTf9+88AGiPFUFjsS38dcSVXmHlPLyBEEAfY0BopkADthaY1BQwrjHAXeeXWhGImzmOuJC+Djsi38T60BewKLA//rrXE38GcCf6t6sEQH8GtFFDobvs8W5bnRV/TSoP++Ou+DMkTzcqZA6QOSAocPAAgPBXcGf8dGc8/u/GLEw7cQgTDl/CYOdUDHDMYaW/QlP+xZrHhkZK4IAOLbRuc8BRUtHfRXG+v7PCYdBe6chhjugssoMtlX8amuYEAO4iG9iJumOJaBIrvqlWDwCs3ByQr7ZByo6HEcwBgGsEAIQLANQHNP7p3x7LAodjS9gMxDYCAJiXKWCsswUaawo0AgCIY3m4kMW+j7TyEKSUByK25BrCi87CO205jib+ipUhY1n5H8he5+or/pXvG+0ZEnz5b6uz4q9Jo8q/lQIAMgesBwAEc6v+3F7/3vjj7mD8+9o7+Izb63/oOoa7RrOyWoperMA/KL11HgkAEAAgc6BmJNye/9J+TuKMAQ4yh4GOcrs+e8s6jd2NltS+aGiaGwDYiVpghagdlouewYqWKc0CACwJHJi5QaBYbYvMbQ8jYt8jWHy1NX673bbe/F5XCByYJGrlu43me2d/IQ/ogTXBzyKmxFcDAPRNU5oCdAuBLgDgwEKmJAzJ5XdwOWsHzqQtxebwV7A65DksuNsP8wJ6stea29//tOZ92oZf9VcXf/XK/xydQ/7m6Cj/2sd595orZA5YtUFgJuBgflAnVvz746OL3+NNr+UYuT8Yg52T0M+hEH1Z+Td8xd/IIXBA4MBcwQEr//0dFO797eXru7piUNcDaE/7/WlohAQAVonaYLloJAEAMgc4AJC99WFE7W2lAQBtaqStziMBgOYHAKxw+XfByqBnEFPiw8p5mEkBgHWaAka4hYD7d5Jo/ntNLQ9mxf8uoot9EFJ4CqdSFuBA/H+xNHgkFtzri19vP41f2OeHW/X/Vfd9WmPlnyv/c6ud8l89BADIHCAAUCNB7dlz0Jm9ft3wy50R+M5vMt44sxovnnBBf6ds9LKvQC9W/Otb+W9s9DMHCAAQADBbAKBkKernKEnq7yhf399R9nPPHXiKyj8NjdAgwA+iVrATDcTylklYzopgzZgTFCBzoFFRrrZF4caWSNjZCkv0NAAaGwIHhgEA7hBALr+y58zu3mCEFJxGUmkAMirCWMKrIq6ezAaHTIHGmgLcn5MqDkZc2U1c1Bzqtz50Gn9+w/y7fViR78HeG+3Y++qpyte35oq/9hrI+lb+GxuLAwdCBghkDugBDhoGEB4EALjy/+PtZ/Ht9dfxwvHDePaQLwY7p2GAYy6/17+XZq+/SYo8mQMEDqwDHKj6OUiK+jopd7DM67W3qE9vx8K2VP5paIQIAL4VtYSdqD9WtExkBVlFAMB6zQElS/HGlkja+TCWXKnNADA095sDBAAaAwDaagBAG361eOG9gQjOP4HEkltIrwhtdgBg7aYAt7ef+9rcz5tcdheJZbcRXnQed/OP41jyb3CJ+5K9ZoP54v/r7af411ALdCpP9a+511+n/HMr/3PvmiYEACzYIDBLc6CRACCoPRYEdsTce73xR8BgfH31XXzq838Yd+gGhrnG6LXXXyghc4AAgHABgIRFrOznKMvr6yiJ6e8kn9ffWfF5e/vcJ6ll0dAIGQKsEvXEspbRWGYrqRUCGBICB2ZnDqhYKtbbIn17Syy90rpBRb6pY93goI0OAGiDv+/2x80cB4QVeiOtPEhjAdSV8AeHTIFGgwIOViSX3EFM0SWcSVsO96RfsSZkIpYGjsC8u71Zie/O3gtP1yj8be4r/H/WWOmvGWOu/JsvOGgcQCBzwJLNgXaYF9QZv98dgA8v/Iw3zqzCSLcQDHZKRl/7IlaUy9B7rxi99kqqIrQiT+YAgQPBgwOu/MtlLNn9nKRL+7nIvhm4E90G2eNJEeikfxoaYQMAO1FPLG8ZyYp7BQsBACs1BzgAIFnLHQRYFwBo6pA5UJc5oGsAcAfHXc3ahaD8k0gtDzQbAGAppgC/2l8RgXT2/CaV3UFC6Q0EF3jiTu4BHEz4DntjPmavUV/86d+ZvV5PVd/j/4AV//oAgJCAAAEAMgcEAwCC1MV/TmB3/HJnJL7zm4pZp9dh2nE39HfMYeW7gpX9GsW/CQEAmQMEACwDAEi0yr+cFf+Mfk6y4H6O4m8GOktmdt2Nx6hZ0dCYAwBYJurBSm4AltvksvKuNAoAIHBgluYAtw0gb1NLLL/cGr/faoNfb1ePsYs8mQOGAQTtc/rrrbZY4N8b3mnLcCPbHillAfUAAH2jHyhoODAwtimgjzFgWlMgQxyG2KIrCM33xPGkuXCN/RbLg57BonuDMe9OD8y505W9Vk/z5zVUqv6aqxyriv9T1WLqvf5CCYEDMgeMDQ7m3euM725OwVdX3sPkIycw7sB1DHRKQz+HXPTeW8EX/Z57xSySOtOrobF2c6CJrzskcCCESFR9nRSlfZwUif33VfzSf2/FB53d0aGrJ1f+aeWfhsY8AMBqUXdWvm9juU0WK60KAgDWaw6oWPI3tsQK39b4gwMAt4wBAMgcMCUA+Mu/FzxTFuJK5k4kl/lbHAAQmjHA/Z70ihCkVgQhofQWYkuuIiDvEK5n74FjzD+wLeINzPXvzl6f9viFvT5cuPJfHQC0bTAAMFXIHCBzwKzNAf7PaM9+zo7ss9MHv94Zin/4fozZ53/C6P13MNg5gdf9H1T4zQEACNocIABgRQBAwn2vij72EklfJ1lcXyf59b72Fe/3d6x4rv8WtKJGRUNjTgBgmagbltn6YplNAivh8mYFAAQOmg8gaMwA7iaANZeexLybrfGbnwYC6JvbtYfMAeNG+9xw5ZIrmwfjv8OZlKVILPNjBT1UJ2EmjqlAQcOBQVOZAtxBi2EF3vDPPYQDcf/D3qhPsOTeCCwI6M+v9v95pzN/uB//vq9rxd//KXVqFv5GZG4THBJI5gCZA0LL/MB2mHOvB365Mxxve/+NGad2YLhLJAY5prGyWMxKbBmv/DcEABgaMgeEbQ4IFiCYETjgyj+/399BGtrXXvFZ/73yadxJ//29uPJPK/80NOYFAOxEXbHM9gJLDCvTMgIA1m0QcABg3YUn8df15gYAZA7oBQDudINL3NfwSF6AxNKbVgsATGUKcOFW+1Mq7iGePb/RJb64nm2PC+nrsTPqPawPexF/3O5Yudqv14q/CQDAHDIHCABYkTnAFf+597qyz08vfH9rHL65/gqme+zB80dOoa99QZMUfjIHzMscIADQuJV/9ijr4yAp6+soC+rrJPcasE88dYijZIBoN1pSk6KhMU8A0JmV6OMsd/mbAJaxIlhXzBEOEDhoUIo2tsSWs09g8ZUn8XtDAUBjQ+ZAgwEAt+K8PeJNfu95XOk1foW6rmTUmbAminBAgV63ELDvLa08EAE5B3A1Ywccoj/HtvA3sOjuYMwP6M2Kfxf2unbiD/bjbmTQHu7HHdBY/ZT/p/jUVP3rVP+bMNXMAUs3CO6pQ+DA/M0Brvz/+9osfObzFSYcPo9RbncxwDGLlZR8Vq4rNKVc3CwggMwBMgfMARw0ECDI+tnLYvs6yK722iOZ2WdX2SiRCx6n8k9DY+4AYFlLd1bwbxMAIABQtKEltp19Aks5AHDTHAGAcAyCpgAAf7ACujl8Br//nNuPTgCgMeG+VhiSy+8hqTwAccVXEFl4FhfTN+JU8kJsDH0JK4LG8vv7f77VmqUNH678q0/3b6MBAG3NBgA0tUHQrIcZEgAwa3NgfmAHzAvsxD5T/fDT7ZH45OK3eNtrIYa7hrPyn8nKcblZFH4yBxoLHggANBkAcJSq2KO4r4OksJ+j3Levvcytr2PZiH4upR1Fs2FDDYqGxrwBQEcss3Fg8WElv+KBAMDQEDgwG3BQvKEl9px+HKt9nsAfTQ0AyBzQCxxUHgLI//v2WBw4HBvDZiC62PeBAEDfWCcoCEdKeRDiS/1wJXMHvFKXY2v4LKwNmYIFd/tjXkBPXvX//XY7jepf9b7R7vGvqfpXKf+aBNTMU0YJmQMEDizdHJgf2B6/+ffH9zfH4zXPdZh6zA1DnGLR3yGDleJSVqQr0GOPmEVSZ8wRDhgVHDQBQCBzwMLAgb1E0sdB5sd+39F+O0sm9d9d1E/EHfbnTuWfhsb8AcAKUQdW/vewnGNlvZwAAAGAfZ6PY+1FawMA5mMO6AKA31ghXXh3ANaFTEVk8UWkVQQTANATAHBX+GWIQ5FU5o+EsluIKDqPwPwTOJWyEAfjv8fyoDFYeK8/K/tP8yv+v2iift+11QEAba0OAFjV2QMEAJrNHOAP+bvbA78H9MN/r0/GV5ffweQjhzH2wGVW5ooeWPgJANDZAwQADAMAvblr/hykpX0cxFl97CVH+u6TbOi9s7D3sO05T9BhfzQ0lgIA7ETtWUlfj2U2R9ljmUkAAIEDswEHJetawvXk49hy/gn8caMNv9Kpb8wCFpgMHDSdQaA+ZK5N1aFzrKAuujsUwfknkVhyWwMBQnQSapJk1BvhggKu+CeU+CGy6CLOpC6He8JvWBMyGcsCR2Oef2/M4a7yu9Uev/px5b8tr/r/pln1V6/4V+UPPlzJb1NV9o0ZMgfIHLBCcDDvXntW/Hvi84tf4D3vPzDmwHUMcwlHX/tcvvz33FPRIABgaCwNHNDZA2QO1Jfe9pKyvg6KI30d5Rt7OkiH9nNBR5EvbEWg8k9DYzkAYIWoHSvbq7HM5hB7LCUAYN0AoHRdS+z3eJw/B+BPDgD41ZNbVY/WDQCaLr9qVv+55/xnvzZ8Qf377kAE5Lgjtuga0iqCCADUAgC45yW14h5/XWJc6VUEF3jgTq4b9sd/jz3Rn+Jv/iq/LprCr7PH/5YattS54q+JSco/mQNkDlgRAJgXyB3w1wlz7nXFz7cH4383n8U73vPwysnNGOiUyIpJQZMVfwIAZA5YFwBgP6u9WNnHXlbIfp3U20G2oa+D7JduziXtSPmnobFEALBS9BSW2v6NpTb7WOkuFhQAIHDQ5AChbF1LHHF/DHs8H8ecBhoAhobMAUPMAY0B4KdenZ4f0Afn09bhVo4bksv9awAAfWO5oCCtPBihhd7wzzuMw/G/wCH6SywNHI2/7w7C3Ds9WPFnheOWdrVf/ZxWvr531Km+8s/p/W3u0/0bkj9NnYC6Yr7goJpBQOaAoMBBvQBBDwDAlX9un/+/r87EC8dc8OwhbwxySkY/h2z02lPGyr+43r3+QgmBA7q1gI9ZgAMJi1zOksvp/iy/9Nkn7tXbsbCtyA4tqCnR0FgiAJjLA4B5WGqziz0SALB2ALC2JY67Pwb7U49jznU9DABDQ+ZAo6N9DrmyymnrnimLcCVrF5LK7hAAYF83uewuv78/ruQaoop9cCPbERfTN2FP1MfYFPoqf43fL7ee0lgUtZzqrz1nQXuqfz17/QkAkDlAAKDhAGBeYDvMDeyA3wN64+c7g/HVlXfw8cVvMPagL4a5hrESWWIWhZ8AAJkD5gcAuO9PpmS/T9bHQZrZx0EW2ndvxc/991Z80Im75o+GhsaCAcAqURssa/k9K85rsdS2kAX1xhIgAYGDWlO+tiXOHHwUbicew9zrDSvyTR1zBweNvbXgVx0A8OedLtgX+SmOxP+G+NLrBgKA5gUFxjqEkFvt5yDIzWwXVvi3YG/UJ9gSNgt/BwzmQcmfrPhz1yfyK/2aLRT8ir+f+nXSPsf3rfhr9vo3tvgLHhyYaOsBmQMEDmpm7r127L3WnX3+huJd7zl49eRGDHMJxQDHZPTeW8if8N99j5hFcl/MEQoQOCBzQEjmQC97iaqvvaykj700oTe36u8g/aDjXnTqsB1P0H5/GhpLBwB2otZY1vI/rACvZOW+gAAAAQDv/Y/iwDE9AUBTx4LMgcYaBL9qSiu3es0V2u3hb8A19hvElVy1KgDAfU/cwYdJpbeRUHoTUUU+CC04De+01TiWOBfrQl7E0nvPsOeqHX6+2Ro/+bVWr/j7Vd/jX3W6f9sH7vUnAEDmAJkDjQMAfPEP6Irf/XvifzfH4pur0zHj5FZMOnoEfffl8Zp/XcWfAAABADIHGl380WefVM5+XdHLXhzbx158rZej4r3ejrLn+nPX/NHQ0FgBAPhT9CSW2XyBZS0WYIltvl4AoLEhcCDYVKxuiUuuj+DYkUcx95rmkLkaMXaRJ3PAMHCgCwA4lf0v/75YHTwJkUUX+FVw00IAYYCCdFb844tvIrLwIs6mrsZxVvjXh0zH8sAJmO/fD3Pu9GRlviN7rtpXrvj/pPs+1nmOq6/8t9V5rAMENDQEDsgcEHCaEhb8EdAF/7r8Bj6+8C+MP3gOI10D0Nc+gxUfVv53V6D7blbyd4s1j/VkT8NC4IDAgUWbA3ocWtjLXirvs0+W3Gev9E4vJ7zfyx4T++4uaNPfiyv/tPJPQ2MdAMBO9ASW2XyCZS3msnKeRwDAugGAeHVLXHZ5BCfcH8U8UwKAZjQItKq3JQEArtz+easLlt0bg7BCb6SU3ePLseUBgBCklN9DcnkAEkquI7b4MoLyTuB2thsOx/8Mx+h/YmHAMMy53Ys9J0/hp1ut1YX/ljZtK1f8K69R1FytWNfKPwEAMgcs2hxoAgDA2wl3O7CfrRN+vt0P3/uNwofn/w9vnF6EoS7h6OeQwYp/uX6FnwAAAQAyBwwCAL0cpCr2v5H03icu7uUgv9nLXn50wO6KCUP2iXuJ7GBLjYiGxroAwGNYbPM6lrT4jpXznCYBAAQOBAsOOABw074Vzux/pE4AYGjM3RwQmkFQdQhg68rneEFAf9zMdkJY4Vmklt8TgAVgXGDAlf+g/JO4leOKA3E/YF/UF1gSOBoL7g5ipb8H/rzdlT0v7dhz8VT1FX9d8FNz6wV/yn/dK/7GirmCg+Y7tJDMAUsxB+bc5QycIfjP9UmYcWILJrsfxiDHOPSzz0DP3SWa8i82DAAYGgIHBA6szRzYK5b0sZff6m0vP95nR8mUvruKB4jc8ajIl8o/DY11AgA721ew2OYbAgAEACSrbXFrXyt4uz2C+ddaCw8A0NkDtQIAbl/7TzdbY75/X/hmbMO9vGOsLN81awDA7etPrQjiD/RLLPNDdPEVhBeex9WsXTiXtgY7Iz7gdf/fb3dhP/9T7Odvo9njr1nt96u+4q9d6a+54l/XKf8EAAgAkDlgOACYe+9pzLnXjt/n/8udAfj31Zfwuc+HmOjugdH7b6LXnqKmLfwEAAgAWJ05INb8Wqzqs09Swv7/zD77pEf72ss29txR1Lf/lvzWdNgfDY21AoAtolZY1vJZLLOZzUp2pqABAIEDk4MD6aqWCNrTCr4uj+CvK635QlVn/GqmjUliqiJvEeaApuzypZe9JnPvdOfvuT+buoYvzeYFAKrClf/E0tus9F/mT/I/lbwYW8PexrrglzDffwDm3OmF3291YT9/J/YeacuX/5/89FnxZ2Wc2+d/2/SFn8ABgQNrNQd4MOHfif13rx8+OPcdXvdciuEu/hjoGIPee/LRc08xuu2uYJFUpru5hMABgQOzMgekqt57Wfm3lx3s5SBd23lX6dCOe8s6iXajpcgOLagF0dBYKwCwEz2MlS3HYIXNO6wsZxAAsHYAYIuQXa1wxYkDAE9aHgCwNHOgBgCYc7srnGK+xomkBUgovWFGpT+YNxaSy/0RX3KN39sfXHAK/rmHcCxxHlxi/4Pl957F3/5D8OPNp/H9jdbsUR1+5b+y+Ous+GtTc4+/NgQACACQOWBUc2DO3afZa94Zv93pju9vjsC31ybjtVMrMfWYI/rZp7PiX8LKvrha8ScAQACAAICxw6/8q3rtFSt62Uvzeu2TxvXaW7Gmj33FD6334WmRO2yo/dDQWPnATmTL0heLRS9iiW0aCxocS4QGVnrdoWyVLaK3P4xb9q2woD4AYGjIHDCeOaD5nn7WAIDfbrXHsnvjsDXsTcSUXBLAQYB6rPaXByO5LAD38o7z5xccjP8Z9tFfYmngM/j77hDMud0Tf97qxn7O9uznfFpT9lvrpPprXu2QR770t6nS/Q3I7zVjJuDAYIBA4MDsAIJQzAGu/H995RV8evFzTDh0EqPcbrDin4be+3JYedau+NcOAAyNpYIDSwUIBA6aBByoWOmXsMeM3nuldn32if/dbS+6992NNrTqT0NDw48GAHTHEtEkAgAEAGQrbRG3/WHc4QDA5Sf5feX65GedR4sEAAI2ByoBAHsuf2UF+e+AIVgX8iLCi7z4FXVhQQD1vv6UintILPVDfOkNRBX5IKzAG76Z2+GduhK7Ij/CxtBXWdnuxsp9O/x4ozV+uKF+L/6sKf3qmw+0UVsQ9wGTmof9PTB1gwICAAQAzMogaEJzgE9AB/wR0Il9Bvvh+5sj8dGFr/DWmbkY7noPAxyTWPktM2rhJwBAAIAAwANX/hW990okPfeJU3rtrbjbe6/iqz728le67s54jBoPDQ1N5UAkegirRU9iuWg4FrdMNggAGBoCB4KLfIUtUjY9jOBdrfD3ZRMZAAI3B8zq1gK/6gBA/fg0FgQMgE/aZvjnHEZKeYCA9vYHIqboKiv8Z/myfyxxDjaFvobVQZMx378f5tzpqdnb31Fnb3/Vav/POo+/mGjF31ixOnBgLdcdWqo5YIBB8GdAe/Z5HIr/uzYZM05sxmT3QxjoEIu++9LRY1cJuu8qR7ddYhZJw7NbQuCAwIHFA4RehqZ2AKDouU+e0WufNKjnPvEXvfaKX+rmXNKuqydY+afD/mhoaHSGBwAbRI9ihWgwFrdMYsVcRQDAegGAYoUt0jY+jJCdrbCwAQaAoRGiOWCuBoG2HP/EHwbYE6eSFuJKxk4kld1qFgsgrSIIqazwJ5XdRmLZTcSUXEFU8UUE5B7GjSwHHIr/CQ7R/8TiuyMx/04//HizLb6/8SR+YN//D5X7+3VW/DWPv1SmMSv+xs794IEAAAEAyzx74GmWdviF/Tfmp9sD8PWVl/HZxY8w0f0ERu+/gZ67iwwr/AQACAAQADAQAIhV7FHS215SzL5mAItnfwfxC4PsSwbxh/3R0NDQ1DY8BPhL1IuV8nAstSlrUghA4EBQ4EC53BZ561oiZtvDWORroi0AZA4Y3RzQ/tncijlXnH/lzgIIHI+t4W8ivOg8K+F3mxQCcOU/ocQP0UWX4JuxHV4pK7E74mNsDn0dC/yHYu7tfvjjVjf85teFvUbt2Pf9FPu+21SVft3oPre1bY24XT3GKvBkDhA4IHBQM0/jtzud8aPfALzv/QNmnlyO4c53+VX/nrvz0WN3MbruqmCRGAcCEDigQwsJHNQPEPaIJT3t5Xd67pN7dNstfrHXXukQ0Vo8LrLDw9RwaGhoHjhYJuqBxbYhWGxTzEq2kgCA9QKAgjUtEbelYQCgqUPmQC0GwE01AFDvlX8af/kPwKrgSfxJ+tw++9SKeyaAAME6K/23+KsH1Sv9PgjK98CdnAPwSFqAg3E/Yk3QC1hy9xn8dKM9vr/emuVJPj/we/zreF21r9eDDkc0CgAgc4AAAAGABxf/ruzz1RPf3RiFf1+ZildPrsGUoy7ouzeDFf9SVvrFfPHXhgAAAQACAKaKWPuo6r1PUtx7rySj117JcZYt3fehf29HtKXD/mhoaPQaLBN1Y+X6KpbYcOcAyAUNAAgcmAwcqJbbQrzSFukbW8Lu0pOsrAmoyJM5UM8WAO11gFza8qvq3Cr79vC34Rr7LSKLfFhJDzAqBODKf2zxdUQUXsDF9C3wTF6GvZGf8rcQLAwYjvn+A/DnrR74w487xb8D+x7bsfdUG/5gvx91Nf+bunv8a3lebtXY62+MGBUcNL9BQOCAwIEpwMGf/qz83+6KL3zexgdnv8G4A2cx3MUfffalodfenMoV/5oAwNAQOCBwQOBAn0hVvfZIi7vvlbp23y1e2WWvdEjHvWWdRN+iJZV/GhoavQd2oq6sTPpgqU0cK8syAgDWaw5IVtoic2NLLPZRA4CfBWoBmBw8mCEA+FnHBOBK9i9+HbAycCK2hb2FO3mHEF50DgmlN5FUdoc/kI8r8PWe2l8eyHKP/z2JZbfZ77+B+NJriC72RWTRRdzNOwK/bBccS5wHt9j/YV3wi/xVhD/f7IAfWNm/b6VfG93XwU93j78B1yE2OwAgc4AAgGUBgD/8O7LXpQt+8huA766Pwfte/8Osk0sw2CkMfe3TWWkuN0rhJwBAAIAAQINW/lU994gV7Ne5PfdJYnruKl/Re3f5f9vswFOi2bChNkNDQ9OggZ2oM+xsj2GxbQCLhAUNjiVCAysEByqW/HUtseTCE/j5mhoC/Khb3PQNmQNNDg5+rrkV4Cb3z9vjj9tdsfLe89gUMgveqatwJXMPYouvIqmUAwG1GwFp5UFIKbvLmwOhBV64lmWPSxnbcCxhPg7E/YT/b+8+wKMq0zaOvyQzk947oUixrbr2ttZVV9ey3+7qYlkL2LAivReH9N5ISEJVrICIgtKbFVddV3dX144FkQ5J5pyZBMjzvXNAF11UCCGZyfx/1/VcEwJSQjH3fZ7znvJ/XSOF710iY986Tka96b2nv6sMW5uuQ3yyDg2J+s9MrFUAHOhK/8D9rvQP/NGvY8j+cySu/LM5QHEQkMXBwRcIw3T4v/eVM+T21VfIBXOny5lPLpDeMz6Xo6Z9K11q6veFf/cRKQD8rkCgOKA4aLPiwN3cbdqu+m7TmtZ1mdY4ssv0xpu7TpfOvR+XaK76A2gRyVYp4rQ/LU7bWh3m3RQAgb05sL3ILlnLImXIy75ZALA58NObA98VAN/9XPfeXx8no//WWya+fZp1+v7CLyfKW1vmyHvbF+iAv9w6nd973/534w39H+xcIv/a8aK8selxeVWH/xe+ypL568bKjI9ul+oPrpeMv58u4946Xn//8fLAq9F6oqx5UP94D+672j/gtR+G/+8/Pm8cxL39vjpsDlAAdMACYPhbCTr4J+m/k0fJgNePs1b++yy5S05/fKmcMPMdHe7qpXO1p2VTs98rBQAFAAXAoc0Ut/ewvyY9hv6+P9Hve7XrtN03dp2268KjZkooCQZAi8lolSQZwdV6FonTZrSoAGjpUBz43OwosEvx4ggZuzpSBr26twBo6fhiceCTGwStWBwM3P9WAOsKfIxVAnjvwR++tquMfKO7jHnzaBn35vGS849zJe/dC6Tw3UukSE/+uxdJ7j/OF+dbJ8uEt06UUW/0kpFre8gI/d8MX9vNOrl/yNpUGfRaov79ireu8g/YP/B/9/v+/cd730bCT1zxb8lTD/yiKPiF4sDfn1pAcdBxioPhb8Xr4N9D7n/1FLly4cNy8bzJcuzM96Xn9K+ka+1266r/91f8q33vqj/FQeA97jCQigNv+O8yrfGT9GmeV7pPbby2e415buzMHbFd5nwdpj9770SCAdBi4lSJOviXy8Tg53Qod1EABHYBsLPALqUvRsj4lZEyuAMWAAGxObDfrQAPvf7fgL73BH799qsxVoAf8cZRMupvvWX8W8dbM+Zvx1ihf/DryfrrE+SBV6L1RH0/3/33338/r/1wrHMjXtv/17vvYMLWOPPgQI8BDMgCgM0BCoDWmDj9dyldBq49Svq/8hvpu/oauXDuVDnziQXSbcp2K+ynVbv1eFp+9b81pg2KBwoACgDfKwDczd2mNrr069auUz2ru05tfKLrdOOMXjPMrsopNpILgMMmuSpOnLYJ4gyerkN5XZsWABQHPlcg1BXYpfr5CMleGilDDrMAYHOg7TcH9r/aPvD7TYC989+w7n07Vr/PO3F64vebOOvrfnx1f8CBfp9+fKV/vxn0eutd8W+tYXPAxzYH/KxA6CjFwbA3E/Xfy+7SZ2k/uWbhKDlp1ityzMx/Sfcpm6Rr7TZJqzGt4P9dAdDSaetbANgcoDjoMMVBrdtIn75rYfq0pppuk43Te9a6u+ngH0r4B9BqxKlidageKRODJ+vXnRQAAV4A5NtlyvMRkuctAF6hAPDrzYHXf1gC/DjQP/gTM+An5kAFwKB9BcCgA8zgtT40vnioYKBvDlAAtGEBEKd/D1L0n6vO8sBrv5K7XzpHrl4wTn47r1J6TV0n3Wr2D/6tM2wOUABQABzsuL2vzTr47+46xdzeZYr5RdepnsldpzaOSZrpSu29SEJY+QfQqsSposUZfJc4gzJ1uN7uFwUAxcERKw7q8+3y2DPhUv5ChAxtpwKAzYHDn/1/7J+ah35yYg44/3Olf+1/Z//tg9Z+zCGbA4G9OeDvtx74QnEwRIf/21ZdIdcvvUXOevpZ+fXjL0nPaV9J96mbdPB37b3aX+Nu1QKgVYqDDrhBQHFAcXCAae46tcnddUrjhvRpuzLTpzXdk1Yp3bt9/4g/wj+AViYjVJRkBN8mmUHjxWnbRgEQ2AVAQ75dnpgbLpMWRsgwCoCOuTnwo2/7UwXA/6z0//gqfwufVuBXw+ZAu28OUAC0bIa+mWQF/wFre8l9r/5arlt8h1y1YLSc+OhbcvT0z3QYdflE4GdzgAIgYAuAWrf3nv+mblPcZpcpjV90ndr0Vpcp7ru7TPVc1blWwkkoAI4YcapwmRB8pTiD7hWnbbMeOeTpyKVBgBUHrjy7zH0qTGrnh8uwl7wHxv30+FM50KoFgh9tDhzMJsAhz9r/ziDrtW0ec8gGAZsDbA4cXHEw9M1Euefl06Xfqsvlgrm1cuaT86XX9E+l+5RvdCis0yHXddj3+PvqsDnA4w59oTg4qAKh1r2ry9Smz/Ws7VrdcGPXyoYL0x+tT0iZtTGCq/4AjigZrMJ0yL1UMoLvkIdtmygAKACefSJMps2jAGBzoI2eWtBBNwf87qkFbA74dQEw7G/xMvSNRBn4Rnd58PVj5Zblf5C/LL5dTn98sZww820dIuskdbIOyd9NBwz/aWwOUAD4RQHgbu46tdHV1XvKf63nla41jbO7T6n/Te/anb046A9AmxCncug5RSaqP+owv6FFBUBLh+LA58bIscviWaHyxJwwGb7m5wuAlk7AFgdtUCAc6ubAT20IHJGzC/yxOGBzgM0BPygOhurwP2BtT7nnlVPliueccuHcajl6xvty1LSvdIjbpsOpDv/VbqsAaOkERHHA5gDFQVsUB95T/qfuerHzlKYpXafUnXnUzB1HqRIJU7ViJ5UAaBPSX9klUx2v5/fysO0bCoDALgDMHLssfTRUnpodJiMoADh7gM0BNgfYHPDRAiDOCv4D3+hqhf871pwnN6/4g1wwZ5qc8fhCHcK27wvvhxf8A6oAYHOAAuCIFABu72uzDv67u0x1b0uf4lnXtdZd07XGPS5xutG5y5yvw1j5B9CmpI8KlhyVJFnqDHnY9nWbFgAUBz5XHLhz7PLStBCZ/3iojFwTpQP7z010mw7FQcd7WoEvFQc8tYDNAX/aHBj0Roo88FovuXZRf/n9cxPkhEfWytHTP5CutZukS802Sa02W7UAOOzioIMWCGwOUBz88rib06c0GfrHX59e25jRpbapf9o0d/duT3DKP4B2Ik4VpCdWxquTxWn/UgfQZnmYAiBgC4Bsm7w2LUQWeguA1ZEUAGwOBMzmgF9vELA5EBibA3+L08E/TR5a21XuffkkuWP1eXL5/Cy5YPZU6THlK+lSvVOHbrNdA39AFgBsDlAAHGhqvFf+Gxv1j2t0qfF81qW28Y3Ok427ukw2ruSUfwDtbl8JcJQO1x+KM9itX5v9YhOA4qDViwNPtl3+XhMiyx8JlVGrf2kDoKXTxsXBd0NxwOYAmwP+vznwEwVCR98csNb916bLTcuvlT8tuldOfXyJ/OqRN6X71PXStXazpNYY++7zd/tUAUBxwOZAwBYHNe6mLlObPtRvv9RlauO13afvOjd6Wl1854Xe8M9VfwA+QJyqmzxs+5dMCK63CgDvFsDBjHO/VwoAvy8AGrNt8o/JIbJyRqiM/sUNAAoANgfYHGBzwJ8LAN/ZIPipAmDwGyn6z1dneeDVY6T/S6fJH154SC6bny1HT/+ndKv9SodJQ1J0QE7RwX/v609P6n6vFABsDlAAtHYB4P7vyn+tpz69xr1Jf3lFl9rGWV2nG2f0nOXuxin/AHyKjFXpOiSvEWfwOh3od3XIDQCKg18sEJqybPLxJIe8MTVERq+KlAd1YP+lGdBmQ3HA5gCbA2wOBM7mwKC1ydJv9W/lxmV95Kynn5RfP75Mek5ZJ91rvtUhsl4HY0NSq9x6/P+KP8VBYG8OtFuB0OplQWNzek1jffrUxtnp0zzFyTVycvxU6aIqJITwD8DniFN11sF/qUzw3gZgazroDYCWDpsDPlkA7MqyyaflDnmzNkTGUABQALA5wOYAmwNtN294r/gn6j8XKfrf1p5y78snyl+W3CxXLxwsJzz6svSa/m8dahskRYf+/5nJLRk2B9gc8I3NAb8uAGrc3tc9+nVXerVnc3pN48dda82iblPMgZEzJEnNEQcpA4BPkjEqRZzBj+pZo4O5u0MGeQqEX5zdGTZZX2yXf1Y5ZOyKSHnwlahDn1ejfKw4aNsCgeKAzQE2B9gcaMkGgTf893/5FOm76hK5YG6lnPnkHOk17WPpXrte0qt36kBbb13x/98CwLPf609P6n6v3w9bAwHxuEM2B45gcVDj3tN5StO2zrWej9OneIZ0ntp4Q0K1mR5XKzHKKUEkDAA+S5wqWYf/KfJw8FIdWs0jvgEQCJsDfloAbCy0yweTKAAoANgcOKTigc0BNgdaUAQMeSNef0ySZMDr3eX+V4+Vm5dfJdctvlVOe/x5OX7mazqw7TzwFf/WGjYHAqcA4OyBVi4AvPf6N7o71zTWpde4/9W5xr2yy5TG67pPMX+jZkooyQKAzxOnipcJtiwZH/yYDq31BPnALA726KnLtcm6UruMW97CAqClQ3FAccDmAJsDHXxzYP8CwRv+H3ith9z90qly+fwJcsGcKjl62r/kqNp10qVmmxX+U6vMI1gAHMbmABsEbA6wOeBOr2lcqz82z6ZPc1/apdZ1UnyFRB9lhX9O+QfgB2SUipPxtnEyPniqDuZ1PrsBwObAEZ1mPQ05NvmyxC7jKQAoANgcYHOAzYFWLAC8a/7ew/3i5aHXu8kDr/aW21edJ39d9gf5zdNT5dTHnpf06i06bLuO7FX/dtsgOLjNAb8+e4DNgY67OVDt3nfIn2e3nh36y+vTa9yz02s9JZ0n1x+b/mh9Aiv/APyKOFW0OIP7y8NB2Tp8bifIB+7mwG49m/Pt4lwWIQ+93MYlwBEsDjrqoYUUBz52iCCbA2wO/MQMXhung3+a3PvKsXLNwgFy6bNZcuwjb0nP6R9Jl5pNOuxs02Fy7xX/5F+Y9g3+bA5QHBxCcdBRNgj2FgCezrWejek1nlI9Q5KqpHdqhSRZJ/wT/gH4GxmhosQZfJtMCBqvA/a2DrcBwObAId0GsDXfLhOXRsjAlyJlAAUABQCbA2wO+PN4A/jadgj9a2OtH3uQN/i/1kX/+3OU3Ln6dLl1xSVy8TMFcvZTj0qXKeslxbrP3/zF0O87BQCbAxQAAbQ5oIN/59rGxrQaj5Fe7f4qvcb8h357YHpN418S87dEse4PwG/JYBWmw+PlMiH4bplg26RHfnEI8h12c2BHnl3yFkXIiFWRMuDlKHnglYMfn98YoDj4YYFAcRDgmwNHtkAI6M2BtbEy6I1EeeC1o+TaF/vK758bISc88pIcPe096VqzwVr3T600JKVSh/9K9w+n6siMP2wO8NSCwC0OfPLsgWp3U3pt48edaz2vdK5qvKFrza4Lo2olMalKIpUQ/gH4MXGqUB0CL5QJwbfqcL+xwxUAFA6HXAAUvRAhY1ZQAFAAUAB07M0BPygA/GVzYG3sf1f9X0uTB1/rIve8dJLcseo38rv54+T82ZVy1JRPdKDYdODQ3+ELADYHKAB8eIPgu8LBe8V/b/BvTqvx1KV5V/4nm6s6V5uPp9fsOrdrraeXtfIPAP5O+iu7OFVvmaAu1eH+m4MqAA53CPI+Oztz7FL1XLhkLomQh9boYH+IJUBLhuKA4sAvCoRA3Rxo41sPjtQhgkd2vFf8Y3TwT5Mbl10rf3zhXvn1rEVy7Mw3pHvN19JFB/9U7wF/lcbPh//WmA5VILA5QHHQhpsD1W5Jm9K0W4/3oL9Z6TXunLjJ8uv4CuliPd6vVuykBgAdgg7/Nj1dZLw6T4fz9RQAgV041OXYpfrZcMleFCEDKQAoACgA2Bzw5wLgCM/ee/yTdfDvLPe8fIzcueY0uXrBQ3LJvCzpPe1f0rXmK+tk/yMe+tkgYHOAAuAwxu39Pnal1bg9+vXbtOrGD9Jqjaz0GuPeqCJJVE5xkBYAdCiiVCepUCHiVMfIBPsnOqA3tkkJwOaAT059tl1mzQmTsgXhMmj1vgKgpUNx4OOPO6Q4YHOAzYHD2Rx46PUUuWXFZXLd4r/KGY/PkRMfWSndar+Q9Opvdeiqt8J/kg7lB5pkXxs2B9gc+LnioAMfWphW7d6dXrPr6/Sapnc6T3bf1aXGc1XSTEmNf1yiOeEfQIe1bwugp0ywf6CDtqGnmQIgMAuHhmy7PD47TCqeD5fBFAAUABQAbA6wObDfFf9Y/etO3vtIv5d7y11rTpY/v9jPOuTv2Blr5agpH+og2fCToZ8CoKNuDhzaBoFfbg50qALAvfe1xt2cNtntSqs2t6VPbnyjc1Xjc92men7Xc2bjSVz1BxAQZKxK1yF7jUwIXqdfd/nsFgCbA0d0XNl2mfdYqEydGyZDDrcAoDigOKA48OlDC9kcOLQC4CEd/vutOFduXPIHOeepGXLKYwvkqNpPpUv1NzoseR/pV39Q4f9whuKAzQGKg9aYxmY9DZ2rdz3XubqpKnVa01kpMzw9VaFEqAoJIRUACAgyQnXWAXSxDswfyHhbEwVAYG4QuLLs8vxjoTLTWwCsogCgAKAA4KkFgbs5sPeKf6K16n/vKz3l7pdOkL8svl6uXvCAnPToMjl6+t/bJPRTALA5wOZA61z5T61p3J1S42nSP6fNqdWNn3Su9kzqMrlxZOJT0rnzQgnXnw3zeD8AgUOGqWR5OHiqTAheJuNspozXgfDH05FKATYHDjhmll2WzgiRp54MlaGrouT+lw9+HvCVoTigOPAWB98NxQGbAy2ch3T4v3PVaXLzst/JBU9PkjMeny09aj+WbtXrJbVqh6RU1knyJB3MDzSVvjUUB76zQcDmQPsUB6nV7j2dJzdt7TzZ85H+vod0rmq8Ib5qW9eYyTvjVB8JJvwDCDjiVIkyNniSngU67LsoAAJzI8DMssnKqSEy93FvARBJAUABQAFAARAwmwMDrSv+Cdaq/72v9JC7Xzpeblz6f/KnF26XU2Y9L8fNeE1SK3ceOPBTAFAAsDngmwWAda+/x0ytdu/sXO35Z2qVZ0WXKeZ13aeYv1FOCSUBAAhY4lSxMs42XMYFV+qwv/OABUBLh+LAbzYIPJl2WVsTIi8+EirDVx7aBkBLh+KA4oDigM0BX9gceOj1eLl7za/ktpXnyUVz8uWsJ2dKjykfSJfqL3U42aaD2k5JnGTqcR9cCdCSoThgc+BQNgfYIDiYxx2anSc3rUqrbnw8dcqui1JrGn+lpkuUmukN/1z1BxDAZKSKkQn2B3SALdChfQcFQGBuDngybfJWVYgsneEtACIpACgAKAAoADrs5sDA12P0rzlOf5wS5d5XusndLx8tf112uVy76EY5/Ykn5YRHluvAtf370L//UABQAPjvBkHH2xz4YQHgltRqz56UaveuztXurWk1nnX6fY+mT3bneA/6O2rmjlge7wcAyjoDIELGBv9RxgY9pEP7llYtACgO/KY4aMqwyfvlDnllSoiMXB4h978U+d95+ccT1a5DcUBxQHHA5sDhzEOvx8l9a3rKHStPk8vmTZDznq6SXlPek+7Vn+kwsVUHqx06lP9v+D+coTigOGBz4MhOymTvvf67tnee3PRpSnXj2NTqpn6ppe6j0ivrE3TwtxH+AWAfGazCZJztchkXfLcO35soAAK3APio1GHdBkABQAFAAUAB0LE2B7wH+8Vaq/73vdJN7nm5t9y6/AK5fvEf5ZynpsrJs56XtKrNOlA3tGropwCgAAikzYH22iBIqXY3p1V5TP32Tj3/1rM6rabxlvQa96WqRML4TB8AfkT6K7s41XEyQV2hw/c3PlEAUBy0eXGwe6JNvi6wy3uTHDJ62Y8KgJYOxQHFgV8VB21bIFActN3mwEDvFf+Xusmdq06SK54dIRfOLpLeU/8u3Ws+lrTJm3Qg2tbqV/wpDigO2Bxos9Hhf9eqlMmNT6TW7vptSnXjiXG122O6zPGGf+71B4D/ocO/Tcaq7nou1KHyax2kmykAArMA+DbPbt0GQAFAAUABQAHg35sD+1/x7yr3vNxTbltxrtyw5Eo57+lJctpjc6Tz5G900Nvpk6GfAoACgM2Bn131977u0a+7Uie7t6ZWe9alTm58NG1yY07SNE/vLtPq4ln3B4CfIUp1kgEqREarY2Ss/WMZa/P49RYABUKLioNmp03qsmyyrtguY5ZGyH06wB/s3N/aQ3HQpsWB3xUIFAcUB784sXLvy+ly5+rj5ffzB8lFc3Ll6GlvylG1H0ra5I06yGyVpApTEivcPz0+XgxQIFAc+NrmwM9uEHCvPwD4FumjgmWY6iHj7P+WcbYGPf67BUAB0OICwJVhk68K7TJmSYTct4YCgAKAAoACwF8KgJh9Eyf3vdJF7nm5h/RdeabctPR3cv7sYjn98ceky+RvJKVypyTo4J/wc8GfAoACgALANzcHqt3NqdzrDwCtR0aozjoEL9PzkYy1Nck4HQwPddgc8OvZ87BNtuTZZcLicHlwzaFtAbRkKA4oDnyxOOjwhxZ2yOIgVv+bkip3rTparnr+AfntMxly9LTX5aja9yVt8rc6gGzRod74PvwfzlAccOsBBUK7bQ5wrz8AtCYZo9JkjO15Hf7f1WG+kQIg8AqAZj1bc+ziXBwuD605tC0ACgAKAAoACoC2mxgd+r0Tp/+upcu9L3WX21ecJjcv/a1cOCdXznxihnSp/lJSKre1SuinAKAAoABot80B615/PVtTuNcfAFqXOFWijA2epGeBDvOuFhUALR2KA5+ZHTl2KXguXEYtjZAHjnABQHFAcUBxQHHQsomV+15OlrtW95KrF9wtl8wbK8dOf0V6TvmnpHlX/as2t9oVf4oDigOKg/baHNDhv6ppe0pl46dJ1Y1jk7jXHwBal4xWCTqU5su44Kf3nQNAARCIBUC2XUqeC5dx3gJgNQUABQAFAAWALxQAMfsmTgf/dLnHe8V/5Sly87IL5aK5GXL2k7XSpeazfcHfd0I/BQAFAAVAi6Y5ZbLbSJns2ZFS6f63Hu71B4AjQUaqGBkXdJ+ePB3Kd7RpAUCB4DPFQV22XWrmhknOC+EywEcLAN8tDtq3QKA44NDCjlscxOg/40nSf00PuWbB7XLpvFFy/MzV0mvqP6Tz5PWSWrVJkipc+676+174pzigOKA4OPjwn1rpNvT3sVTPzMRJDRfHVzacoB6XaMW9/gDQumSEipKxwX1lbNAEHaq3UQAEbgEwbXaYFCygAKAAoACgAGjPAuC7K/5pcu9L3eT2lb+Wm5edL5c8M0HOfapSutZ+IqmTN3bI0E8BQAEQgAXA7pRKd5N+3azns7RJ7mmdK90TYybv7Bk7c0cs6/4AcASIU4WK03ahTAi+VYfqjX5VAFActFpx0JBllyceD5VJ88LkoZWRcu+a/537DnYoDigOKA4oDlo0MXL/K0nS/6Ue8ocFfeWyeSPk+BmrpNeUdyStar2kVG6SxHKXJJQbEl/uPvBU/HA6cklAcUBx4OfFwW493+rg/+/ESebgpEnmDXG127tF7z3kj3v9AeBIkQEqRJz202RC8J91OP6WAiBwC4DZs0Klei4FAAUABQAFQFsWADF64uTel9LknjXd5PZVv5abl58nlz4zXn7z1CTpWvORpFZ9+/OhnwKAAoACwJ8KgObkKk9DSlXj1pQq8+3kKmNRWlXjtZ2rzN8o57pQPjMHgCNMnCpIhqpEGaVOlzH2L2WMrVnG6lB4oAmEciBAiwMjwy4LZ4TIo0+FyqAVBy4AWjoUBxxaSHFAcfCTV/xfTpD+Ovj/YcGtctm8oXL8zOXSa+pbklb19b4r/g0HH/4PZyoOPBQHFAcUB61XHCRVuffoqU+u9jyTMtmsSKhsOjupSnqr/C1RaqaEcq8/ALQBUaqT5KsocaoTZYz9Uxlja6IACMQCwCaLp4XIE094C4AICgAKAAoACoAjVADsf8W/q9y+8kS5edm5cukzo+U3T5VJ19r/SOrkb9om9FMAUABQALRRAeBpSqnyuHX436jno5RqT0lqtWdoQrWZnjJLIgj+ANDGrBJghOqiQ/4rMjb4K/266ydLgJYMxYHPj3uiXV6uDpHnHgmVIctbdwOA4oDiIJBuPaA4+PlS4P6X46W/Dv5/XHiTXP7sQPnVzGXSe+qbbX/Fn+KA4oDioK2Kg12JleYXet5KqTDuTikzrgmfJJ1jSyVWzZFgJYR/AGgXMkJ11mF9qZ4Pf3YLgAKggxYANnm9KkRemOEtACIoACgAKAAoAFqpAPBe9Y+Ve19KlXvWdJHbV54gtyw7Ry6bN1zOe7pIutd+IGmT1/tX6KcAoACgADiYadZTl1JpbkqqNF/V80znCtfl6RWuk5VTHHzmDQDtTEarJBkXPFnPizq0G61aAFAg+Hxx0Oi0yXvlDlk9JUSGLfONAoDigOKA4sDfi4P/XvH/v4U3ye+eHSjHz1wqPaf+7fsr/vHl9XpcEqfD9IHGL0sBioPDLw46SIEQqMWBfl9T8iRzm359RE92bEXTyfFV0lUVSoSqkBA+6wYAHyCjVYIOnQUyLni2Dt0NFACBVwC8X+qQl2v+WwDcQwFAAUABQAFwyAVAtDyw3xX/fitPkJv3u+LftfZ9SZ38tQ7Bxk+GfgoACgAKAP8sAFIqPR49hn7f18mVnn8mTzIyUiqN/pEVkkTwBwAfIwNUtIwN7i9jg7JljG27TxUAFAdHvDjY9bBNviywyz8mOWTEUv/eAKA4oDigOGividZ/tuLl7tVd5Q8L/qpD/yA5fsZS6Tnlb5JW+bWkTNok8WX1elwSV+b+4ZS37lAccOsBtx60bYGQPMndmFDp/reelYnl5o2J5Q2/jayW5PgKiVZOZxCfaQOAjxGnipQxwX+VMUGjdXjeSgEQWAXA7odt8k2eXf5Z5pCRSyPkntWRBzdr9nvdF6TZHKAAoAAIpAIgWv88YvXfoVTpv7qL9Ftxgty89By55JkR8puniqVrzfuSWvW1Dv3G/4Z+CgAKAAoAfy8AmvXsTppk7tDf7zdJlcbipArXzPjJck5yrfRS/d+28xk2APgoGaBCZKw6S08fHZ6/7RAFAMXBQc+e8TbZkWmTT4vsMmqJf98CQHFAcUBx0FYFwr4r/qu8V/xvlsvmDZbjpy+TnlPe/OUr/q01FAcUBxQH7VUcNCdWuev1fJVYZRYmVpqDEqfIMclTJUU5JVTVCuEfAHyZ9FEOcapfyQR1pYy2fSNjbM0UAIEzzeNtUj/RJl/k22X0kr0bAPce7BZAS4bNAQoACgA/LQB+fMX/RLl56blyydyR8psnS6RrzQeSWrX+l6/4UwBQAFAA+GsB4L3qb+qp0z/WR/r9rydVmw8m15jXJuZLlA7/rPsDgD8QpTrJMBUhI9TxOvx/LGOCPTLa1qzfloOeQN4a6ADFgXcLYEu2Xca+GC73row4uAKgAwV5igM/LRAoDtqwOIiWe19KlLtWdZdrFtwil84bIsdNXyY9prwpqZVfS/KkTTqU1+txtU34pzigOKA4aIfiwGMmVbhXJZe7n4iv8fwuqcp1SnRJXXxS1eZI/dlkJz6jBgA/Ym0BDFa9dfD/p4wJrqMACKwCoFnP1iy7THghXB5YEXFkNwDYHKAAoADwiwLg/ldi5L5X4vTfszS5e3U36bviJPnr0t/Ib+eOlnOfLJUuNR9IStV6HaoNidXB+ruhAKAAoADoUAXAbh36m5Iq3VuSJnk+T65wP5oyyZ2TONlzbOqMhiSu+gOAH5PhKlWH+fk60L4jo22eQyoAWjoUBz4zOzLtUjA/TEYuDpf7V3lvBYggyPtrgUBxQHFwmMXB/d4r/muS5M6VPeSq5/taB/sdM22FHFX7lqRWrt93xb/hf8L/4QzFQccuECgO/LI42K3nWz3/Tqz0DEmsbLwxtnJH96jK+gTVX+yqjwTz2TMA+DEZo1JktH2WDuYv6XFTAAReAVAyL8y6DeCIFgBsDlAAUAD4ZAFw/8sxct/LcdJ/TZrctbqb3Lr813Lj4vPkojnj5awnJkmXqg8lpWKDDuv7Qn+pu9XCPwUABQAFgE9Nsw789UmVni2J5ebbiWXuRWnVjdd1rjbPsw75AwB0DDJKxcko23gZHTxNxtjr9Mj/js03huKg1acuwy5Tng6V3OfC5MGV3xUAhzsEeYoDigN/KA684f+eNclyx8pe8vv5d8vFc8ZK76kvSbead/e74u9q1Sv+FAcUBxQHvlccJExy70qYZO5IrDCf1uG/OKHKODO5wtNLVUmkmukN/9zrDwAdhoxUMTLaPkhG20p12N9BARBYBUB9hl1mPBkqhc+GyQBfLADYHKAAoABo1QLg/pdi9O+794p/Z7lrdXe5ZdmpcsPii+SCpzPkjMdqJL3yU0ku37T3in+pu3WGzQEKAAoA3ysAKqzg36jfNvXP4ZuECs/7iRWugqRy18CkKkntMkfCCP4A0AFJfxWug+DlMi74bhlt33zgAqClQ3Hg68VBw0S7zHk0RKpnh8qAFRHSf/X/zj1tNgR5Di3syMVB+xYI34V/76r/7SuPkcvn3adD/8PSe8or0q36n5I8ab0kTfIGf5cO6/ut+x/hIM/mwJEtEAKtOAi0AuHwigNPY8Ik4/2ESebqxMmNf02odF8aoYN/XK3E7L3Pn/APAB2S9FOhMt52rowPvlFG2zdSAARWAeCaaJNnZ4bI1KdC5aEV4R2nAGBzgAKAAkBPtP61xejfzzj9d7mL3LXqKLl56RnSZ9Glct5T2XLarGmSOulzSSjbrMOxKTE63B9oYvd7bdMJxM0BCgAKgCNbAOzRsyuxwtyRWG5uSKpyL9YzU/9ZOT+x0nOMqhU7nxkDQAcnThUkQ1WijFKnyxjH5zq472rdEoDiwJfHfNguy2pD5KlHQ2XQMh34Vx14C6Alw+YAmwMUB+1764E3/N+5uqvcuuIEueyZh6zQ36P2Neky+V+SPGmDJE3avG/V3zzwFX8fDvJsDlAcUBwc8jTrqUsoN79MqGrMT6hseiiqrP7YiCpXqhosYcopDj4rBoAAIEp1EqeKlNHqVzLK8aGMtpt6mikAAqUAsMmq6hCZO9NbAIRTALA5QAHg1wVAtNz7Uqz+MxQvd+ngf/uqnnLTkrPluhcvl7OfLJKTH50lyRVfSFzp1p+94t9aw+YABQAFgM8Ef0PPzoRy93/iy9yvJld57k+e3PgnlS9ROvgH8dkwAAQYqwQYoTrr0LtIz/sy2t6oRw552Bzwu+LAM8Emb5U7ZEltiAxZuq8AaOmwOcDmAMVBuxYH962JkdtX9pSbl50qF88ZJWc/USJH1bwt6VUf6eD/rSRVbLGu+Mfsu+IfiEGezQEOLQyw4qBZh35X4iTPIv329Nhq98Vx1Y0nRpd8HZ9UtTmS+/wBIIDJcJWqQ/RsHWDfkFF2DwVAYBQAjRNs8o9Sh6yoDpGhFABsDlAA+FkBEKU/drH6z0K83LWqq9y+opfcsOgC+dPC/5MzHquSE2fMlcSKDTpE7/w+xPvTtHnxwOYABUBHKADKrdP9mxInud0JZeZm/eVPEyvcNXomxNR6ekVPq4vnqj8AQMlgFS8jbA/LyOAZMspe36ICoKXT7sVB4BYITeNt8mmBXf5W4ZBhSw6zAKA4IMhTHLRpceAN/32XHS83LjpXzn9qopwxq1q6VP9DUqs+kaSKTTr8b23RFX9uAWBzgOLAj4uDcvcu/X2v0/NmYrnn3oTyxj+GVZhdokus4G8j/AMALDJIxeowPkhG20pllH0nBUBgFAC7xtvkizy7/L3MIcMpAAJuc6AjFA+BVADcuybKOtH/ntWJcseKbtJv+dFy3cLfyTXzr5dTHpkhx05dqD/536RDd73fXe1nc4ACgALgsO/z363Df11CmbkpscL9ckK5+Ux8+a7fJ1XIqarikxA+0wUA/IAMVmEyyna5jA6+W0bZN7VpAUBx0G7FwZ5xNtmeYZNPCuwycnE7FQAUB2wOUBwc1Nyjw//NS0+Vv7x4iZzzZKGc8ugj1on+qZWfS6IO/vFlW3UQNSSmxGzBuPcOQZ7NAYoDfysOmhO86/4V5qa4Ss/k2Er3uLgS10nxxdu6qsKNEapCvOGfe/0BAD8kA1SIjLCfI6OCb5BRjg0yyt5MAdDxC4DmcTapc9rk8zy7jF4cLvdQALA5ECDFgz8UAN4r/vesSdB/TpOl34qj5Nblx8mfFvxBfv9sXzlx5tPSe8oKK/THlLgkWof4/acjFAAUDhQAFAA/WwB4r/q7E8rdDfEV5udxFcbfEyY1jkqobLpV5axPUM73eawfAOCniVMF6YmWkeokHWo/0YHSI6P8YAuA4uCwZ/c4m2zOssuYF8LknhV7twDu/pnxqy0BioMOfwtARy0O7tVz9+oEuX7xBfJ/C/8kZ8yaLCfOmC2dq/4jKZO+0MF/i8SVbteB1fif8H84w+ZAYG4O+E2BQHGw/7jjJ7lfiq9wz44r91yVOKnpjMichqR457ZoJZzuDwD4BdajACtUiIxTR+uQ/C8dDOv8YguAAuCwp3msTbZm2mX8wjC5fzkFAJsDbA60RwFgfUxWR+k/W0ly16pU6bu8p9y89ES56rmb5NJnHpRjp74gR1W/rkPQdh3UWzf0szlA4UAB4Aez99e/S38cGvVs0W+vSyh3Px5f4SmIK288MbFU0tQcCeYzWgDAQbNKgEEqTQf/OTLa9rcWPw6wo04HLg52TLRLwbxQGflimNy78ucLgJaO3xcHflcgEOT9qTi4d02MFfz//MJVcuX8vnLSI0/IMdMWS+fKTyRl0ldW8Pc+zq+1r/hTHLA5QHHgN8XB7vgK99dx5ea7iZWeQUmVjdeH5u44KqqoPtFa93eutvGZLADgkMkwlSwj7dNklG25jLKbBP/AKQBK5obK2IUUABQAbA4c8QJg9b77+1fHyN0rk+XOlZ2l77Jj5eYlp8ll8+6R858eKz1rX5H0qn/pgFjnk4GfzQEek0gB0CbTHF/m2a1f6+LKzM0J5e61CeXGgoTyxj8nV+46VznXhfKZKwDgsMhIFaND5kAdCktkpH2HdQ7AoQ5lgd8VB3VOu0x9IlTy5nlvA9CB/QiVABQHbA6wObBv1X9Ngty+sptcPf9GuXTuADlm6kI5quYVSZ30uSSXf6ND1Q4dDuussOwPBUDbFQf7hs0BNgf8sEA41PAfV+H26NkcW25MjS0zJkZUNJ0cWuTurqokUs0UHf651x8AcJhkhIrSobWvjLZNkJH2bRQAgVEA1DvtMvOxUCmaGyYPUABQALA50MqB3/sarV9j5Y4VaXL7iq5y89KT5PpF58pFs4fLWY8XSpeqf0hyxec6SDZ06MDfEQsANgcoAFq5AGj2HvCnf9wG/bourtzzTmy5MT6+wrhDFUnivsf6AQDQOsSpHDJM/VpGqj/sexygtNlQFrRbgeB62CHPTA+R2idCZcCyfQVAS4figOKAzYEfFQDRcseqdOsxfpc901/Oe2qc9KpdJV0nvy1J5V9JQtm31qp/TEmDRBWbBzcleyeQyoJWKRAI8h1ig6CDFwfu+Ar3K/EVnrlxZcY1CRXmWZE5khTvlGjldAbpT9W46g8AaD3iVDYZpXrKCPVbGe34QgfQXTKSAqDjFwB2eX5qiMx4zFsAhFMAUACwOXAYhYN3xf+eNTH64x4nt6/oIn2X95AbF58p175wqZzzRJac8mitpFR8LPGl3+oQ6zr40E8B0KEKAAoHCgBrvL+mcveumP1O99evT8ZXeIriyly/Tigx0zndHwBwREl/ZZdhqocO5WtltG2DjLTvbtNNAAqENi8OzAkOWTU5RObOCJWBSw9zA4DigOKgvQuEdt4c6L86Vm5bdqzcuOgsOf/pMXLGY6XSbfLfJK3yA0ks+0YH/037Vv1bGP4PZygO/P7QQjYHOlZxoH9e3kP+1seVm+/Fl3uGJJY33hha+t3p/uLQw+n+AIAjT0aozjr4r9DB+hP92kQB0LELAPd4u7xcGSLzp4XKoCXhFAAUAP5dALT5ROk/O/F6kqTf8m46/B8t1y68VK6ef52c+mi1HDdtriTo4B9TskOHcKPtQz8FAE8t4LBD3ykASq0r/81xZZ7d+u262FJzc3xZ4xv6ywvjy8zrkieZ5+nQz+n+AIC2JaNVgoy2FcqY4Dk6XDf4RQFAcdDiaRxnl3dKQmT55FAZvCRc7tKB/Kfmbl8bigOKg3beHPCG/xsWny1/WnilnPFYiZw4c5b1CL+USZ9JfNlG/Qn/Fh0eXRLd3uGf4oDNATYHfKE4aI4td3v0bI4tM6bFlhoZEVWuU7xX/TndHwDQbmSUipPRtjEyJrhWh+Q6CoAOXgCMtcu/ikJkTWWoDF5MAUABwObAL13xv2tlkty5MlX6Lushtyz5lVz13HVy6TN3y/HTnpEeNat14Nmqg7PLfwM/BQCbA2wOtHYB4L3qb8aWeurjysx1Ovj/I7bcPT6+zLhTVTQkqUXW6f4EfwBA+5D+KlxG2q6QUcH9ZaR9c4cuACgOZNcYu3yZ47C2AIYu+vkCoKVDcUBx0BGKg7tXxcgdK1Ll/57/vVwx7xY5ccZjcvTUFyV10keSVP6lDgtbddjZbq36R3aU8N8KQ3Hg/8VBRwjy7bw54I4rN1/SMzuu3HNV4qSmM/57ur8EcdUfANCuZIAKkRH2c2R48A3W4wBH2putpwH80oza75UCwG9m9xi7fJPlkH8WhcgwCgAKAAqA/SZaT6wO/Sly+4p0uWXpsXLj4lPl0rn95bwnx0jP2tWSXvWuDnl1VuD/8RD+KQDYHAjQwmHv97VL/xq8p/tv1vN5bLn5eFyFWRBX2HhiYqmkcbo/AMBniFKdJF9FyXh1gg70/5ZRtnqrBODKf4csDpr1NIy3yxfZDhnx4pEpADpMceAjBQLFQVsUB1Fy+/JkuXVpT7nimdvkoqeGyNFTXpTu1a9KctnnklDqPdhvu0QX75TIInPvFLfOUBpQHLA54N+bA/rXvCuuwv1FbLnn7diyhofiyxr6hJVLt6hKSVDO9x3KuZrT/QEAvkWcyiGjVE8d/N+UEbZN1uMAD2YLoCXD5kC7FwDucXZZn6V/y18Il/4rKAAoAAKzAOi/KkZPnNy+orP0Xd5dblp0qvxl4YVy3pNj5fRZZZI+6T1JKlunw2nDf0P//kMBQAFAARCQhYP1Y5a7m2PK3LtjSj079etG/XWvxJZ55sWW1P8xvrjuHFVh3ecPAIDvkmEqWYfWqTLStkwHdJMg33GLA28JsHWiQ5zPhcmAfY8C9KVNAIoDCoQjXRz0Xx0jNy85Wq5/8Qw5/6kRcsasQuk2+XVJm/RPSShbL3GlGyW6uO6nw//hDMUBxQHFgb9vDjTHlXtcer6JKzOq4kqNsREljSeF5bm7qVkSsfeQP+7zBwD4OOtxgKMcBTrUz7YeB3ikNgDYHPCJzYHtTodkzg+TQYt9awuAAoAC4MgUAJFy16p4uXNVovRb3k1uXdZb/rzwt3L1/D/LqY9OkuOnPa2D/5c6GG3VId1o/dBPAUABQAHg94VDjDf4l3qM2NLGnfrLn8SWmm/GlXmGJ5a6b1Y59QnKKQ4+mwQA+A0ZpiJkRPBfZETQUB20txDkO3ZxsPNhh0x6KkSc80Pl3mXhcteKg5iVPx6KA4oD3y8O7tZzpw7/1y08V66Zf7WcMavMOtE/reJfklz2mcSVbdSf3G+R6CKXRB3p8E+BwOMO/bY42DeBuznQrMeILXMv0/NoRIXr8vBq41SVIwkqX6KUcMUfAOBnZLAKkxG2S2V48B06TG486KcB+PqwOXDAqXvYIdVPhEjWvFC5jwKAAqBDFQCReqLkjpVJcvvKVLl1WQ+5acmv5Mpnr5dL5twnx019RnpUr9ZhZpsO1C7fD/wUABQAFADtOU0xZW53TIl7U2yp+1P99rTYEiMzarLn2MgZkqT6zOF0fwCAfxKnCpJcFSfj1ck6MH8kI2ymT5UAbA606jSMd8jjM0Ok/KlQeWDpQRYALR2KA4qDNgz/d6yIk9uWpctVz16rA39/OW7abOlZu0ySKj6R+LKv9Cf0W3UA2i4RRYYe8xfH7woCigOKA4qDVtkc8IZ//fpxbJn7tZgio39ssfF/YRXSJbpE4lV/sas+PNoPAODHrMcBzlShMk4dLSPs/5ARtm06cO/pEFsAFA8HKADsMmd6iFQ/4S0AwigAKAD8tgC4e2W0nljptzxN+i7rKjctPkH+8sLZctHTD8nZj2dK18mvS8qk93V4qz+owE8BQAFAARDQmwN7vI/1iyk1d+jwv0G/rtTzZHSZ54rYCuNU7vMHAHQoVgkwUKXIaPs0GWVbflBPAyDA++UY4xyyZHKIPDEjVB5cEi53rjj0uWsFmwMUB+1bHNy9KlpuXdJDbnzxZLlw9kNylg783avXSOeqv1uH+sWVbtChZYcObnUtCv+HMxQHFAcUB61QILR9+K/T82VMqSc/tsQz0JHfeHx4vtFZB/9wHu0HAOiQrKcBjHQU6tA8xyefBkDx0CpjjrPLisoQmT0tVAYsCaMAoADwkwIgUu5cGSd3rEyQvsu6ya1Le8u1C8+Xa57zHu5XJCdOf0QSKj7Vn8hvtO7vb+vQTwFAAUAB4IcFQJn3gD9Pg57t+u0PYsvcr8SVeh5IKG/8sw7+0az6AwA6NOtpAMODr5NhQUNkhH2LHvl+CPIdZjxj7fJ2iUOWTg6RgYtbVgAc7lAc+HmB0A4lwZ0r4+W6BefKNc9epQN/sZw44xFJK39Xkks/kdjSb3Vg2CxRhQ0SWajDf6F5aFPkG0NxQHFAcdB2jzuMLnXv9l71jyo150WXmZOiitznR+Y3Hq8m74xTVZsj9WdFnO4PAOjY9j0N4LcyPLifjHB8q4P/noAuADpo4dA4xi7vFjlkZWWIDFpEAUAB4IsFQKSeKLl9RbL0W5Emty7tITct/pVcOe96uWT2vXLc1NnSo3qFxBRv0YG/4dADPwUABQAFQCAXAB7vY/2iy9zfeK/6R5eapTFl5vC4cne3+AqJVk4J4jNCAEBAEKWCZKSK0XOSDLe/LyNs9Tr8N/9gE+BQhyDvc7NrjF0+z3HIWyUhMqSdCgCKA4qDnwv/ty9P0KG/q/x+3l/kYh34j50yRwf+5ZJU/rHEl36pP7nfKtHF23V4Nw4//FMcUBxQHARQceD26K97J7rUWBJd2HhjTKH7kvBSIy22VGJ18LcR/gEAAUcGqBAZrnrp8P43GWHbqF93UwB0rMJh92i7fJ3lkHeLQmToixQAFADtXQB47+2PkTtWxkm/5ely27LucsOik+S6hefK+U8NljMfy5YulWslufwDiSqqb9/ATwFAAUAB4I8FwG49TTElxrbYEuPr6FLPczGlnpr44vrfJJXXHW091g8AgEBlPQ1ggErS4b9chgc/p0O867AKgMMdgnyrT7OeuvF2+TzbIcNf8K8CgOKg4xUHd62IkZsWHyvXvXCmnP/EcDnj0XzpOvkVSZv0rsSXfWXd3x9VtEMHxDoJ16G7JeNTpQHFAcWBj0+HKgJKzd1RJebGqBL3B5HFxtiogvo7QkulZ2SFJCnnulBVS/gHAEDJKBUnw20TZHjwdB1I6ygAOtZ4CwBjjF2+ynTIiIVhctdyCgAKgLYsAPau+Pdbniy3LekuNy8+Rv74/KVy5bxr5ZRHKuS4qU9KQtk661C/8EKjxaGfAoACgAIgQAuAUrM5usTYE13qrtOzObrE9fe9K//uW2IKXZepEgnjMz0AAPYj/VSoDFUX6rlVh/CN7VoAUBwckc0Bbwmw1emQCc+FygNLwqwwGwibAL5bHATG4w7vXBEj/ZalyP89d7lc8cxNctKMGjlm6hxrvT++dJ3Elm7UwX+LDu2uVgv/FAcUBxQHgVQcGPrn4vZEF5tbooqMR6KK3NnhRcbpobmenqpiW7Sq3RDO6f4AAPyI9FGOvQcBqmtkhONLHaibKAA63mx/2CETnw2VhxaHyd0BsAVAAdD2BcBdK6L1xzFWh/5U6bu0i7Xqf/2Lp8qls++U854YIb1qX5QuVa/rMLbDJwI/BQAFAAWAnxYApWZzTInb1FOvw/8X+ufzbmyRMTGu0LhHVUuymimhBH8AAH6GdRjgYNVThttWy/Dgz3Wo3uWXmwAUBz85Oyc4pOzJEBk/P1T6Lw2XO7wlwC8NpUD7Fgd+dOvBnSuj5ZYlXeWGF38lv519j5z7+FjpUb3UOtAvvvRziS35WqILt0tU4U4JL9Dhv8C3wj/FAQUCxYEfFQfFplt/TF+KLDFnRxUb10SX1Z2tvPf5ex/r12dOMOEfAICDIINUmoywzdfzjg7HjRQAHa8AmPx4iGTOowCgAGiN8d7bHy/9lifKrUu7yc1LesmfF54r1zx3hZw1K0t+Pb1Wkivel7jSrySiwLU38P94KAAoACgAKAAOfpr0eB/rtzmm2Pxcf0wfjyoxC+IKXb9OKDHT1RwJ5jM5AAAOgYxUMTI86AEZFlSgw/GOgCgAAqg4aBjvkCemhUjFE6Fy35K9BUBLh+IgsIuDO1dE6uCfIH9acL5c+ewf5LRHi+SE6TMktfwfklj6scSUfCPRxZt0yK/X03Dg8H8400GKAwoEbj2gQDjo2RVV4l6n563o0oYBMaUNfwkrl25RlZKgnOLQY+OzOAAADpHcryJleHAfGR40TIbbt+hpJux3oAJgnF3mTgmRmsdC5b7FYRQAFACHtN5/x8pY60C/vks7y01Lesv1i06S3z1zo1w4+345dspsOWryciv0RxTWSZgO6fsPBQAFAAUABUALplnP7qgiY2dUseF9tN/LUSWeZ2LL6v8vYe/KfwifuQEAcBikjwqWMSpFRqkzdfj/UIbbXFYJMFwHyO+G8O+3xYE5ziHLKkPkqemh8uDiw9sAONyhOPCf4uDOlZFy65J0ufHFY+WSObfLb54YLr2qF0q3ypclvvRTiS35SqKKtuqgs12HfeN/wn9rDMUBxQHFQcAVB8068NdHlppfRxZ5ynTwH+7I3n5i2NhtXVWthO8N/9znDwDAYRGlOolTRcpodZwO+2/JcNsm/bqbAqCDFABj7bKmIkTmTQ2VBxeFUQBQAPzERMjty+OsFf9bl3aRm5f0kGsXniV/eO4yOfuxCXLyjApJrXhXEko/s9b7j0TgpwCgAKAACNgCoDm62O2KLjZ3RJW4P9TzenSJOTimzLxBjdoZp/q/beezNQAAWpFVAvRXiTr858vw4KdlmL3hBwXA4Q4lQLsVB41j7PJOgUOWTwqRgS+2bwFAceCbxcGdyyOk37J4uXbBuXL1s1fJ6Y8WyInTp+nA/w9JLPtIYku+kRjvvf3ek/wL69sk/FMcUBxQHARMcbBHB/+GiBJzYWSJe0pkvvu3EXmNJ6mc+gSVvyWKK/4AABwhMkjF6rA+WIbbyvTrTgqAjlMA/DvPIS+VUwBQAHwX+KP0xzVG+i1Nlr5L0uSmxb3k+hdPkCueuV4unn2vHDflSekxeelP3ttPAUABQAFAAXB4Y+hxe6KL3YZ++1v9vo+iS8yqmFL32JACT6/oEolXTgniMzMAAI4g6a/sMkIdL8PV72W440sd3He1aglAcdAuxcHu0XZZP9Eu7xU4ZMgL/lkAUBy03tyxIlJuWZIuN1j39veT854YJr1qnpduVWsk4ft7+7foQLHtiN3bT3FAcUBxEPDFQaP+sd+LLHIvjyh13RpR4ro8PF86x+RKnHWyP+EfAIAjb99hgGkyTJ0twx3v6wBeJ8N+dBggBYBfFgCbH7bLf/IoAAKzAPCu5DbMYwAAOgZJREFU98dJ32UJOvh3lb8u7il/XniWXPPcpXvv7Z9ZIWkVf5fE0k902GsIqMBPAUABQAHQpgXAbj1NUcXGtqgi4+uoEvcLeqZFFjVcGFnacLyqFe7zBwCgrVklwP0qVYfvGhluW6xfjXbfAqA4OKxpHmkXzyi7fDPRIcMXhMmdywKnAAj0xx3esTxS+i5NkP97/mK5Yt61csrMYjl+6kxJLn9X4ks/kpiibyS6aJMOvzv11EtovvmDCfvxBHA50CbFQQcrECgOKA72m92RJea3kSXu9yOLjHFRhcad3lX/yMKGZDVYwpRTHHwGBgBAO5HBKl5GOJw6SM/UU08B4P/TNNIu3zodMuq5MLl7KQG/oxYAty+Pln7LY+W2pSly65LOcuOio6XPC7+WS+fcIuc/+ZAcPWWudJu8UiILvaG/7n8CPwUABQAFAAVAKxYAzVbwL3bX6dfNUSXmW1El7sXRRa5bY4pcv9OhP5wD/gAA8AHiVA4ZpE6RweqPMtzxlU+cBUBxcNi3BGx/2CHZc0JlyMIwuYstgA5XHNyxPEr+uriHFfgvfPJ+OWvWBOk+eYl0nvS6xJV8JjHFX+ngv1UHoe063Bu/GP5bYygOKA4oDgK0ONDhX/+c3Xo2RZS4pkUWN2TYC5pOC8319FQV26JV7QbCPwAAvkIuVjYZqbrJcHWeDHd8YJ0FMNy+hwLAv2fHeIfkPx0qI55nC8D/C4AI6zC/fssSpO/SJLl5STe5aXFv+dNz58tV866W0x/NlROnTZGEsg8kpuQrHcIb2iTwUwBQAFAABHwB0BxR7Db2XfX/LKLY+HtkqTE+qsS4U3nX/WdKKMEfAAAfJE5lk0HeAwHtVTLM9oLfngVAcfD91I13SM2sEMmeGyr9l3rXxQ9+CPe+VBx4D/WLlVuWpMnVz14ll825RU6YXi1H1z4tiWX/ltiSzyS6aINEee/tz69vt/BPcUBxQHHgW9MW4T+y0DQiioxlEYWuWREFnt+HFzWdrkY3JCmnRO892Z/wDwCAz5JRKk6GOMbLEPs0HSB36qDbTNj33wKgfpxdpj8SIgWzQ+WeJWEUAH5TAOjAvzxG+i6Ps+7rv3lxV7n+xV/JtQvOkIuevkfOeXy09Kh+QdIrX9NhbpsO0C6/C/wUABQAFAB+XAAUmo16TP32Jj2fRhUa06ILjExHUcOvIgpcqaqPBPMZFQAAfkD6K7uMVsfJKHW5DLV/LkNtHkoA/y0OXGMd8mxNiEx9NFTuW6SD/bJDmOUtG8L94U+/ZTHylwWnyf/N/62c89hYOXVmiQ77r1on+ceVfCExxeslQgf/iIIdbXZvP8UBxQHFAcXBvmmKKHa/r2dNeFH9XeHF9deofOmiSiTeeqzfHMI/AAB+w3ok4BiVIiPUGTLU/o4Ms20OmLMAOmABYIy1y8LJIfLIzFC5f1EYBYAPzu3LvPf1R8ltS5Ll1sVpcqP3UL8Xj5crn/k/uXT2bXLC9BrpXTtXYnXwjyjabAX+EB1495/Q/V4pABgKAAqAI1AA7PYGfz3b9KzX4X+Jnkcjinb+LqJ4x8k80g8AAD9mlQADVJKMsDllePBMGWav1yOHPIT9di8O3GPs8mpJiDxfHSoPvniIBcDhDsXBQYX/W5akyw0vHiO/1WH/3CcGS6+aedKtaoXElX4sMSVfSlThRoks3KLDbkOHWPWnOKA4oEDwuwJhd3ixuTGsyPxPZLH74agiT/+QzLqjI7JdKdZj/SokhM+cAADwczJAResQf48Ms+XIUPsWPbspAPyvAPCMtsubRSGyuCpUBrxAAdCuYd+6rz9S+i6Nl9uWJMpfF3eVmxb1lD8/f5ZcM/9SOfOxsXLSzBJJqXhTh/8PdQir/58r/a09bA4Q9CkAKAB+YryP9NsdUWTU6e9/c3iR8XZ4oWtpVHFTv+gSz+/VsI0RHO4HAEAH8v2tAKPU6TrMvy3DbRv16+4WbQK0dAj9hz1No+zyUbZDXi8JkYFtXQBQHOw3OvwvjZFbF6fI1c9eIZfNuVF+PaNMjp3yqCSV/UPiSj6UmML1El24UYfSnTqg1ktong7nBznWt+WqPsVBRywQKA7aozhoDi92u8KLzQ2RhZ6ayKLGCfbiHaeGFu7soSokWtVKOOEfAIAORpTqJCUqTIarXjLcsViHyfdlqL2JAsC/ZtdIu6zLdMjbRSEyaCEFQJte7deBv++SOLl5SWfrav/1C4+Xa58/XS56+k455/Fh0rPmWUmvWq1DziYd3usOOuz/5OS33bA5QMCnAOiQBUBzeJHp0q879Osnet6MKmwcHVXg6qdDf6JaZK36E/wBAOiorBLgDhUlw4NvkOFBI3Qo39qmBQDFwWHPnhF2qRtjl88zHTJkgZ8UAH5eHHi/777LYuXaBafLNfMvkbNnjZWTZxRL+qSXJbnsHYktXicxRV9LRP5WPdslNM/471X8Nh42B9qhOKBAoDjwweJA/xi7wwuNushC87nIAnd1aGHDJRHFrpOVsz5RObdFK6cEcdUfAIAAIE4VKsNtF8nQ4FtluGOdDtimDLU3UwD4xzR7HwU4yi5fTnTIsOfD5I6lFACtXQB4T/DvuyxGbl2SLDd7T/Ff1FP6vHC8XP7Mn+Ti2f3khGnV0rtmtsTo4B9RuEmHblebB302BygAKAAoAA4wzXo8EQWmoX+M9eGF7g8iC4yKqALXqJAST++oIm/49wZ/AAAQMKwtgMEqTIaq7jpcPyLDbausEsAfNgEoDr4vAbZOcMiEeSHywKJQuWOpdxPgUKYDlwaHWRzcrsP/TYt6yF8WniQXPdVfzn5stPSsfk66Vq6SuOJPJKboS4kq2CiRBVt08G/QgdvVLlf62RygOKA4oDg4wHjCi8y/6W+3ILK44QY9v1XZRprK3Rmn+otd9ZFgPgsCACBAyQMqQUY6smWE/XEZaq/TgXkPBYD/zPbxDpk4N0QeeiFU7qQAaFEB0G9ZpPTVgd97gr/3ML+bFneTG17sLf/33AXy+3lXyemPZsqJ06skqfwdiS39RMLy6v0+6PvK5kAgbxBQAFAAtHIB0BRRYHoiCo0t4YXGF5EF5jORBUZlWJl5dkyFp5fq/7adz3gAAICS/souA1QvGaQulqH2f8ow29YOWQJ00OJg5ziHTHosRJzPhMrdSw61AGjpdJySoN+yCLllSbLcuOgouWzudXLBU3fL8VOnS6/qeRJf+i+JKf5Eogo3SKS14r9TB+S94d9xgOnQpQCbAxQHPO7Qh8fdFFZofqrnjbAiz4CwYrNPaK77qMichiRVISGqVgj/AABgL3GqILlPxclgdYIMta/Q85EOv00UAP5RANSNtUvtoyGSMydU+i8OpQD4hbDfd1mk3LYkXm5dnCg3Le6qg38P+fOCU+Sa586Xc58YJKc9miFdqpZJcsXfdLjaroO964BhnwKAzQEKAAqAdp7deprCC4ztYfnGhogi9yo9TzsKjT+GFZvnWMEfAADgQKwSYISKkqHB18rQoME6/G5iC8A/ioOGMQ6ZPSVEJj8WKvcuaqsNAP8rDrzhv9+SGLllUYpcNe8KuWz2DXLSjBI5dspMSSr7u8SV/EeiC7+SqMJvrOAfmu+92m8cdPg/nKE4COxDBHncIcVBi8J/kbkprMj9YXihkRFeYNznKGo8LizLTFfDNkYo57pQTvYHAAA/S/qpUBlhP0eGB/eRoY6PO+x5AB2sAHCNscv86hCZ9kio3LcolAJg/6v9S2LltsXx8tfF6XLTom7SZ8Hx8ufnTpcLn7xTzp41THpWz5X0yhUSnr9RQnJ37g3kub8wefu9UgCwOUABQAHQZgWA0azHeqSfDvxbwovMt8ML3UvDi4y7wkuNq9UIieJwPwAAcNCspwJ4Hw04QnWWobZsGRb8mAy11+sh0PtwceAebZc1pQ6ZVxMiD77o6wVA2xQH/ZZGyq06+P/x+XPlynlXyumPTJATp5dJWvlrklj6rsQUfy7RRV/pT8636E/4t31/ir/DuuJ/MGP6xFAcsDlAcRAwxUFzWKG7Psx6pJ+nKrywcay9eMepoYU7e6i87TGqcGMEV/wBAECLyAAVrYPlfTLUlitDHd/KULtHTzMB3XcLgNeLHLKwKjALgL1X+mPktsVx8tfFaXLTonS5fuHRct2Ck+SS2X3k/CfuluOmTJMek5+VqIIvJCxv896wn2scxpiHPmwOsDlAAUABcOhjBf/wQnNbWIH7Q/3jrI0oaBwRke++VdXWJ6pF1n3+BH8AANBy1nkAd6p4uUf9SobZnpGhtr/JEKsEkEMeQv0Rn6aRdvlPtkNeLQmRgS901ALgwNNPz21Lo+Va7yF+8y+Ucx8bJqfNzJGulUsltfw1iSv+VGKKvpSIgo3W1f5Q7wn+uQ17r+K3NPzn7fd6yOMbmwMBXyCwOUBx4OvFgffjVeT2hBWaWyPyzdkRBa4yW0H9BY6ShhOUc0Oicm6LVk4J4qo/AABoFdJHBctAlSKD7eUy2PacDLHv0NNEAeB7s2uEXT7LdMibRSEyaGHHLQC8Yb+fDvve+/pvXpwsf12UJje80EP+svA4uXzuNfLbp2+WE6eVy9E1syS++D8SVfCV9ci+w7vS39rjG5sDFABsDlAA+GwB0BxW4DbCC911+vWLsALPexGFroKIAtdgVeTurkp3xO4N/gAAAK1MnMomw1QPGarO10HzZR3oP9Ozq0WbABQHR2z2DLfL9jF2+STTIUMWdNwCoO/SKOmz8Hj543NnyXlPPCBnPDpeulUtkLSK1RJb/LFEF32hP3neoD+h3qRDXp0OzfVizzPE7ivhn80BNgcYioOfn2b96zYiCo3lEYXmYyE5xjVhWeY5qlCSVZ7E6OBvI/wDAIAjxjoUMF9FySjVW4Y4ntbB/HUZYnfp2U0B4DvTPNwu9aPssm6iQ4Y9Hyp3LO0IV/qjpO+SaLl5SbJ1X/+NL3TX4f8YufKZ38lls6+TX8/Ik2OnTJGEkn9IdOEnOpTWW0H/p8a3tgDaaHOAswfYHKAA8I/QX2B6vMFf/1q/1a+fRBQY0yMLjSxHnusk67F+czjZHwAAtBFRKsh6POAgdYoMUdfocP6uDLVt0q+722QTgALhoEuAreMdMmFeiDywyL9LgL5LI3Xg7yXXPX+yXPDkXXLWrBHW4/q6VC6VuJIPrRP8Iwo2SHjBJgnN2yEhuXXfX+lv7WFzgOKgtSY0j80BioP/HW/4Dy8w/6ZnoSPfdXNIvut3qkTS9cQrpzisq/4AAABtyToPYIxKk+HqNBnqWKQD9j/1uPXsoQDwndk+ziEZc/ceBHinHxQAP7zSnyR/XZwqN77YTa5/obdcPe8iuXzONXLazIlywtRJklT2hsQWv2+t9h+JoM/mAJsDHW2DgM0BHw39+Vbob9Q/T7d+e7N+e114nvlMeIFZacurP9+RU3+cqhU7n3kAAIB2JRcrm9yqImSAOkcGqj4yxP5vGWrb6tMlQIAVBzvHOmTSrBBxzg2Vu5f4yZX+F3vKdQt+LRc+dbuc89hQ6V39lHSrfFHiSz6QmOJPJaLwGwkv3CihedslJHfnEbvS36ELhBZtELA5wOZAABcHR7ZAaAwvcP9bv64JL/TcE57f+CeVu+MoldOQpJwSal31BwAA8AVWCTBUdZdB6lwZYl+mA/P7+tXdJmcCUAD84tSNsUvtIyGSMztU+i/2ncMAf/ZK/7MXyuVzr5LTH3lYTpxWJqllr0pC8T918NmhA7TLr8J+x9ogYHOAzQEKgFa74l9oNnlX/cPyja369auIAmOxnkdDCjy/Dy8yTlcDJITPMAAAgE+S/soud6goGaHOkeGqjw7N/5Jhts0dbhPAD4sD12iHzK0NkZpZoXLfIl+70t9Drltwklz0ZD85d9bg/17pL35fYoo+lYiC9dYJ/t9f6feG/xzjp8fPiwE2B9gcYHMgQIqDfHNXWJG5Ts/bYfme4aH5TbeqUk9Ple1KUU4JVxXe8C+d+OwCAAD4LOvxgN5NgCHqHBnmWLzvTACXniYKgPYsAOzy/OQQmTHTWwCE+tiV/gvkirlXyukzJ8iJU0slrewVSSh+T4f9HTrQ/0LYpwBgc4ACgKcW+FEBEFpg7tbvbworMLaH5hsbIgrMl8MLzXmOwsbrQ0t2XWSt+gMAAPgTaxPgfhUpQ9Sp+54O8IaeL/TsCuhNgHYsDtyj7PJqscMqAR58MbRdT++/8Ml+co51pf9J6Vb5gsQVvy/RRZ9KeMF6CTuUK/2tPRQHbA5QHLA5cGRnd1iB93F+7g/CC42M8ALjPpXTeJzyPs7PuTlSlXwdxhV/AADgl/Z7OsApMtgxVwbbX9ehdqcejwyxNxPw27YA8Iy0y5uFDllcGSIDXgg9wlf6o6Xvkhi5eUmy/HVxmg7+3eX6hUfvO73/6u+v9KeWvSwJxe/qQLhDbDkuPYY19vYaCgA2BygA2BxoxbFKk3xzj37dFZJn7AzNNzaF5Zlvhue7F4cWGneGFxpXqxESpfpIMJ81AAAAv2eVAP1UqIxTvWS4Ok+G2ubpWStD7B4CftsWB00j7PJJlkPeKA6RgQtDj+CV/ijps/A4+dNzZ8j5T/SXMx8dKb2qn5aulYsktviDH1zpD8nbrsPZTrHl/jf8H85QHLA5wOaAbxcHAXcLQJ65J6zQ3BZaYH4elu8pDStoHKHyXCerXPdRKm97jCrcGMEVfwAA0KGIUp0kX0XJONVDBttLZLBtrgx1bNBBtY5NgLYrAHaNsMuXToe8kx8ig1qhAPBe6fde5b9tcZzcvDhZ/rrIe6W/hw7/x8qVz1wml83+s5wyI1N+NWWSJJe9LnHF//qfK/2tPRQAbA6wOcDmQHtuDuz7sfboV+8V/7rQPGNLWIH5Xli+e41+3yD99g0qRxL2Hu4HAADQQYlSQXK6sstAlSJD1XEy2DZRhgRP12F1e4d6TKAPT7P3IMBRdvlyokOGPh8qty89vPB/29Jo6+T+P8z/jfzm8QFy+iMTpHvVfOlcsUJiiz+S6KLPJbzgGwnL3/jfK/1HKPj7bXHQwQsE/90cYIOAzYGWjtEcWuCu029/HZ7vrg7Pc09Q+cYZKtfTWzm/jlf5W6K44g8AAAKGdUvAfSpOh/47ZLBtggxxfCBDHd/uuyWAAwKPZAEwdO85AN84HTJ8fqjcueQgr/IvC//+Sr/35P6bFnWW61/oIdctPFaumHuVXPL0jXLS9Hw5tnaKJJT8XaILP9KBq85nwz4FAJsDR3SD4AhsDlAA+O7mwL5v0xySZ+wJydPBP8/cGprX8J+wfOP1sDz3qIgcd19V5kpRtRvCCf4AACAgWdsAThUtw1WqDAq+WoYG3yWD7e/IYNvXMsS+S48c9BDsD7kE2DbWIVlzQmTwwlC58xe2APotjZRbF8fLH58/W6589ndy1qPD5ZQZ2db9/KnlL0tM0ccSVbhOwvM3SFjeJv3J+g6/C//cekBxwOYAmwOHMc2hBaYrNN/4NryocXp4YWOWyjfPUWWeY9Xo+gTl3BatnBJE+AcAAAFP+iiHDHP8Wgf/y2WQY74Mtq/Vs1kH+zr9ukdPMwVA68+OMXbJfzpERjwfKnctCd13pT9c+i6LkNuWxOnAnyA3Le4sNy7qItcvPEauW/BruWT2dXL+k3fICVMrpHf1LOt+/qiCz3VYqw+4sE8BwOYAZw8E/OZAs/7+vff51+vgvy003/w4LM94M7SocUJ4YdPd1iP98oVVfwAAgB+TASpEhqkIGaq6yxB1qgyxZcmg4Jky1LZFj0cGH8I2AJsDBzV1ox0y9ZEQyZsdKv0X7wv/S2LllkWpctW8S6zD+06bmaHDfrmklq+RxNI3JbrgUx34v5SwvA0SmrvJup/fnhN4V/opDigO2BwI+M0B7xV/d2iB93A/92NhBWahKnBfoAobTlTO+kTllGjldNr0BPF/eAAAgAOwnhJQoUJktErSgb+/DLE59eu7er7Q490GMA5qG4AC4KdniL1p3zkLO3eOduyYMj26PueJONdtC9Obb3yxu1z3/Anyx/lnyEVP9pVzZz0kR9fMtA70i8r/VMJyN+jQ2CC2bON/hxBPAUABwOZAR98cyDO8473q36Bfd4Tmm5+F5RvvhOa5s8PyPQ+qoh3dVemO2L2r/gAAAPhFVgmgVLB1NoC3CBiozpTB6vc6sE6XYbYXrSLgUM8HYHPgu9klw+yf6vm7/liWfzsupmDQlMtmXT/jxudPnFru8ob9xLI3JLbknxJZsE7CC76SUO/9/LlbxGat+DdIsA77Pze2Qx3CP8UBBUIrbhCwOXDExluqFLg9jnxzmy3fnGsvMCtUbsMlqsB1isppSFJ522N08LcR/gEAAFrIelLAGJUmQ9WvZKhjgg6w1TLY8b6er3QI36mn4aDPCAi8AqBx35X+un2PWNwoQxxf6rdXyTDHszLMNuTLcUkDbqu5rfCyqSNmHFX5bH1a+XIJy/9Gh45tOsy7fjHsUwBQAFAAsDnQYQuA3O/fbg7JdTfo1x0h+e51Ifnme/Z8s0i/DlW5db1VkbXuT+gHAABoDXKxslmHBN6p4qW/SpNh6lwZpK7WgXaSnjkyxLZJhtpc7VIC+GZxsMcK/sPs/9HzpgwOrtUfozwZHtxHhnsPWVRHyf3epy6o2Cpnv9QuhR/8Ob5g3cCwvM1bQqzg39Di8H84Q3FAcUBxwOaATxUH3jIk32zUH5/ttjxzvv79rVbZritUrnGmGrMpRTl3xKr+Yld9JJj/UwMAABwB1kbACNVFhqkTZVDIMBnkKNRh9y0dej+UwfZNerbpL5tWAPbVQqA11/m99/MPtbv01OvZqr+8WYY5vtTzsQxxLJWhjrky1DZGv/8+GWE/S0Y7jpP+yv79B7REwiLy3ZeG5rrvCM4xNrV16KcAoACgAGBzwGcKgB9c8TddIbnGzpB884uQPPc/7bmuMkeOa5TKaTxOFbhSCf0AAABt5PuNgEEqVgaoJBmijtFvn6ZD7gMy2DZBhth08LW9KYN1MPaFswJauzgYYhUb3uD/lZ7/6F/rPP06U4YGDZUhwXfLcHWe9RSFAaqLdaV/lIqzzlO4WIV6P24/+GD2F3tSed3REYWuy3QI/6Y9C4A2KxAI/xQHFAdsDvzkPf5mo6PAe8XfM9+e66lWefuu+GdLiiqVWFUrdjWH8A8AANAurAMDnSpchqpEGRJyjQ7CfXXwnyKDbXNlsOM/erxPD9ioZ4sOzd6nCDTo10YrQA/20aA/2L5bj7e4cOtXc99ZBzusq/ve+/iHOnTwd3yq335Vvy7Rv+YSGeZwytDgv1gr/t7g/4BK0B+XX74n1bnall4hXaIKdp0XnO36WgfpZgoAhgKAzYGA2Bw40BX/AvOLkHz3P+15Zpkjz80VfwAAAF+z76kBQTJMRcgIFSX3qmR5UHWW0epX+stn6GDcV4YFPbS3GLDP1oH5n3o+swK2L20IeG9Z8Ab/obYN+uf3uX5dLcNsL8jg4CoZbCuQoUH3yqDgW/Wv82w9v5aBqpv+9XWW/irROh/BqSKtMqSP9QSFgz+QyikOlevprcPxB8HZphGc478lAMUBxQHFAZsDBz0HuuKf6/q9yjLPUk4d+nN3xnHFHwAAwA9YpUC+ipIclSSDbBfrEP1HGeIYK4MdOkg7Flon4Q92fKTnc/3+b/R8a20J7D1DYId11X2w9YSBhn1nCrj3XZH37NsgaNRvN/1g/vt+z/fffu9/67Jm7+MLvd+v9/vfrl83W+cWWD+2Y4O1rTDE8al+3xt6dPi3P6Jnsg7/w/WX75chwVfJUNuF3x3gd0gh/+d4T6/OcnfXIe1dHYh36NlDAUABQAFAAdDhNgf++98067ddjgNd8c9sPF5lG2lc8QcAAPAz1laAUsEyWIVZ2wH3qThrNX6QStPvS5eH1NH69QQZabtChgX/2doSGB40QgfuIhkcPEmG2x/XAXzOvjMFVuh5Xb/9Nxlqf9faIhjivf9ezxD7Bzqgf7Bvs+C9fYcS6hBvW61nuf5vntPzjAwNnq5/nBr9vmwZZHtY/3gP6i/fLQOD/0+/73L9czlJBqpjrSv73p/fXSpFblXJOujHykgVI/1VuH479JCv8B8M/QlvSI4x35FjvKNDcWMgFQAUBxQHFAcBsjmQa4q9wGzUs92Waz5nz3HXqFwPV/wBAAACgQxQIXK/irROxh9uP02H8T/quVGH+Qd1IB8qwxw5erxPGZiiA/0MPU/KMPtsGexYoOcF/XWLrRniWKLH+7rQ+rphDh32Hfrb2R/R/+00/VquX4tlqHVA4Wj9/fTXX+4ng4P/YAX/IfaTZWDIsfrnE22VFUp1avMPRrYrJTTX9XhIrvGKDrduAj4FAAUABUDH2BywioPvr/g78o0v9fzLnmuWO3Ldo7niDwAAECD2nR3QyXqiwJUqxNoSuENFWVfbvVfdb1MJ1sbAMJUsA1WKNXvX79Os8Z4zsP98937vt/nu23v/W+8Bhd779L2n8XtX9/vr798b9r1X9L2B3/tje38O+34+7fLBcNbFO7KNDHu28WhwtquegE9xQHFAgeD3mwPen3OB22MvMLd9f8W/wPN7ld/EFX8AAAAEMKfEOnLqR9izG6p0SN1JUKcAoACgAPDLzQHv1f48Y48jx2hw5Lh2OPLc6xy5nvfsua5yR65rtMqX41WpcMUfAAAAAWzYxoiQQs8f7PmeB4OyXFuCdAD98RDe/aQ4oEDg1oNALQ50+NcfQ4+erfrHnGPPaZikCj2XqSLjdOXcvPeKv/N9h/fxp/yjDwAAgMA1+Ouw0MJdF9vzm/oGZbk2UQBQAFAAUAD4RQFgXfF37XHkmvX6y9sdOfWfO3Ia3nXkmYUhueZQVVx/jKpuSOaKPwAAAPAd/clxRNmmFHt+3VlBmcaXQVnGHj1ywMk+tCG8UxxQHFAcHJHiwLribxr6223Sr0/oKVa57otVXtPJyqlDv3NHrOovdsI/AAAAsD+nMyi+QqIdhY0nBmU1fKKDvkeH92YKAAoAhgLAtwoAV7Mjp2GPfrvOkWdsdeQYn+i339aTE5JjPqRyPT1VjiQopwTxDzsAAADwU7yfMDvNLrYsY7GeD3TYb/rJLYCWDMUBxQFDcXA4k2c023Ld9bZc85vgPPdMW56Zq7Lc56vsxhNVzrdJKm97jOr/tl31mcMVfwAAAOAXOV2p9mxzti3bfMPaAqAAoACgAKAAaN/Zo2eXnjp7nvdwP/M/et6w5RtOe75xr3K6u1mr/lzxBwAAAA6RU2Jt2fUjg7MbJuvQvrNVCwCKA4oDigOKg0MM/7ZcY6cO/F/pP1u1tixjosoyz1GZW49Xo601/2jrRH/CPwAAANACzm3R+pP7u3UwywrKcm2nAGAoACgA2rQAyDN262my57p08Hdt0e/7lz3PfEX/WRlrzzbuUPnSWU+UUtKJf7ABAACAwzHgk5Dw4qZTHfmNfwrKdH3rEwUAxQEFAsVBYBQHOvzr39vNOuh/YsszS205rlEq1zhdlXh6q9H1e6/4z5kT7D20lH+sAQAAgMPV/217tP5kOzTffWlQpuuLVj8IkAKAoQCgAPjheO/vb9SzXc9G/W3e1rPcnusa7Mh13aQKG5JV7YZwrvgDAAAAR0Kt2FWu+6jgbHNVULb5mQ7Tu/x6E4DigOKA4sBXi4Nd9hzzSz3v2rIbsuzZDQOsE/2z3N1V7s44lb/Fu+ofRPgHAAAAjqRsIy04y3hOB+J/6GmkAKAAoABgDr8AcOkxG/W49dtbHTnGev32q45sY4E917grJM/4gxqlg79THPwjDAAAALQV545YW5Y5LDjLnBSU5fKNpwF0sOKAAoHiIACLgyZ7rvmhfn09KNscGZzt7qcy649VWWa6dX9/oURwtR8AAABoa/kSZc9w9bNlGg/rcLuNgE8BQAHAHPq49Jge/bapQ/9mh3fdP9e1XL8+FZzdcKMtt+ESNUyHfh7jBwAAALQjp9hCM3f2sGU2XKzD7Tq/PgyQ4oChOGifyTU8tizjHf1xWBaU3fBAcEbD9arQ3UNlu1L0vzGRqkTCuOIPAAAAtDenBEUV1Sfas3eepkPqv/XUBWW5mgnsFAAMBcDPBP5m79V+PQ16vCf6r9Ov8/XrlOCs+j/Ys+rOURUSwj+wAAAAgK/pI8FqjJGmQ+ojnbLM1Z2yDFOP/NQQ5jm0kGnF4sD/CoTd+ufbEJxjrgrONZ8OznDdEjyx7kqVJ92UU5KVc0P43vDPFX8AAADAN+VIQlCWq1AHzTmdsswGCgAKAIYCYL+r/XtsOab3av9OPV/bc8z/BOe4HrHl1hfYsnad78hp/JVyvs+J/gAAAIBfKJEwW6brsuBM404d8jf9XAFwuEOYpzhg/KQ40OFf/5w8wVmubcE5xjw9k1WmcY3KMn+j8o3OKqc+QTkllMf5AQAAAP5kwCch9tymU/Un+H/qlGl80SnL9HTKclEAUAAwgVcA7LHluHbr1zo924KzGz6zZbv+od9XasupH6WyG09U+dJFOVfb+IcTAAAA8Ffe+3Zz3UfpkP6inn/raTySmwAUBxQHjM8VB3v097VDz1dBue6pQblGlspxX6DyGk9SzoZk5ZRY62q/Uwj/AAAAgN8b40oJynY92inbtaZTpuGmAKAAoADo8AXALj2NthzXDluua5P+un/peTUozz0uOM99t8ra0V3l7ozzPjGEfyABAACAjmTYxgiV5fmDngc7Zbi2dMrU4ftgx4fKAooDigPmoGa3nvW2HOPfQZlmQVCWOUTlNp2qcut668AfryfaWvUn/AMAAAAdkHNdqMpqOkdNNG/Qof5L6yyADBcFAEMB0CHGpcf06DGDsxu26i9/Y8s21tpyjBeDMo0HgjPNv6hKSVAzJZTH+AEAAAAdnv6k31sCZO7s0SnDWKiD/Xt6Gg9pE+BQh+KAoThoq2nUH7v3grNcq4NyzGHB2e7blLP+OOU0u6i87TGqanOk/jcgiPAPAAAABBJnQ3JQhmt6pwzXCh3STQoAhgLAL6c5ONs0gnPM+uAsY6P+8rrgHGNhcJbrkeBcs48t132xul+H/j4SzD96AAAAQKAaLGEqt+ESleO6vVOGsVEH9eYjWgJQHDAUB609u4KzXfU68C8PznE9qTJct6iJdVeqLHd35ZRk5Xw/UpV8HcbVfgAAACDQeR/1lec6SWUbV3fKMD/plGm6fK4EoABgKAD2nz068O+2rvbnGNv121/Zsl0f6Len2XJcuSqj/gKV0XCCDv4O/oEDAAAA8EMDPglRY7d11SFrqg62y474rQAUB4wPFwc+XiA0B+ngH5RjbAjKNJ/QU6JyXZerXONMNUbS9p3oH2oVewAAAABwQM66+KAMI1MHilmdMhrqOmW6fO9WAAoAJjALgF3eQ/307NCzWf/cvFf73wjKNHL039eBKr/+WFXgSuX+fgAAAAAHp7/YVY7nGJXpuaxTpvlhpyyz3ifPA6A4YALr1oPd+vtcH5Ttej8owywOynCNUPnGGapY/111bki0TvSv1X935xD+AQAAABwspwSpnIYkle06pVOG8bqer3UY3kUBQAFAAdCGBUCO9zR/w6PH1G9v1q/r9awNznYtCsowHwqeaN6gyjalqFkbIzjUDwAAAEDLeVeIB9fFq1zjfpVj5qsM1w4ViAUAxQHTPsVBc3CW4Q7KNv8enO1eFpTpGhzsPdHfu5mTZaarPIlRVRKpg38Q4R8AAADA4SuUCJVj/EkHjodUlrFejydgbwWgAGCOZAGQYzTr1z361RWU7aoLzjY2BGebn+rX+XqmBmea19qyGi5UTgm3NnQAAAAAoHVJJzViS5QaV3e0yjTnqizzbyrT8Hg3AQ51KAX8uzigQDii5UBzUJbpCco0tnfKNhYEZbmm679vf1HZ7t8q5/ZuytmQrGp18J8poVztBwAAAHAE6cAxWpJ0iK/Q87wOJvX6dQ8FAAUAc1izW09TUKarTs+2oCzz06BM492gbKMyKKthgsowzlS5nt6q/9t2/g0CAAAA0Ha8J4vnNPxKZbuu0GH+Az07W1ICsDlAccDsDf/6Y/JtpyzXRyrLnKSyjfEqwzxPZTeeqLI3pajcnXGqQkKsv3cAAAAA0Kb6zAnWgSRJZTedojJca1Sm+anKMHZRAFAAUAAc7Iq/4dFjBmW5tgRlur7plG282SnLtUxlmcNUtvs2NXZbV+XcEcv9/QAAAADan/epAE6JVjkNf1HZrqE6nG9qqy0AigMOLfTjaQ7KNNz61/KODvwrVKY51Ar84xqOV2PNrtbVfue26H1/vwj/AAAAAHyEc12oyjN/o3LNG1RGw0cq07XTV0sAQj0FQDsG/j1BWWaDfnunfntDUIbxWadsY35Qlmuammj2UZnui5Vzc6Sao0M/AAAAAPgm6aScEqqcRmcdYjJUlvsRlemq99UtAIoDioM2D/9ZhqGD/uZOmea8oCx3tcpsuFbPxSrL7Gqd5l+4MUKVfB3Gaf4AAAAA/IP3VoBso78OzFkq0/xGhxtTv91MAUABEIAFQNO++/t36Nmsw/9HwZmut4MyzZKgLPcolbHzdJW5s5f+O2PjHw4AAAAA/sd7r/LI7TFqdP0xKtP1uJ6XVIbh7kibABQIFAcHMbs6ZZvr9H/3rspwFaqJruEqo+5sldlwvPXoTKfEqgESovpzmj8AAAAAvyad1ND6RB168pSz4SmVYWxTmWajDkIUAExHLQCag7INMyjb5QrKNDbpL3/VKdv1cqds43mV0fCg/ntwvcrekqbyt0Sx4g8AAACgY/EeYuY0u+jwf6bKMpbqeV+H4EY2ASgOOmBx0NQp01XXKctcpcP/HJXtvktlNf5ZOXf2VE5XqsqTGFUlkTr4BxH+AQAAAHRAOuh4DzTL2tFdh//peparDFedDrRNhHoKAD8vAHZboT/L0KHf2KZ/7C86ZRjvB2W5ZgZ51/2zPb9Tucbp1oo/AAAAAAQG6aT6iENl1h1tnXaeYbyuA+0XenYR7CkO/LQ40OHf/LZTtvsjldFQqydTZbt/q7KN0/SkKeeGRFUiYarCCv9c7QcAAAAQQLyHAuZtj1GZ9ccq73p0prFWZRguPZQAFAD+UAA063HrMfS33axnfads881O2e5lKqN+jJ67VK6np8ppSLL+rAMAAABAQPMGI+e6UJXReILK9FyuMl1v6ID6JZsAFAc+Prv1uFSm+ar+uDyvssyHVIb7r8pZf5x+u6saJXHWYy+9j/HrI8H8RQcAAAAAL28J4L1KmuE6SYepuXreUBlGA2cCUAD4VODPcO3Sr3WdMl3bO2UYX3XKMP+jMl1PqkyzQmXV/1HP+WqYRBD4AQAAAODneEPTYAnbWwK4fq9D1Vo9nAlAcdD+k+Ha0ynL3KznMzXRmKYmunNUtst7mN+ZaqyZrkZbK/7hekI5yR8AAAAADkafOcGqQpJUoZyoMhrmqsyGtSrTXacyzUaV6SJIUwC01TR3yjTdegwd/rfo2dApy/h7pyzXKh3+x6uJnntUTv0xqsCVytV+AAAAAGgpb6DqJ6Eqp/E4Hf4vURnmCh0gP+B2AIqDNpo9ekyVZazV84L+8zdEZbhuU045Tjnd3ZSzLt66t7//23bCPwAAAAAcLu+ZALkSpzI9x6oMY6ae5SrTtV0HQreeZoIxBcCRubff2N4ps2G9no/1n7fZKsuoUhPN61SG+yL9ZzLSOtAPAAAAANDKrKcDiENl7eiunHVnqSzzST0vqQyrBCAcM61RHOzulGVs0vOpDvlTrXv7M12X6z9nZ6mxkq5Ge29H2RihSr4O495+AAAAADiidOjyhi/nti4q08zT4ewJlWF+s/dcABebAMyhFgDNetydMgxDv27Ws17P252yXCtVhnucdW9/Zv2xKttIY70fAAAAANqcdFIXr7apHEnae0tAfa4O/4+pDFcdtwMwhzBN+s9MvbVFkmU8qzLNAfrtm5Sz/jjl3N5NjZI4695+5xyHcq5m1R8AAAAA2s3eWwJiVebO+9TEnTk6wH2sQ90WHeq8jwncQ8BlfjDePxcZrkb99k49W/XbX6iJDR/o0D9LT6nKrP8/lVN/nhomEVztBwAAAABfs7cEiNbTWWW5b1aZrpEq0/05twQwP5pdOuR/oec9ldlQoWe8ytp1ocpuOkU5jc5qdEOS/jMUrieUe/sBAAAAwJd5g1uW+0KVYd6o52U10fWRyjQbdODzqAwXATiwplllGHtUluFSma46/fYm/b6v9J+Hl/XrQpXlGqLnVuV0H6VyJMEqkQAAAAAA/uK7wwHXxaps4zSV7blSB/9FOvC9o4Ofh1AcQOF/b/DfrIP/Av3lGTrs99Xv+4Ny7uypxmxJs24byZco6xyJPnNY9QcAAAAAv+S9d7tgc6rK2H6SynRPVlnmczoIfqOD4A49uzkksEMGfo8e07qvP9PYqMP/hyrD9bb+fZ+kv/ywymy4WOW5TrYeIQkAAAAA6EC8JUAfHfayXSnWI9wmmkP1lOiQuEFlmQYlQIcZ70GP5t4tj+8e22fcp4P/qSrTc7RybkxWuTvj1GAJUwMkhL8YAAAAANBRWQcEbovW4b+PyjAH6ZD4pg6Ln6os76PfrOBIEeBvB/llupr0q/dxj9v12+t12P9Evz1f/35OV07XbcppXKVy6hOs20E4zA8AAAAAAokOgVUSufewN+MMKyBmmk/rWaPDo5tQ7TfjvX3jG5Vl/ke/TtG/d9kq13O5yjHPVk6zi3I2JFu/z7USrn/Pgwj/AAAAABCovLcFZBtpOiieqDLMfJXhekxlmp+rLGPz3iLAbFSZPC3At07xN137rvZ7T/H/Ws9a/Xu0VGW5x6hM990qp/44lW90tn5vAQAAAAD4nnO1TTnfd1gr4s7t3XTov1YHzft1sHxNh82P9GsT4dsnDvUzdNDfon9vXtBffkQ5jTv0/EllenqprK3papTEKadEW7+XTrHxBxsAAAAA8NO8h8Jl1J2pJtZdrTLNJ1WWuUJleO8pd23TodNDGdCGgX/vx9vUgX+rno0qy/WRynT9Xb9dpSY2ZCin+xKV0XSq6rculNV+AAAAAMAh0kGyQkKUU8KV05Wqcj29deC8QwfP0SrbfFNlmZ9SArTBff0ZhqE/3mtVtrFIZRljVGbDPf89xb8hWeVKnCqRMOv3CgAAAACAwyOdrCIg03WZmui6WeWYc3QoXaWD6Ncqw7VFZZmmHo9+m9B+eNO092q/a6fKaNimMswv9Xyosl2zVbZRrbL0xz7T9XuVs55T/AEAAAAAR4q3BNgQrkZsiVJjvIcFenorp+sWNdEcrLKM5Xre0WHVzaMDDyP8Z5kf64/jWyrTLLEO8stpuEjlGqeqsWa6GtaQrJwSaRUxnOIPAAAAAGgbOnwOljDlbLhQTWi4TmW7p6psc76aaHymMowNOszu0GG2ft+j6fYQ7g+02u/apYN+vf547dBvf6tf11nnLGSZz6hM10Dran+u+yhVVJ+oQ38Qf+YAAAAAAO1EOqmZEqoKN0bogJqssqSrmrjjtyqr/s9qolGhQ+1TOsh+pWc7JcCPwr/30YqZxucq23hU5ZjF1tMWMt2XqCx3d+u8BeeOWJW/JUpdLDYe4QcAAAAA8C3ex81l7uylQ+1pamL9UD15OuS+oiY2vKeyzPU65G5SmQ31Ovy6VIaxa992QEcP+7v23dffYN3Xn2noj4Gx3lrzz3Kt0q+ZKts1UGU3naYKpJfq/7adP0gAAAAAAN/XX+zW4wPzJEblSIJ1RTun8Tg1seEG5Wy4VwfeGXqeUxnGlzoIb+ngmwHegmOD/rV+ojLNp1Wme7LKqO+nJtb/0TrBP8vsqgbXxauR22Osj5n3YwcAAAAAgF/ybgUUSoRy1p2jJtRdqbKNh1WWq1xluF7W4fjver7W863+8jY9O/Tbhh63H20I7N73czX1eDcbtuvZqjJdOvi7vtRvv6FfV6gMM19lmiOtWyQydpyqPy6h3NcPAAAAAOhgpJP1jHrvs+qddfHK6T3Uzuyixnl6qWzX71ROg/f+9/EqyyzUIXqhDsprVJa1Jr/VxzcEvPfyb9SzTmW5l6pszzMqoyFbh/+RKsdzlX7fhdYhfvlGZzW6PsG6r9/7MfB+LAAAAAAACAzSSfURh8qvP1blGqerDNdtKqvhQR3+K3WwflSH6tf06zt6vtBft16/brTun/duCmQa23XIrtNTv/fKu8ut/zuPnkb99q59993v2TfNP/FYwu/e/92327XvVP7Gvd+Xy9y7jeD9MfSPleHariY2bFNZpv55mN6Nha+tQ/wyjTf116/RYX+KDv3FKqOhv54bVV7jCVb4925AAAAAAAAQ8JzisO5/9554n7c9Ro1uSFJjXCk6aKdb5wdkGWeoPPf5KsP9V5Vh3KXfN06/Zuv3T9dB/HH9ush6dF6GVRb8S79Ph3LTu3q/zXq8XpZp6vHsO4hv74F8GUaj9T7v11llgrHFOpMgw/hMf3/v6vd7D+hbpt9+QWW6H9E/Zq2eiTroj1Y57r4q27xeja87W413nbz356h/rsMaktVQ63F90XoiVZ/3HRzoBwAAAADAwegzJ1hVSJIqNruqDPM8lem5zNoUyDD663A+YV8RUG2VARnGfD06sJur9bxsFQITjff0132gA/qH+suf6qD/qXUg30Q93vd5vy5DB37rLALXS/q/W6mD/wKV2TDPuqKfbVbqb5uh3x6jst13WCVEbsPFKkeH/+GuVDVqZxz38QMAAAAA0Br6SLC6WGzKuS5UDf46TOVLlKqQ6L3h23ueQEOytTFQoAN5tpG2d3PAmq7WON3dVJ6esd4r9fvG+7b3fd6v++7bffffjdHfh1N/X97vN6chyfoxrB9rW7QasSXKOrzPew+/9+dF+AcAAAAAAAAAAAAAAAAAAAAAAAAAAAAAAAAAAAAAAAAAAAAAAAAAAAAAAAAAAAAAAAAAAAAAAAAAAAAAAAAAAAAAAAAAAAAAAAAAAAAAAAAAAAAAAAAAAAAAAAAAAAAAAAAAAAAAAAAAAAAAAAAAAAAAAAAAAAAAAAAAAAAAAAAAAAAAAAAAAAAAAAAAAAAAAAAAAAAAAAAAAAAAAAAAAAAAAAAAAAAAAAAAAAAAAAAAAAAAAAAAAAAAAAAAAAAAAAAAAAAAAAAAAAAAAAAAAAAAAAAAAAAAAAAAAAAAAAAAAAAAAAAAAAAAAAAAAAAAAAAAAAAAAAAAAAAAAAAAAAAAAAAAAAAAAAAAAAAAAAAAAAAAAAAAAAAAAAAAAAAAAAAAAAAAAAAAAAAAAAAAAAAAAAAAAAAAAAAAAAAAAAAAAAAAAAAAAAAAAAAAAAAAAAAAAAAAAAAAAAAAAAAAAAAAAAAAAAAAAAAAAAAAAAAAAAAAAAAAAAAAAAAAAAAAAAAAAAAAAAAAAAAAAAAAAAAAAAAAAAAAAAAAAAAAAAAAAAAAAAAAAAAAAAAAAAAAAAAAAAAAAAAAAAAAAAAAAAAAAAAAAAAAAAAAAAAAAAAAAAAAAAAAAAAAAAAAAAAAAAAAAAAAAAAAAAAAAAAAAAAAAAAAAAAAAAAAAAAAAAAAAAAAAAAAAAAAAAAAAAAAAAAAAAAAAAAAAAAAAAAAAAAAAAAAAAAAAAAAAAAAAAAAAAAAAAAAAAAAAAAAAAAAAAAAAAAAAAAAAAAAAAAAAAAAAAAAAAAAAAAAAAAAAAAAAAAAAAAAAAAAAAAAAAAAAAAAAAAAAAAAAAAAAAAAAAAAAAAAAAAAAAAAAAAAAAAAAAAAAAAAAAAAAAAAAAAAAAAAAAAAAAAAAAAAAAAAAAAAAAAAAAAAAAAAAAAAAAAAAAAAAAAAAAAAAAAAAAAAAAAAAADa1/8D0xvmZLkohzMAAAAldEVYdGRhdGU6Y3JlYXRlADIwMTktMDMtMjJUMTU6MTg6MzArMDg6MDA9msxfAAAAJXRFWHRkYXRlOm1vZGlmeQAyMDE5LTAzLTIyVDE1OjE4OjMwKzA4OjAwTMd04wAAAABJRU5ErkJggg==;" parent="1" vertex="1">
          <mxGeometry x="254.25" y="850" width="190" height="190" as="geometry" />
        </mxCell>
        <mxCell id="B9LdbDwmjlOiAespIzek-419" style="edgeStyle=orthogonalEdgeStyle;rounded=0;orthogonalLoop=1;jettySize=auto;html=1;" parent="1" source="B9LdbDwmjlOiAespIzek-418" target="B9LdbDwmjlOiAespIzek-415" edge="1">
          <mxGeometry relative="1" as="geometry" />
        </mxCell>
        <mxCell id="B9LdbDwmjlOiAespIzek-418" value="&lt;h2&gt;&lt;span style=&quot;margin: 0px ; padding: 0px ; color: rgb(51 , 51 , 51) ; background-color: rgb(255 , 255 , 255)&quot;&gt;&lt;font style=&quot;font-size: 14px&quot;&gt;- WebDriverAgent&lt;br&gt;&lt;/font&gt;&lt;/span&gt;&lt;span style=&quot;margin: 0px ; padding: 0px ; color: rgb(51 , 51 , 51) ; background-color: rgb(255 , 255 , 255)&quot;&gt;&lt;font style=&quot;font-size: 14px&quot;&gt;&lt;span style=&quot;color: rgb(77 , 77 , 77)&quot;&gt;- Android Debug Bridge&lt;/span&gt;&lt;/font&gt;&lt;/span&gt;&lt;/h2&gt;" style="label;whiteSpace=wrap;html=1;image=img/clipart/Gear_128x128.png" parent="1" vertex="1">
          <mxGeometry x="228.5" y="1130" width="241.5" height="70" as="geometry" />
        </mxCell>
        <mxCell id="B9LdbDwmjlOiAespIzek-428" style="edgeStyle=none;rounded=0;orthogonalLoop=1;jettySize=auto;html=1;entryX=1;entryY=0.5;entryDx=0;entryDy=0;" parent="1" source="B9LdbDwmjlOiAespIzek-421" target="B9LdbDwmjlOiAespIzek-418" edge="1">
          <mxGeometry relative="1" as="geometry">
            <mxPoint x="585" y="1165.18" as="targetPoint" />
          </mxGeometry>
        </mxCell>
        <mxCell id="B9LdbDwmjlOiAespIzek-429" value="adb connect ${ip}:${port}" style="edgeLabel;html=1;align=center;verticalAlign=middle;resizable=0;points=[];fontSize=23;fontFamily=Helvetica;" parent="B9LdbDwmjlOiAespIzek-428" vertex="1" connectable="0">
          <mxGeometry x="-0.1472" y="3" relative="1" as="geometry">
            <mxPoint as="offset" />
          </mxGeometry>
        </mxCell>
        <mxCell id="THrHEtW_TLAu6NxBBVhM-437" style="edgeStyle=elbowEdgeStyle;rounded=0;orthogonalLoop=1;jettySize=auto;html=1;fontFamily=Helvetica;fontSize=18;" edge="1" parent="1" source="B9LdbDwmjlOiAespIzek-421" target="B9LdbDwmjlOiAespIzek-423">
          <mxGeometry relative="1" as="geometry">
            <Array as="points">
              <mxPoint x="1104" y="1046" />
            </Array>
          </mxGeometry>
        </mxCell>
        <mxCell id="B9LdbDwmjlOiAespIzek-421" value="" style="sketch=0;outlineConnect=0;fontColor=#232F3E;gradientColor=none;fillColor=#232F3D;strokeColor=none;dashed=0;verticalLabelPosition=bottom;verticalAlign=top;align=center;html=1;fontSize=12;fontStyle=0;aspect=fixed;pointerEvents=1;shape=mxgraph.aws4.traditional_server;" parent="1" vertex="1">
          <mxGeometry x="786" y="922" width="144.23" height="250" as="geometry" />
        </mxCell>
        <mxCell id="B9LdbDwmjlOiAespIzek-435" style="edgeStyle=elbowEdgeStyle;rounded=0;orthogonalLoop=1;jettySize=auto;html=1;fontFamily=Helvetica;fontSize=23;" parent="1" source="B9LdbDwmjlOiAespIzek-423" target="B9LdbDwmjlOiAespIzek-421" edge="1">
          <mxGeometry relative="1" as="geometry">
            <Array as="points">
              <mxPoint x="1109" y="1079" />
              <mxPoint x="1085" y="1056" />
              <mxPoint x="955" y="1040" />
              <mxPoint x="1107" y="1160" />
              <mxPoint x="1125" y="1165" />
              <mxPoint x="1154" y="1119" />
            </Array>
          </mxGeometry>
        </mxCell>
        <mxCell id="THrHEtW_TLAu6NxBBVhM-412" value="socket长连" style="edgeLabel;html=1;align=center;verticalAlign=middle;resizable=0;points=[];fontSize=20;fontFamily=Helvetica;" vertex="1" connectable="0" parent="B9LdbDwmjlOiAespIzek-435">
          <mxGeometry x="0.2495" y="-1" relative="1" as="geometry">
            <mxPoint x="28" y="-16" as="offset" />
          </mxGeometry>
        </mxCell>
        <mxCell id="B9LdbDwmjlOiAespIzek-423" value="" style="sketch=0;pointerEvents=1;shadow=0;dashed=0;html=1;strokeColor=none;fillColor=#434445;aspect=fixed;labelPosition=center;verticalLabelPosition=bottom;verticalAlign=top;align=center;outlineConnect=0;shape=mxgraph.vvd.web_browser;" parent="1" vertex="1">
          <mxGeometry x="1157" y="987" width="165.68" height="117.64" as="geometry" />
        </mxCell>
        <mxCell id="B9LdbDwmjlOiAespIzek-431" value="手机端" style="text;html=1;align=center;verticalAlign=middle;resizable=0;points=[];autosize=1;strokeColor=none;fillColor=none;fontSize=18;fontFamily=Helvetica;" parent="1" vertex="1">
          <mxGeometry x="317" y="1311" width="64" height="26" as="geometry" />
        </mxCell>
        <mxCell id="B9LdbDwmjlOiAespIzek-438" value="&lt;span style=&quot;color: rgb(35, 47, 62); font-size: 18px;&quot;&gt;Linux 上的node中转服务&lt;/span&gt;" style="text;html=1;align=center;verticalAlign=middle;resizable=0;points=[];autosize=1;strokeColor=none;fillColor=none;fontSize=18;fontFamily=Helvetica;" parent="1" vertex="1">
          <mxGeometry x="758" y="1170" width="206" height="26" as="geometry" />
        </mxCell>
        <mxCell id="THrHEtW_TLAu6NxBBVhM-413" value="app可视化预览的原理流程" style="text;html=1;align=center;verticalAlign=middle;resizable=0;points=[];autosize=1;strokeColor=none;fillColor=none;fontSize=24;fontFamily=Helvetica;fontStyle=1" vertex="1" parent="1">
          <mxGeometry x="605" y="1381" width="293" height="33" as="geometry" />
        </mxCell>
        <mxCell id="THrHEtW_TLAu6NxBBVhM-414" value="&lt;span style=&quot;font-size: 18px&quot;&gt;web浏览器端&lt;/span&gt;" style="text;html=1;align=center;verticalAlign=middle;resizable=0;points=[];autosize=1;strokeColor=none;fillColor=none;fontSize=24;fontFamily=Helvetica;" vertex="1" parent="1">
          <mxGeometry x="1169" y="1099" width="115" height="34" as="geometry" />
        </mxCell>
        <mxCell id="THrHEtW_TLAu6NxBBVhM-420" style="edgeStyle=elbowEdgeStyle;rounded=0;orthogonalLoop=1;jettySize=auto;html=1;fontFamily=Helvetica;fontSize=18;" edge="1" parent="1" source="THrHEtW_TLAu6NxBBVhM-416" target="THrHEtW_TLAu6NxBBVhM-418">
          <mxGeometry relative="1" as="geometry" />
        </mxCell>
        <mxCell id="THrHEtW_TLAu6NxBBVhM-435" value="推送ipa签名包" style="edgeLabel;html=1;align=center;verticalAlign=middle;resizable=0;points=[];fontSize=18;fontFamily=Helvetica;" vertex="1" connectable="0" parent="THrHEtW_TLAu6NxBBVhM-420">
          <mxGeometry x="-0.1401" y="-2" relative="1" as="geometry">
            <mxPoint x="6" y="15" as="offset" />
          </mxGeometry>
        </mxCell>
        <mxCell id="THrHEtW_TLAu6NxBBVhM-416" value="IOS发版" style="rounded=0;whiteSpace=wrap;html=1;fontFamily=Helvetica;fontSize=18;" vertex="1" parent="1">
          <mxGeometry x="206" y="1480" width="120" height="60" as="geometry" />
        </mxCell>
        <mxCell id="THrHEtW_TLAu6NxBBVhM-421" style="edgeStyle=elbowEdgeStyle;rounded=0;orthogonalLoop=1;jettySize=auto;html=1;fontFamily=Helvetica;fontSize=18;" edge="1" parent="1" source="THrHEtW_TLAu6NxBBVhM-417" target="THrHEtW_TLAu6NxBBVhM-418">
          <mxGeometry relative="1" as="geometry" />
        </mxCell>
        <mxCell id="THrHEtW_TLAu6NxBBVhM-436" value="推送apk签名包" style="edgeLabel;html=1;align=center;verticalAlign=middle;resizable=0;points=[];fontSize=18;fontFamily=Helvetica;" vertex="1" connectable="0" parent="THrHEtW_TLAu6NxBBVhM-421">
          <mxGeometry x="-0.6837" y="-2" relative="1" as="geometry">
            <mxPoint x="50" y="-40" as="offset" />
          </mxGeometry>
        </mxCell>
        <mxCell id="THrHEtW_TLAu6NxBBVhM-417" value="android发版" style="rounded=0;whiteSpace=wrap;html=1;fontFamily=Helvetica;fontSize=18;" vertex="1" parent="1">
          <mxGeometry x="207" y="1685" width="120" height="60" as="geometry" />
        </mxCell>
        <mxCell id="THrHEtW_TLAu6NxBBVhM-423" style="edgeStyle=elbowEdgeStyle;shape=link;rounded=0;orthogonalLoop=1;jettySize=auto;html=1;fontFamily=Helvetica;fontSize=18;" edge="1" parent="1" source="THrHEtW_TLAu6NxBBVhM-418" target="THrHEtW_TLAu6NxBBVhM-422">
          <mxGeometry relative="1" as="geometry" />
        </mxCell>
        <mxCell id="THrHEtW_TLAu6NxBBVhM-418" value="云测平台" style="rounded=0;whiteSpace=wrap;html=1;fontFamily=Helvetica;fontSize=18;" vertex="1" parent="1">
          <mxGeometry x="503" y="1586" width="120" height="60" as="geometry" />
        </mxCell>
        <mxCell id="THrHEtW_TLAu6NxBBVhM-422" value="" style="whiteSpace=wrap;html=1;aspect=fixed;fontFamily=Helvetica;fontSize=18;dashed=1;" vertex="1" parent="1">
          <mxGeometry x="686" y="1457" width="318" height="318" as="geometry" />
        </mxCell>
        <mxCell id="THrHEtW_TLAu6NxBBVhM-424" value="推送云测安装包的自动化流水线" style="text;html=1;align=center;verticalAlign=middle;resizable=0;points=[];autosize=1;strokeColor=none;fillColor=none;fontSize=24;fontFamily=Helvetica;fontStyle=1" vertex="1" parent="1">
          <mxGeometry x="467" y="1800" width="346" height="33" as="geometry" />
        </mxCell>
        <mxCell id="THrHEtW_TLAu6NxBBVhM-425" value="" style="verticalLabelPosition=bottom;verticalAlign=top;html=1;shadow=0;dashed=0;strokeWidth=1;shape=mxgraph.android.phone2;strokeColor=#c0c0c0;fontFamily=Helvetica;fontSize=18;" vertex="1" parent="1">
          <mxGeometry x="703" y="1489" width="46" height="89.7" as="geometry" />
        </mxCell>
        <mxCell id="THrHEtW_TLAu6NxBBVhM-426" value="" style="verticalLabelPosition=bottom;verticalAlign=top;html=1;shadow=0;dashed=0;strokeWidth=1;shape=mxgraph.android.phone2;strokeColor=#c0c0c0;fontFamily=Helvetica;fontSize=18;" vertex="1" parent="1">
          <mxGeometry x="760" y="1490" width="46" height="89.7" as="geometry" />
        </mxCell>
        <mxCell id="THrHEtW_TLAu6NxBBVhM-427" value="" style="verticalLabelPosition=bottom;verticalAlign=top;html=1;shadow=0;dashed=0;strokeWidth=1;shape=mxgraph.android.phone2;strokeColor=#c0c0c0;fontFamily=Helvetica;fontSize=18;" vertex="1" parent="1">
          <mxGeometry x="817" y="1490" width="46" height="89.7" as="geometry" />
        </mxCell>
        <mxCell id="THrHEtW_TLAu6NxBBVhM-428" value="" style="outlineConnect=0;dashed=0;verticalLabelPosition=bottom;verticalAlign=top;align=center;html=1;shape=mxgraph.aws3.mobile_client;fillColor=#D2D3D3;gradientColor=none;fontFamily=Helvetica;fontSize=18;" vertex="1" parent="1">
          <mxGeometry x="703" y="1612" width="40.5" height="63" as="geometry" />
        </mxCell>
        <mxCell id="THrHEtW_TLAu6NxBBVhM-429" value="...&amp;nbsp; &amp;nbsp;iphone" style="text;html=1;align=center;verticalAlign=middle;resizable=0;points=[];autosize=1;strokeColor=none;fillColor=none;fontSize=18;fontFamily=Helvetica;" vertex="1" parent="1">
          <mxGeometry x="884" y="1551" width="94" height="26" as="geometry" />
        </mxCell>
        <mxCell id="THrHEtW_TLAu6NxBBVhM-430" value="" style="outlineConnect=0;dashed=0;verticalLabelPosition=bottom;verticalAlign=top;align=center;html=1;shape=mxgraph.aws3.mobile_client;fillColor=#D2D3D3;gradientColor=none;fontFamily=Helvetica;fontSize=18;" vertex="1" parent="1">
          <mxGeometry x="748" y="1612" width="40.5" height="63" as="geometry" />
        </mxCell>
        <mxCell id="THrHEtW_TLAu6NxBBVhM-431" value="" style="outlineConnect=0;dashed=0;verticalLabelPosition=bottom;verticalAlign=top;align=center;html=1;shape=mxgraph.aws3.mobile_client;fillColor=#D2D3D3;gradientColor=none;fontFamily=Helvetica;fontSize=18;" vertex="1" parent="1">
          <mxGeometry x="794" y="1612" width="40.5" height="63" as="geometry" />
        </mxCell>
        <mxCell id="THrHEtW_TLAu6NxBBVhM-432" value="" style="outlineConnect=0;dashed=0;verticalLabelPosition=bottom;verticalAlign=top;align=center;html=1;shape=mxgraph.aws3.mobile_client;fillColor=#D2D3D3;gradientColor=none;fontFamily=Helvetica;fontSize=18;" vertex="1" parent="1">
          <mxGeometry x="840" y="1612" width="40.5" height="63" as="geometry" />
        </mxCell>
        <mxCell id="THrHEtW_TLAu6NxBBVhM-433" value="...&amp;nbsp; &amp;nbsp;android" style="text;html=1;align=center;verticalAlign=middle;resizable=0;points=[];autosize=1;strokeColor=none;fillColor=none;fontSize=18;fontFamily=Helvetica;" vertex="1" parent="1">
          <mxGeometry x="884" y="1645" width="100" height="26" as="geometry" />
        </mxCell>
        <mxCell id="THrHEtW_TLAu6NxBBVhM-434" value=".&lt;br&gt;.&lt;br&gt;.&lt;br&gt;&lt;span style=&quot;white-space: pre&quot;&gt;	&lt;span style=&quot;white-space: pre&quot;&gt;	&lt;/span&gt;&lt;span style=&quot;white-space: pre&quot;&gt;	&lt;/span&gt;&lt;/span&gt;不同的平台机型" style="text;html=1;align=center;verticalAlign=middle;resizable=0;points=[];autosize=1;strokeColor=none;fillColor=none;fontSize=18;fontFamily=Helvetica;" vertex="1" parent="1">
          <mxGeometry x="596" y="1676" width="256" height="92" as="geometry" />
        </mxCell>
      </root>
    </mxGraphModel>
  </diagram>
</mxfile>
